<svg xmlns="http://www.w3.org/2000/svg" width="35.073" height="39.086" viewBox="0 0 35.073 39.086">
  <g id="agriculture" transform="translate(9673.16 18731.166)">
    <g id="Group_10701" data-name="Group 10701" transform="translate(-10352.273 -19341.08)">
      <path id="Path_1545" data-name="Path 1545" d="M80.183,0a25.087,25.087,0,0,1,5.975,6.749,10.652,10.652,0,0,1-.4,11.836A23.53,23.53,0,0,1,80.185,24.3a22.591,22.591,0,0,1-5.991-6.394,9.773,9.773,0,0,1-1.514-6.28,14.366,14.366,0,0,1,1.08-3.93c1.4-3.138,3.808-5.478,6.423-7.7" transform="translate(616.473 609.914)" fill="#e22718"/>
      <path id="Path_1552" data-name="Path 1552" d="M.561,127.273c1.077.493,2.037.863,2.93,1.354,2.459,1.35,4.971,2.628,7.312,4.161a10.871,10.871,0,0,1,5.2,7.937,22.95,22.95,0,0,1-.29,6.483c-.082.514-.186,1.025-.281,1.542a.747.747,0,0,1-.238.011,43.277,43.277,0,0,1-9.426-4.675c-4.343-3.008-6.06-7.213-5.69-12.372.1-1.432.307-2.857.482-4.441" transform="translate(679.083 500.123)" fill="#003d78"/>
      <path id="Path_1553" data-name="Path 1553" d="M153.773,128.167a25.187,25.187,0,0,1,.35,8.279,11.649,11.649,0,0,1-3.766,6.975c-3.264,2.964-7.268,4.576-11.421,6.223-.188-1.271-.394-2.453-.533-3.642a15.994,15.994,0,0,1,.25-5.925,11.447,11.447,0,0,1,4.579-6.306,52.1,52.1,0,0,1,10.338-5.6.742.742,0,0,1,.2,0" transform="translate(559.853 499.355)" fill="#003d78"/>
    </g>
  </g>
</svg>
