<svg xmlns="http://www.w3.org/2000/svg" width="40.978" height="40.959" viewBox="0 0 40.978 40.959">
  <g id="ai_development" data-name="ai development" transform="translate(12740 18354.453)">
    <path id="Path_1608" data-name="Path 1608" d="M28.019,34.79H25.346c0,1.477,0,2.934,0,4.391,0,.588.156,1.364-.612,1.507a6.472,6.472,0,0,1-2.356-.07c-.236-.045-.5-.652-.515-1.012-.062-1.306-.025-2.617-.025-3.926v-.888h-2.7v3.983c0,1.927-.655,2.464-2.561,2.059a1.041,1.041,0,0,1-.955-1.134c.031-1.617.01-3.235.01-4.9H12.915q0,1.046,0,2.086c0,.916.044,1.836-.023,2.748-.025.342-.259.907-.482.952a7.048,7.048,0,0,1-2.353.128c-.672-.1-.644-.84-.659-1.365-.041-1.488-.014-2.978-.014-4.326-.957-.3-1.981-.352-2.539-.886s-.634-1.548-.993-2.552c-.342,0-.959.013-1.575,0-1.072-.028-2.144-.062-3.215-.117a.98.98,0,0,1-1-1.08C.051,29.99.036,29.6.061,29.2a1.171,1.171,0,0,1,1.258-1.194c1.336-.008,2.671,0,4.007,0,.255,0,.51-.024.8-.038V25.3c-1.533,0-3.042,0-4.552,0C.367,25.289.067,24.984.051,23.766c0-.262-.011-.524.006-.785A1.159,1.159,0,0,1,1.314,21.79c1.362-.009,2.724,0,4.086-.005.23,0,.461-.028.729-.046V19.091c-1.571,0-3.135.023-4.7-.017A1.7,1.7,0,0,1,.4,18.692a2.571,2.571,0,0,1,.057-2.836A1.4,1.4,0,0,1,1.3,15.6c1.591-.024,3.182-.012,4.82-.012V12.869H3.714c-.812,0-1.627.041-2.434-.021-.323-.025-.859-.228-.9-.43A7.641,7.641,0,0,1,.2,10c.085-.673.842-.637,1.365-.652,1.489-.042,2.98-.015,4.339-.015.3-.948.34-1.973.873-2.533s1.547-.635,2.56-1c0-.354-.013-1,0-1.637q.039-1.568.11-3.136a.966.966,0,0,1,1.07-1,12.187,12.187,0,0,1,1.256,0,1.161,1.161,0,0,1,1.134,1.233c.007,1.591,0,3.182,0,4.822h2.7c0-.779,0-1.554,0-2.329q.006-1.257.022-2.513A1.075,1.075,0,0,1,16.749.026a8.415,8.415,0,0,1,1.256,0,1.143,1.143,0,0,1,1.128,1.234c.009,1.309,0,2.618,0,3.927v.9h2.7V4.548c0-1.1-.007-2.2,0-3.3A1.14,1.14,0,0,1,22.975.022a8.394,8.394,0,0,1,1.256,0,1.071,1.071,0,0,1,1.108,1.22c.007,1.592,0,3.184,0,4.828h2.717c0-.5,0-1.014,0-1.525,0-1.1-.032-2.2.02-3.3.015-.321.221-.862.421-.9A7.687,7.687,0,0,1,30.913.155c.677.08.638.832.663,1.358.057,1.228.044,2.46.057,3.69,0,.28,0,.561,0,.643.955.319,1.975.38,2.52.921s.611,1.56.941,2.529c.475,0,1.173,0,1.872,0,.629,0,1.258-.015,1.885.014,2.078.1,2.188.278,2.028,2.553A1.063,1.063,0,0,1,39.7,12.875c-1.545-.014-3.09,0-4.635.009a.986.986,0,0,0-.206.06v2.562c.25.014.525.041.8.044,1.336.015,2.671.024,4.007.037a2,2,0,0,1,.547.031c.587.178.874,1.141.695,2.391a1.089,1.089,0,0,1-1.124,1.079c-1.362.009-2.724,0-4.086.006-.281,0-.562.023-.856.036v2.658c1.525,0,3.012.028,4.5-.012.7-.019,1.254.116,1.52.814a2.859,2.859,0,0,1-.411,2.519,1.375,1.375,0,0,1-.731.177c-1.595.015-3.19.008-4.849.008v2.717c1.524,0,3.035,0,4.546,0,1.108,0,1.5.387,1.51,1.5,0,.288,0,.576-.014.864a1,1,0,0,1-1,1.085c-1.018.059-2.038.093-3.058.121-.648.017-1.3,0-1.771,0-.315.947-.375,1.973-.918,2.517s-1.57.608-2.526.93c0,.489.012,1.163,0,1.836-.02.941-.055,1.882-.093,2.823a1.1,1.1,0,0,1-1.262,1.175c-.341,0-.682.019-1.021,0A1.171,1.171,0,0,1,28.061,39.6c-.008-1.335,0-2.671,0-4.006,0-.255-.023-.51-.038-.8M11.488,25.777c.985,0,1.85-.053,2.706.016.734.06,1.14-.178,1.243-.909.08-.566.4-.759.97-.734a13.377,13.377,0,0,0,2.2-.065.912.912,0,0,1,1.176.87c.055.3.282.789.455.8,1.154.072,2.315.037,3.562.037-.135-.412-.209-.658-.3-.9q-1.538-4.238-3.083-8.474c-.313-.852-.441-2.039-1.062-2.439-.671-.431-1.821-.1-2.759-.141-.6-.029-.866.229-1.065.782C14.28,18.087,12.992,21.54,11.72,25c-.079.215-.132.439-.232.777M28.239,13.891H24.606V25.718h3.632Z" transform="translate(-12740 -18354.453)" fill="#003d78"/>
    <path id="Path_1609" data-name="Path 1609" d="M106.079,115.305l.99,3.264h-2.242l1.028-3.273.224.009" transform="translate(-12828.301 -18451.574)" fill="#e22718"/>
  </g>
</svg>
