<svg xmlns="http://www.w3.org/2000/svg" width="51.467" height="31.736" viewBox="0 0 51.467 31.736">
  <g id="arvr" transform="translate(-375.599 -187.154)">
    <path id="Path_1593" data-name="Path 1593" d="M71.051,147.179c5.8.263,11.6.51,17.393.8a4.151,4.151,0,0,1,4.052,4.275q.021,4.822,0,9.644a4.123,4.123,0,0,1-4.3,4.283c-4.358.012-8.717,0-13.075.007a1.86,1.86,0,0,1-1.67-.879c-.1-.149-.209-.29-.3-.441-.728-1.159-1.349-1.287-2.812-1.078a2.38,2.38,0,0,0-1.081.711,5.6,5.6,0,0,0-.658.908,1.748,1.748,0,0,1-1.506.775c-4.43,0-8.86.021-13.29-.009a4.085,4.085,0,0,1-4.168-4.188q-.037-4.9,0-9.805a4.122,4.122,0,0,1,4.014-4.2c5.8-.294,11.594-.537,17.4-.8m-18.124,7.843c.223.292.354.633.581.718a1.193,1.193,0,0,0,.934-.053c1.681-1.073,3.335-2.19,4.989-3.306a.857.857,0,1,0-.933-1.424q-2.5,1.645-4.975,3.327a3.573,3.573,0,0,0-.6.738m10.413-1.536c-.018-.864-.745-1.243-1.366-.839-1.687,1.1-3.357,2.219-5.023,3.346a.853.853,0,1,0,.935,1.418q2.523-1.656,5.017-3.355a1.961,1.961,0,0,0,.437-.57" transform="translate(330.271 52.703)" fill="#003d78"/>
    <path id="Path_1594" data-name="Path 1594" d="M209.027,0a15.263,15.263,0,0,1,7.75,2.123c.7.41.807,1.167.222,1.544a.981.981,0,0,1-1.105-.081A13.656,13.656,0,0,0,202.444,3.4c-.141.076-.278.161-.421.234a.883.883,0,0,1-1.3-.277.839.839,0,0,1,.455-1.2A27.465,27.465,0,0,1,203.938.875,14.212,14.212,0,0,1,209.027,0" transform="translate(192.333 187.154)" fill="#e22718"/>
    <path id="Path_1595" data-name="Path 1595" d="M2.56,212.165a3.221,3.221,0,0,1-2.52-3.036q-.08-2.779,0-5.563a3.212,3.212,0,0,1,2.519-3.03Z" transform="translate(375.598 3.961)" fill="#e22718"/>
    <path id="Path_1596" data-name="Path 1596" d="M565.449,211.8V200.134a3.176,3.176,0,0,1,1.9,1.279,3.308,3.308,0,0,1,.656,2c.007,1.712.02,3.424,0,5.136a3.294,3.294,0,0,1-2.553,3.253" transform="translate(-140.949 4.328)" fill="#e22718"/>
    <path id="Path_1597" data-name="Path 1597" d="M234.018,49.758a12.372,12.372,0,0,1,5.438,1.27c.548.271.745.69.541,1.161a.837.837,0,0,1-1.214.4A11.506,11.506,0,0,0,235,51.519a10.342,10.342,0,0,0-5.3.95c-.806.369-1.264.288-1.517-.24s.017-.936.847-1.33a12.178,12.178,0,0,1,4.993-1.141" transform="translate(167.237 141.699)" fill="#003d78"/>
    <path id="Path_1598" data-name="Path 1598" d="M260.7,97.915c.932.2,1.843.354,2.735.585a.845.845,0,0,1,.708,1.113c-.157.5-.61.709-1.223.505a6.874,6.874,0,0,0-4.463.006.853.853,0,0,1-1.21-.53.827.827,0,0,1,.679-1.082c.909-.236,1.837-.4,2.774-.6" transform="translate(140.633 97.707)" fill="#e22718"/>
  </g>
</svg>
