<svg id="Automotive" xmlns="http://www.w3.org/2000/svg" width="46.307" height="46.523" viewBox="0 0 46.307 46.523">
  <path id="Path_1572" data-name="Path 1572" d="M41.2,97.411c.27-.609.495-1.123.727-1.633a.93.93,0,0,1,1.186-.641c.755.126,1.509.254,2.262.391a1.011,1.011,0,0,1,.934,1.095c.031.811-.2,1.2-.853,1.354-1.092.264-2.19.5-3.33.763.077.137.134.255.2.364.477.733.961,1.462,1.435,2.2a7.036,7.036,0,0,1,1.214,3.647c.057,2.232.016,4.467.016,6.736H1.325c-.01-.116-.027-.22-.027-.325,0-1.954-.008-3.908,0-5.861a7.828,7.828,0,0,1,1.351-4.366c.516-.779,1.024-1.562,1.558-2.378C3.075,98.491,2,98.245.92,97.99c-.713-.169-.942-.513-.918-1.346a1.016,1.016,0,0,1,.958-1.12q1.152-.211,2.306-.408a.887.887,0,0,1,1.066.551c.256.534.49,1.079.779,1.719a8.087,8.087,0,0,0,.4-.718c.622-1.448,1.279-2.883,1.839-4.355a5.8,5.8,0,0,1,5.116-3.919,78.06,78.06,0,0,1,14.639-.609c2.569.149,5.136.438,7.685.8a4.9,4.9,0,0,1,3.86,3.08c.731,1.639,1.408,3.3,2.117,4.95.107.25.257.482.425.794M7.3,96.259H39c-.663-1.513-1.248-2.994-1.956-4.414A3.285,3.285,0,0,0,34.4,90.024c-2.606-.3-5.216-.611-7.833-.754a70.693,70.693,0,0,0-14.538.725,3.487,3.487,0,0,0-2.75,1.817c-.726,1.427-1.311,2.925-1.981,4.448m6.049,7.832c.68,1.442,1.29,2.755,1.927,4.054a.616.616,0,0,0,.451.219c1.012.073,2.027.127,3.041.175,1.607.077,3.216.233,4.82.2,2.341-.052,4.68-.236,7.018-.391a.739.739,0,0,0,.5-.369c.536-1.075,1.037-2.167,1.549-3.253.081-.172.16-.346.289-.625a78.851,78.851,0,0,1-19.592-.009m20.523,3.539.129.124,2.219-.309q2.062-.289,4.124-.578a1.486,1.486,0,0,0,1.28-.892,2.8,2.8,0,0,0,.039-2.057.786.786,0,0,0-.858-.58c-1.369.112-2.737.226-4.1.367a.82.82,0,0,0-.545.3c-.779,1.2-1.527,2.415-2.285,3.626m-21.569.114.127-.117c-.758-1.211-1.5-2.43-2.287-3.626a.886.886,0,0,0-.59-.306c-1.226-.132-2.455-.224-3.683-.338-.905-.084-1.252.152-1.363,1.05-.155,1.259.165,2.422,1.823,2.5.745.036,1.482.208,2.224.312q1.874.264,3.749.521" transform="translate(-0.001 -76.687)" fill="#003d78"/>
  <path id="Path_1573" data-name="Path 1573" d="M54.066,291.931a5.357,5.357,0,0,1-.624,3.241,4.664,4.664,0,0,1-3.977,2.09c-.2.014-.406.011-.609.011q-16.626,0-33.252-.013a8.141,8.141,0,0,1-2.3-.324,4.054,4.054,0,0,1-2.916-3.842c-.022-.372,0-.747,0-1.162Z" transform="translate(-9.073 -255.353)" fill="#e22718"/>
  <path id="Path_1574" data-name="Path 1574" d="M311.666,332.991a7.1,7.1,0,0,0,5.93-1.907c0,1.068,0,2,0,2.926,0,.359.015.72-.007,1.078a1,1,0,0,1-1.051,1.027q-1.921.02-3.843,0a.945.945,0,0,1-1.017-.9c-.044-.712-.011-1.428-.011-2.226" transform="translate(-272.607 -289.602)" fill="#003d78"/>
  <path id="Path_1575" data-name="Path 1575" d="M10.208,330.846a5.923,5.923,0,0,0,2.786,1.665c1.008.222,2.05.285,3.125.424,0,.638.026,1.353-.009,2.064a.948.948,0,0,1-.966.9q-1.989.027-3.979,0a.945.945,0,0,1-.952-.961c-.017-1.325-.006-2.65-.006-4.094" transform="translate(-8.926 -289.394)" fill="#003d78"/>
  <path id="Path_1576" data-name="Path 1576" d="M221.465,3.586c2.61-1.2,2.372-.918,3.572-3.586a4.284,4.284,0,0,0,3.41,3.521,4.448,4.448,0,0,0-3.452,3.517,4.307,4.307,0,0,0-3.53-3.452" transform="translate(-193.718 0)" fill="#003d78"/>
  <path id="Path_1577" data-name="Path 1577" d="M329.244,6.643c.8,1.772.8,1.772,2.705,2.749a3.245,3.245,0,0,0-2.667,2.578,3.385,3.385,0,0,0-2.614-2.63,3.252,3.252,0,0,0,2.575-2.7" transform="translate(-285.741 -5.811)" fill="#003d78"/>
  <path id="Path_1578" data-name="Path 1578" d="M291.7,44.458a3.385,3.385,0,0,0,2.635,2.631A3.319,3.319,0,0,0,291.7,49.7a3.348,3.348,0,0,0-2.637-2.611,3.348,3.348,0,0,0,2.631-2.627" transform="translate(-252.85 -38.888)" fill="#e22718"/>
</svg>
