<svg xmlns="http://www.w3.org/2000/svg" width="48.218" height="53.117" viewBox="0 0 48.218 53.117">
  <g id="bussiness_inteligence" data-name="bussiness inteligence" transform="translate(13094 18373.279)">
    <path id="Path_1616" data-name="Path 1616" d="M182.022,74.886V65.848c.712,0,1.4-.016,2.094.016.115.005.265.2.322.343.291.709.538,1.435.843,2.137a.941.941,0,0,0,.47.418q1.811.782,3.642,1.515a.931.931,0,0,0,.627.028c.712-.283,1.4-.632,2.109-.912a.667.667,0,0,1,.581.1c.941.9,1.845,1.84,2.782,2.745a.471.471,0,0,1,.093.646c-.319.677-.633,1.358-.9,2.055a1.026,1.026,0,0,0,.034.68q.713,1.809,1.483,3.6a.944.944,0,0,0,.427.465c.684.3,1.382.577,2.09.818a.542.542,0,0,1,.421.622c-.017,1.231-.019,2.463,0,3.694a.569.569,0,0,1-.444.661c-.692.23-1.374.5-2.04.8a1.024,1.024,0,0,0-.46.5q-.761,1.761-1.463,3.548a1.106,1.106,0,0,0-.04.727c.266.7.585,1.377.9,2.055a.444.444,0,0,1-.084.6c-.946.921-1.867,1.869-2.818,2.785a.616.616,0,0,1-.537.093c-.7-.274-1.379-.581-2.055-.9a.823.823,0,0,0-.786.025c-1.15.517-2.319,1-3.495,1.452a.823.823,0,0,0-.585.53c-.237.691-.534,1.36-.771,2.051a.5.5,0,0,1-.588.389c-.6-.023-1.207-.007-1.847-.007V91.1a8.111,8.111,0,0,0,6.674-3.617,7.766,7.766,0,0,0,1.354-5.019,7.877,7.877,0,0,0-2.543-5.382,8.03,8.03,0,0,0-5.494-2.2" transform="translate(-13249.98 -18429.701)" fill="#003d78"/>
    <path id="Path_1617" data-name="Path 1617" d="M45.228,204.028a3.951,3.951,0,0,1-1.753-2.342c-.263.014-.525.034-.788.042a3.822,3.822,0,0,1-3.955-3.556,2.874,2.874,0,0,1,1.041-2.365.822.822,0,0,0,.223-1.06.775.775,0,0,0-.943-.423,1.373,1.373,0,0,0-.535.328,4.848,4.848,0,0,0-1.429,2.49,3.661,3.661,0,0,1-1.329-2.989,4.074,4.074,0,0,1,4.111-4.008c2.337-.014,4.675,0,7.1,0-.148.251-.271.451-.386.657a.857.857,0,1,0,1.441.918,3.084,3.084,0,0,1,3.579-1.457,3.851,3.851,0,0,1,2.841,3.087,6.171,6.171,0,0,1,.064.853c0,3.016.014,6.031,0,9.047a3.852,3.852,0,0,1-3.245,3.983,3.714,3.714,0,0,1-4.251-2.855,2.837,2.837,0,0,1,.551-2.118,1.943,1.943,0,0,0,.315-.491.846.846,0,0,0-1.441-.83,4.5,4.5,0,0,0-1.1,2.337c-.036.227-.065.455-.108.758m2.356-5.536a4.28,4.28,0,0,0,2.949-1.277,1.144,1.144,0,0,0,.221-.948,1,1,0,0,0-.713-.51,1.19,1.19,0,0,0-.747.319,2.951,2.951,0,0,1-2.451.649,2.909,2.909,0,0,1-2.386-2.244c-.17-.63-.491-.894-.985-.839-.592.066-.855.579-.671,1.311a4.794,4.794,0,0,0,4.784,3.539" transform="translate(-13124.643 -18536.215)" fill="#e22718"/>
    <path id="Path_1618" data-name="Path 1618" d="M36.95,71.533a4.893,4.893,0,0,0,1.54,2.6.861.861,0,0,0,1.244-.021.8.8,0,0,0-.064-1.194c-2.226-1.881-.708-5.258,1.762-5.834a13.57,13.57,0,0,1,1.916-.169,3.96,3.96,0,0,1,1.74-2.264c.04.281.071.516.107.75a4.481,4.481,0,0,0,1.1,2.339.831.831,0,0,0,1.2.1.811.811,0,0,0,.126-1.154,2.971,2.971,0,0,1-.156-3.792,3.954,3.954,0,0,1,4.178-1.327,3.756,3.756,0,0,1,2.685,3.27c.074.94.046,1.889.048,2.835.005,2.284.016,4.568,0,6.852A3.811,3.811,0,0,1,51.1,78.481,2.937,2.937,0,0,1,48,77.147a2.778,2.778,0,0,0-.24-.353.8.8,0,0,0-1.064-.172.78.78,0,0,0-.35,1.058,8,8,0,0,0,.454.8.615.615,0,0,1-.158.052c-2.356,0-4.713.049-7.067-.014a3.844,3.844,0,0,1-3.665-2.583,3.754,3.754,0,0,1,.775-4.17c.059-.064.13-.117.261-.232m10.53-1.346a4.774,4.774,0,0,0-4.855,3.735c-.093.573.125.978.589,1.094a.823.823,0,0,0,1.059-.7A3.02,3.02,0,0,1,49.266,72.7a.817.817,0,0,0,1.236-.04.871.871,0,0,0-.161-1.274,4.525,4.525,0,0,0-2.862-1.2" transform="translate(-13124.504 -18425.902)" fill="#e22718"/>
    <path id="Path_1619" data-name="Path 1619" d="M26.389,2.544c-.332-.35-.633-.669-.937-.985A.862.862,0,1,1,26.643.337Q28.1,1.723,29.528,3.131a.861.861,0,0,1-.174,1.5q-1.69,1.081-3.4,2.131a.852.852,0,0,1-1.268-.193c-.284-.441-.141-.916.392-1.261.477-.309.961-.608,1.587-1-.54-.049-.932-.1-1.325-.118A22.4,22.4,0,0,0,12.512,45.716c.153.092.312.175.458.277a.842.842,0,0,1,.319,1.16.831.831,0,0,1-1.208.278,31.325,31.325,0,0,1-2.663-1.787A23.74,23.74,0,0,1,.159,29.179,24.083,24.083,0,0,1,26.043,2.543c.1.008.2,0,.346,0" transform="translate(-13094 -18373.279)" fill="#003d78"/>
    <path id="Path_1620" data-name="Path 1620" d="M131.841,83.82l.933.975a.864.864,0,1,1-1.2,1.215q-1.431-1.37-2.845-2.758c-.579-.57-.529-1.107.146-1.538q1.669-1.065,3.355-2.1c.549-.34,1.031-.267,1.311.176s.133.916-.4,1.262c-.475.307-.958.6-1.437.9l.02.169c1.215.012,2.433.095,3.643.023A21.8,21.8,0,0,0,148.17,77.2a21.237,21.237,0,0,0,8.081-14.426c1.07-9.658-2.662-17.1-10.849-22.315-.572-.364-.741-.825-.452-1.286.274-.436.76-.516,1.314-.18a23.436,23.436,0,0,1,11.6,16.955A23.825,23.825,0,0,1,145.78,80.868a23.323,23.323,0,0,1-13.493,2.953c-.136-.01-.274,0-.446,0" transform="translate(-13203.967 -18406.514)" fill="#e22718"/>
  </g>
</svg>
