<svg xmlns="http://www.w3.org/2000/svg" width="40.519" height="41.916" viewBox="0 0 40.519 41.916">
  <g id="chating_app" data-name="chating app" transform="translate(8194.499 19684.345)">
    <path id="Path_1560" data-name="Path 1560" d="M98.584,0a7.316,7.316,0,0,1,.853.267,3.327,3.327,0,0,1,2.158,3.15c.036,4.474.016,8.948.013,13.423,0,.563-.27.794-.9.795-2.756,0-5.512,0-8.268.005a3.592,3.592,0,0,0-.932.091,2.079,2.079,0,0,0-1.091,3.259c.677.941,1.379,1.864,2.094,2.776a2.016,2.016,0,0,1,.455,1.347c-.026,2.237-.023,4.474-.008,6.711a4.839,4.839,0,0,0,4.325,4.89,29.741,29.741,0,0,0,3.23.045c.922,0,1.074.176,1.1,1.1a3.862,3.862,0,0,1-.955,2.947,3.322,3.322,0,0,1-2.47,1.1q-8.288.016-16.576,0a3.439,3.439,0,0,1-3.407-3.438c-.02-4.078-.009-8.157-.006-12.236,0-.584.272-.824.919-.825,2.77,0,5.539,0,8.309,0a3.347,3.347,0,0,0,.851-.077,2.083,2.083,0,0,0,1.1-3.281c-.727-1.005-1.5-1.977-2.225-2.985a1.516,1.516,0,0,1-.284-.812c-.024-2.332-.008-4.665-.02-7A4.856,4.856,0,0,0,83.464,6.54,5.134,5.134,0,0,0,82.1,6.307c-1.008-.035-2.019-.01-3.028-.015-.619,0-.876-.254-.871-.87a19.928,19.928,0,0,1,.064-2.45A3.369,3.369,0,0,1,81.038.07,1.367,1.367,0,0,0,81.226,0h1.064a5.508,5.508,0,0,1,.515.656c.466.815.913,1.641,1.359,2.468a2.491,2.491,0,0,0,2.348,1.415q3.393,0,6.787,0a2.494,2.494,0,0,0,2.33-1.38c.484-.868.965-1.737,1.469-2.594A3.8,3.8,0,0,1,97.6,0Z" transform="translate(-8264.146 -19684.346)" fill="#003d78"/>
    <path id="Path_1561" data-name="Path 1561" d="M136.585,0h10.808q-.711,1.265-1.421,2.53a1.07,1.07,0,0,1-.99.607q-3.479,0-6.957,0a1.057,1.057,0,0,1-.994-.6c-.228-.419-.458-.837-.686-1.255-.346-.634-.3-.852.241-1.284" transform="translate(-8315.736 -19684.346)" fill="#e22718"/>
    <path id="Path_1562" data-name="Path 1562" d="M207.093,174.1c2.292,0,4.585-.007,6.877,0a3.479,3.479,0,0,1,3.6,2.775,4.737,4.737,0,0,1,.076.976q.008,4.42,0,8.84a3.5,3.5,0,0,1-3.738,3.733q-4.175,0-8.35,0a3.508,3.508,0,0,1-3.718-3.719c-.005-2.456,0-4.911-.011-7.367a1.215,1.215,0,0,0-.223-.665c-.812-1.112-1.646-2.209-2.479-3.306a.774.774,0,0,1-.165-.9.788.788,0,0,1,.8-.369q3.663,0,7.327,0m7.423,7.214a2.708,2.708,0,0,0-1.383-2.559,2.662,2.662,0,0,0-2.87.062.9.9,0,0,1-1.024-.048,2.773,2.773,0,0,0-4.17,2.55,5.694,5.694,0,0,0,2.224,4.205,3.728,3.728,0,0,0,2.812,1c2.221-.258,4.388-2.832,4.412-5.209" transform="translate(-8371.63 -19839.404)" fill="#e22718"/>
    <path id="Path_1563" data-name="Path 1563" d="M10.6,86.626c-2.347,0-4.694.009-7.04,0A3.45,3.45,0,0,1,.081,83.855a4.534,4.534,0,0,1-.075-.935Q0,78.48,0,74.039a3.491,3.491,0,0,1,3.737-3.73q4.175,0,8.35,0a3.5,3.5,0,0,1,3.719,3.714c.006,2.455,0,4.911.011,7.366a1.214,1.214,0,0,0,.222.664c.812,1.112,1.647,2.208,2.478,3.306a.732.732,0,0,1-.637,1.268q-3.643-.008-7.286,0M3.3,77.374a5.924,5.924,0,0,0,3.344,5.06,3.173,3.173,0,0,0,2.947-.1,5.75,5.75,0,0,0,3.156-4.714,2.6,2.6,0,0,0-1.284-2.6,2.57,2.57,0,0,0-2.827-.071,1.056,1.056,0,0,1-1.205,0A2.762,2.762,0,0,0,3.3,77.374" transform="translate(-8194.5 -19746.967)" fill="#e22718"/>
    <path id="Path_1564" data-name="Path 1564" d="M274.918,227.62a4.395,4.395,0,0,1-2.63,3.549,1.57,1.57,0,0,1-1.386-.01,4.332,4.332,0,0,1-2.627-3.667,1.371,1.371,0,0,1,.992-1.5,1.394,1.394,0,0,1,1.628.782.726.726,0,0,0,1.4,0,1.372,1.372,0,0,1,1.586-.784,1.461,1.461,0,0,1,1.039,1.633" transform="translate(-8433.432 -19885.58)" fill="#003d78"/>
    <path id="Path_1565" data-name="Path 1565" d="M49.647,123.624a4.449,4.449,0,0,1-2.753,3.84,1.609,1.609,0,0,1-1.308-.05,4.377,4.377,0,0,1-2.6-3.7,1.331,1.331,0,0,1,1.038-1.463,1.346,1.346,0,0,1,1.584.773.77.77,0,0,0,.7.54c.378,0,.564-.248.718-.569a1.379,1.379,0,0,1,2.623.625" transform="translate(-8232.779 -19793.191)" fill="#003d78"/>
  </g>
</svg>
