<svg xmlns="http://www.w3.org/2000/svg" width="39.199" height="37.543" viewBox="0 0 39.199 37.543">
  <g id="cloud_services" data-name="cloud services" transform="translate(-429.968 -538.438)">
    <path id="Path_1113" data-name="Path 1113" d="M0,17.014c.2-.544.24-1.126.436-1.674a8.078,8.078,0,0,1,4.164-4.7.485.485,0,0,0,.315-.482A7.291,7.291,0,0,1,12.87,3.31a.831.831,0,0,0,.87-.38,7.315,7.315,0,0,1,11.852.2.425.425,0,0,0,.471.2,7.323,7.323,0,0,1,7.95,5.316,6.765,6.765,0,0,1,.257,1.58.392.392,0,0,0,.273.388A8.082,8.082,0,0,1,39.085,16.7a8.2,8.2,0,0,1-6.14,9.2,20.361,20.361,0,0,1-4.188.228c-.153,0-.2-.058-.193-.2.008-.089,0-.178,0-.268q0-6.618,0-13.236a2.435,2.435,0,0,0-1.906-2.556,3.281,3.281,0,0,0-.721-.057q-6.35,0-12.7,0a2.43,2.43,0,0,0-2.616,2.625q0,6.637.008,13.274c0,.362-.105.44-.441.426a25.192,25.192,0,0,1-3.509-.146,8.186,8.186,0,0,1-6.6-6.932c-.009-.071.012-.157-.075-.2Z" transform="translate(429.968 538.437)" fill="#003d78"/>
    <path id="Path_1114" data-name="Path 1114" d="M127.047,223.342c2.32,0,4.641.006,6.961-.008.294,0,.353.079.352.36q-.014,6.674-.007,13.348c0,.709-.284.992-1,.992q-6.349,0-12.7,0c-.713,0-.995-.284-.995-1q0-6.674-.008-13.348c0-.289.073-.356.357-.355,2.346.012,4.692.007,7.037.007" transform="translate(322.554 337.944)" fill="#e22718"/>
    <path id="Path_1115" data-name="Path 1115" d="M126.994,121.525c-2.308,0-4.615-.01-6.923.01-.365,0-.422-.111-.42-.44.013-2.78.007-5.559.007-8.338,0-.739.283-1.027,1.008-1.027h12.7c.683,0,.986.3.986.973,0,2.83-.006,5.661.01,8.491,0,.316-.11.337-.367.336-2.333-.009-4.666-.005-7-.005" transform="translate(322.555 438.135)" fill="#e22718"/>
    <path id="Path_1116" data-name="Path 1116" d="M185.191,264.286a.818.818,0,0,1-1.636,0,.818.818,0,0,1,1.636,0" transform="translate(265.186 301.904)" fill="#fdfdfd"/>
    <path id="Path_1117" data-name="Path 1117" d="M184.387,311.37a.814.814,0,0,1,.8.8.818.818,0,0,1-1.636.007.814.814,0,0,1,.834-.81" transform="translate(265.187 258.913)" fill="#fdfdfd"/>
    <path id="Path_1118" data-name="Path 1118" d="M155.824,137.295c-1.084,0-2.168.007-3.251,0a.774.774,0,0,1-.811-.7.806.806,0,0,1,.608-.893,1.11,1.11,0,0,1,.265-.024q3.194,0,6.388,0a.816.816,0,0,1,.388,1.562,1.186,1.186,0,0,1-.489.062q-1.549,0-3.1,0Z" transform="translate(293.733 416.643)" fill="#fefefe"/>
    <path id="Path_1119" data-name="Path 1119" d="M155.765,167.649c1.033,0,2.066,0,3.1,0,.605,0,.95.3.954.8,0,.519-.352.826-.972.826q-3.137,0-6.273,0a.82.82,0,0,1-.83-.493.776.776,0,0,1,.1-.828.858.858,0,0,1,.745-.308c1.058,0,2.117,0,3.175,0" transform="translate(293.813 387.936)" fill="#fefefe"/>
    <rect id="Rectangle_17925" data-name="Rectangle 17925" width="39.199" height="37.544" transform="translate(429.968 538.437)" fill="none"/>
  </g>
</svg>
