<svg xmlns="http://www.w3.org/2000/svg" width="35.152" height="35.123" viewBox="0 0 35.152 35.123">
  <g id="data_science" data-name="data science" transform="translate(-491 -902)">
    <path id="Path_1612" data-name="Path 1612" d="M35.153,24.788v1.853c-.046.314-.086.628-.138.941a8.4,8.4,0,0,1-5.437,6.924,11.991,11.991,0,0,1-5.514.527,19.17,19.17,0,0,1-6.23-1.785.69.69,0,0,0-.505-.005,18.439,18.439,0,0,1-9.04,1.833c-.672-.049-1.336-.2-1.968-.3l.91-1.923a14.229,14.229,0,0,0,8-.96A35.251,35.251,0,0,1,3.266,19.938,14.176,14.176,0,0,0,2.3,27.93l-1.88.9A12.173,12.173,0,0,1,.1,24.178a20.553,20.553,0,0,1,1.811-6.294.66.66,0,0,0,0-.581c-.342-.834-.705-1.663-.982-2.519a15.092,15.092,0,0,1-.72-7.6A8.238,8.238,0,0,1,4.942.932,11.387,11.387,0,0,1,11.624.179,20.66,20.66,0,0,1,17.3,1.917a.615.615,0,0,0,.581,0c.37-.178.75-.336,1.133-.485a17.17,17.17,0,0,1,7.9-1.348c.657.062,1.306.206,1.92.306l-.9,1.913a13.96,13.96,0,0,0-7.955.987A35.216,35.216,0,0,1,31.9,15.225a14.206,14.206,0,0,0,.963-7.989l1.881-.9c.044.181.107.39.143.6.1.573.181,1.147.27,1.721v1.579c-.031.247-.065.495-.094.742a20.7,20.7,0,0,1-1.811,6.3.664.664,0,0,0,.011.611,20.883,20.883,0,0,1,1.585,4.875c.125.672.207,1.352.309,2.028M17.6,4.344a.765.765,0,0,0-.082.028c-.061.03-.123.061-.183.094A32.048,32.048,0,0,0,4.477,17.295a.536.536,0,0,0,.005.592A32.2,32.2,0,0,0,17.345,30.715a.452.452,0,0,0,.5-.023A32.07,32.07,0,0,0,30.706,17.82a.457.457,0,0,0,0-.5,29.87,29.87,0,0,0-3.857-5.569A31.835,31.835,0,0,0,17.92,4.507c-.109-.059-.222-.113-.321-.163M3.266,15.24A34.985,34.985,0,0,1,15.212,3.282c-.082-.039-.119-.061-.158-.076a15.423,15.423,0,0,0-6.778-1.08A6.5,6.5,0,0,0,2.2,7.775,14.876,14.876,0,0,0,3.266,15.24M19.931,31.892c.356.126.65.237.95.334a13.47,13.47,0,0,0,6.51.726,6.267,6.267,0,0,0,5.432-4.928,10.787,10.787,0,0,0-.041-5.064c-.223-1.006-.538-1.991-.812-2.985l-.109,0A34.967,34.967,0,0,1,19.931,31.892" transform="translate(491 902)" fill="#003d78"/>
    <path id="Path_1613" data-name="Path 1613" d="M438.364,15.12a2.058,2.058,0,1,1-2.073,2.026,2.06,2.06,0,0,1,2.073-2.026" transform="translate(84.714 887.92)" fill="#e22718"/>
    <path id="Path_1614" data-name="Path 1614" d="M19.231,438.344a2.058,2.058,0,1,1-2.051-2.047,2.062,2.062,0,0,1,2.051,2.047" transform="translate(476.925 495.709)" fill="#e22718"/>
    <path id="Path_1615" data-name="Path 1615" d="M166.084,165.566v-1.959h-1v-2.052h.978v-2.133h-.983V157.37h.988v-2.133h-.982v-2.064h1V151.2h10.438v1.958h1.009v2.052h-.978v2.133h.983V159.4h-.988v2.133h.982v2.064h-1v1.971Z" transform="translate(337.271 761.197)" fill="#e22718"/>
    <rect id="Rectangle_18028" data-name="Rectangle 18028" width="35.152" height="35.122" transform="translate(491 902)" fill="none"/>
  </g>
</svg>
