<svg xmlns="http://www.w3.org/2000/svg" width="48.479" height="48.473" viewBox="0 0 48.479 48.473">
  <g id="director_7_Organisation" data-name="director 7 Organisation" transform="translate(-1003 -849.008)">
    <path id="Path_1566" data-name="Path 1566" d="M91.79,0a15.1,15.1,0,0,1,1.5.4,5.234,5.234,0,0,1,3.617,4.594,11.52,11.52,0,0,1-.5,5.735,9.518,9.518,0,0,1-1.392,2.334,1.585,1.585,0,0,0-.339,1.427,2.585,2.585,0,0,0,1.3,1.787c1.29.717,2.628,1.349,3.954,2,1.117.546,2.28,1.006,3.362,1.612a4.158,4.158,0,0,1,2.278,3.867c-.006.946.014,1.893.021,2.84.007,1-.192,1.2-1.181,1.2H78.895c-.5,0-1.01.01-1.514,0-.626-.018-.9-.288-.9-.907,0-1.215-.045-2.434.045-3.643a4.03,4.03,0,0,1,2.248-3.35c1.175-.634,2.415-1.148,3.628-1.713.956-.446,1.935-.849,2.861-1.351a7.256,7.256,0,0,0,1.5-1.139,2.238,2.238,0,0,0,.672-1.942.9.9,0,0,0-.2-.5A7.79,7.79,0,0,1,85.1,8.057a16.749,16.749,0,0,1,.224-3.9A5.3,5.3,0,0,1,89.869.1c.137-.023.272-.065.407-.1Z" transform="translate(936.201 849.008)" fill="#003d78"/>
    <path id="Path_1567" data-name="Path 1567" d="M0,243.578a13.852,13.852,0,0,1,.871-2.117,4.8,4.8,0,0,1,3.389-2.187v-3.356c0-1.378.072-1.451,1.431-1.451H23.477v-3.208c0-.189-.005-.379,0-.568a.771.771,0,0,1,.774-.832.761.761,0,0,1,.735.822c.01,1.073,0,2.146,0,3.218v.568h18.06c.972,0,1.157.186,1.157,1.158,0,1.212,0,2.424,0,3.622,2.994.86,4.619,3.064,4.207,5.66a5.014,5.014,0,0,1-9.967-.241,5.066,5.066,0,0,1,4.209-5.388v-3.262H25.017v3.254a5.014,5.014,0,0,1,3.665,2.668,4.815,4.815,0,0,1,.432,3.442,5.017,5.017,0,1,1-5.67-6.1v-3.263H5.8v3.252l.439.115A5.014,5.014,0,1,1,.1,245.211,3.016,3.016,0,0,0,0,244.9v-1.325" transform="translate(1003 648.219)" fill="#e22718"/>
    <rect id="Rectangle_18023" data-name="Rectangle 18023" width="48.478" height="48.472" transform="translate(1003 849.008)" fill="none"/>
  </g>
</svg>
