<svg xmlns="http://www.w3.org/2000/svg" width="41.521" height="41.66" viewBox="0 0 41.521 41.66">
  <g id="E-commerce" transform="translate(9903.012 19054.576)">
    <g id="Group_10692" data-name="Group 10692" transform="translate(-10302.571 -19325.207)">
      <g id="Group_10663" data-name="Group 10663" transform="translate(399.56 270.631)">
        <path id="Path_1488" data-name="Path 1488" d="M1.56,0Q3.928.774,6.3,1.546c.939.3,1.878.609,2.82.9A1.33,1.33,0,0,1,10.1,3.573c.348,1.93.713,3.857,1.042,5.79.057.338.181.4.492.4q11.718-.011,23.436-.006,2.563,0,5.127,0a1.234,1.234,0,0,1,1.3,1.576q-1.336,7.325-2.665,14.651c-.177.971-.354,1.943-.543,2.912-.174.9-.559,1.2-1.489,1.2H11.933a2.029,2.029,0,0,0-.345,4.042c.131.021.265.029.351.038l-1.479,2.18C8.991,36.2,7.435,34.2,7.33,32.393a4.572,4.572,0,0,1,4.634-4.767q-.619-3.417-1.238-6.828-1-5.509-2-11.018c-.3-1.637-.6-3.272-.886-4.911-.049-.286-.231-.328-.437-.394Q4.192,3.452.986,2.426A1.227,1.227,0,0,1,.375.353,3.519,3.519,0,0,1,.909,0ZM17.607,23.9c-.005-.108,0-.217-.017-.325q-.247-2.282-.5-4.563c-.124-1.117-.236-2.236-.391-3.349a1.182,1.182,0,0,0-1.735-.87c-.552.284-.723.782-.611,1.659.115.9.2,1.8.3,2.7.184,1.655.359,3.312.557,4.965A1.2,1.2,0,0,0,16.5,25.212,1.213,1.213,0,0,0,17.607,23.9M36.16,16.091A1.253,1.253,0,0,0,35.1,14.65a1.207,1.207,0,0,0-1.329,1.132c-.166,1.316-.308,2.636-.451,3.955-.151,1.387-.309,2.773-.428,4.162a1.179,1.179,0,0,0,1.1,1.312,1.2,1.2,0,0,0,1.282-1.1c.171-1.384.32-2.771.472-4.157.145-1.319.284-2.639.415-3.867m-9.039,3.8h.007c-.051,1.3-.1,2.6-.153,3.9a1.264,1.264,0,0,0,1.18,1.422A1.249,1.249,0,0,0,29.4,23.9c.038-1.124.088-2.247.13-3.37.057-1.53.12-3.059.165-4.589a1.214,1.214,0,1,0-2.426-.067q-.076,2.01-.152,4.021m-3.762,0h-.085c0-.893.006-1.787,0-2.68,0-.406-.042-.812-.053-1.218a1.239,1.239,0,0,0-1.253-1.346,1.261,1.261,0,0,0-1.176,1.421q.152,3.919.295,7.838a1.221,1.221,0,1,0,2.428-.075q-.076-1.969-.154-3.939" transform="translate(0 -0.002)" fill="#003d78"/>
        <path id="Path_1489" data-name="Path 1489" d="M122.725,326.72a3.254,3.254,0,1,1-3.238-3.259,3.239,3.239,0,0,1,3.238,3.259" transform="translate(-103.587 -288.307)" fill="#e22718"/>
        <path id="Path_1490" data-name="Path 1490" d="M266,326.694a3.254,3.254,0,1,1,3.223,3.274A3.237,3.237,0,0,1,266,326.694" transform="translate(-237.087 -288.309)" fill="#e22718"/>
        <path id="Path_1491" data-name="Path 1491" d="M181.327,314.623h8.629a6.218,6.218,0,0,0-1.534,2.276.359.359,0,0,1-.282.139q-2.5.013-5,0a.385.385,0,0,1-.3-.178,6.091,6.091,0,0,0-1.518-2.235" transform="translate(-161.62 -280.43)" fill="#003d78"/>
        <path id="Path_1492" data-name="Path 1492" d="M334.051,316.864l-1.569-2.427c.039,0,.152-.013.266-.014,1.258,0,2.516,0,3.775,0a1.226,1.226,0,1,1,0,2.44c-.865,0-1.73,0-2.468,0" transform="translate(-296.348 -280.25)" fill="#003d78"/>
      </g>
    </g>
  </g>
</svg>
