<svg xmlns="http://www.w3.org/2000/svg" width="45.001" height="32.434" viewBox="0 0 45.001 32.434">
  <g id="Education" transform="translate(9678.124 19062.303)">
    <g id="Group_10697" data-name="Group 10697" transform="translate(-10349 -19343.08)">
      <path id="Path_1508" data-name="Path 1508" d="M40.37,10.431c-.083-.886-.13-.944-.98-1.027Q32.916,8.77,26.44,8.143c-1.168-.114-2.336-.235-3.5-.353-.114-.011-.228-.023-.342-.025a.563.563,0,0,0-.657.565.555.555,0,0,0,.569.606c.973.1,1.947.195,2.92.29q4.357.425,8.714.849c1.525.148,3.052.286,4.576.442a1.587,1.587,0,0,1,.437.19,1.663,1.663,0,0,1-.387.289q-7.882,2.831-15.775,5.634a1.5,1.5,0,0,1-.932,0Q11.358,12.836.673,9a1.1,1.1,0,0,1-.634-.518c-.154-.426.182-.621.557-.754Q5.4,6.016,10.207,4.293C14.147,2.885,18.083,1.469,22.029.08a1.58,1.58,0,0,1,.978,0Q33.8,3.9,44.576,7.779c.187.067.429.33.425.5a.773.773,0,0,1-.386.584c-1.393.546-2.8,1.045-4.244,1.572" transform="translate(670.876 280.777)" fill="#e22718"/>
      <path id="Path_1509" data-name="Path 1509" d="M93.357,102.936c.235,2.313.464,4.567.692,6.821.049.487.09.974.148,1.46a2.105,2.105,0,0,1-1.569,2.435c-2.02.511-4.046,1.022-6.1,1.381a30.432,30.432,0,0,1-5.248.536,44.34,44.34,0,0,1-6.476-.475c-2.184-.326-4.332-.908-6.485-1.422a2.079,2.079,0,0,1-1.671-2.318c.272-2.79.577-5.577.874-8.419.189.06.352.106.511.163q5.8,2.067,11.591,4.142a2.262,2.262,0,0,0,1.614.005q5.839-2.1,11.689-4.164c.122-.043.245-.083.425-.144" transform="translate(612.95 191.303)" fill="#003d78"/>
      <path id="Path_1510" data-name="Path 1510" d="M291.815,181.324a2.151,2.151,0,1,1-2.116-2.173,2.16,2.16,0,0,1,2.116,2.173" transform="translate(420.96 125.053)" fill="#e22718"/>
      <path id="Path_1511" data-name="Path 1511" d="M288.328,217.371a3.4,3.4,0,0,0,3.456,0c.138,1.159.282,2.27.4,3.384a.517.517,0,0,1-.55.609q-1.59.026-3.18,0a.509.509,0,0,1-.531-.582c.112-1.115.262-2.227.406-3.413" transform="translate(420.607 91.83)" fill="#003d78"/>
      <path id="Path_1512" data-name="Path 1512" d="M300.518,89.675v10.5h-1.151v-.519c0-2.981.016-5.963-.015-8.944-.005-.515.137-.779.629-.876a5.424,5.424,0,0,0,.537-.164" transform="translate(410.669 202.83)" fill="#003d78"/>
    </g>
  </g>
</svg>
