<svg xmlns="http://www.w3.org/2000/svg" width="38.368" height="45.881" viewBox="0 0 38.368 45.881">
  <g id="Entertainment" transform="translate(10186 18873.051)">
    <g id="Group_10688" data-name="Group 10688" transform="translate(-416 -91.551)">
      <path id="Path_1453" data-name="Path 1453" d="M29.852,0a2.211,2.211,0,0,1,1.155,1.383c.379,1.019.8,2.02,1.219,3.025a1.5,1.5,0,0,1-.676,2.063c-2.859,1.786-5.71,3.586-8.587,5.343-5.232,3.194-10.481,6.36-15.72,9.542a6.265,6.265,0,0,0-1.134.872H36.672A1.489,1.489,0,0,1,38.3,23.283a2,2,0,0,1,.069.572q0,10.215,0,20.43a1.456,1.456,0,0,1-1.581,1.594q-16.152,0-32.3,0a1.5,1.5,0,0,1-1.6-1.684q-.005-10.775,0-21.551a1.187,1.187,0,0,0-.356-.908c-.727-.75-1.426-1.529-2.134-2.3a1.422,1.422,0,0,1,.172-2.127,6.583,6.583,0,0,1,.674-.439Q14.82,8.623,28.4.376c.214-.13.433-.25.649-.375Zm-3.8,28.411c2.027,0,3.92.006,5.813-.011a.747.747,0,0,0,.432-.256q1.863-1.9,3.71-3.82c.078-.08.147-.169.238-.276A.867.867,0,0,0,36.081,24c-1.79,0-3.58-.008-5.37.006a.744.744,0,0,0-.455.213c-.654.632-1.292,1.281-1.935,1.925l-2.266,2.264m-10.357,0c1.918,0,3.692-.007,5.465.007a.96.96,0,0,0,.748-.3C23.2,26.854,24.5,25.6,25.794,24.341c.089-.086.164-.186.3-.341-1.993,0-3.9,0-5.809,0a.431.431,0,0,0-.274.115c-1.409,1.4-2.813,2.8-4.313,4.291m-.032-4.375c-.177-.021-.246-.036-.315-.036-1.774,0-3.549-.008-5.323.009a.8.8,0,0,0-.49.236C8.244,25.524,6.961,26.814,5.677,28.1c-.078.078-.144.168-.243.285.114.012.17.023.227.023,1.775,0,3.549.008,5.323-.01a.859.859,0,0,0,.524-.251c.992-.969,1.966-1.956,2.949-2.934.376-.374.76-.74,1.21-1.178M23.384,9.2a2.218,2.218,0,0,0,.214-.1c1.63-1.044,3.263-2.084,4.882-3.145a.83.83,0,0,0,.289-.5c.133-.7.23-1.409.337-2.115.118-.78.233-1.561.363-2.434-1.748,1.121-3.4,2.177-5.049,3.248a.671.671,0,0,0-.215.407c-.153.773-.288,1.55-.424,2.326-.133.756-.26,1.513-.4,2.318M4.291,20.964a.836.836,0,0,0,.176-.05c1.632-1.042,3.265-2.081,4.887-3.137a.723.723,0,0,0,.243-.438c.186-.948.353-1.9.522-2.852.1-.571.194-1.143.307-1.8C8.667,13.8,7,14.866,5.338,15.943a.658.658,0,0,0-.222.4c-.156.773-.294,1.549-.431,2.325-.134.756-.26,1.513-.394,2.3M20.209,6.715c-.2.116-.326.186-.449.262-1.241.771-2.455,1.593-3.733,2.3a2.138,2.138,0,0,0-1.364,1.972,2.852,2.852,0,0,1-.1.526c-.2,1.035-.391,2.071-.591,3.13a.645.645,0,0,0,.167-.034c1.646-1.024,3.3-2.044,4.929-3.087a.869.869,0,0,0,.276-.517c.143-.639.255-1.285.376-1.929.159-.846.315-1.691.488-2.62" transform="translate(-9770 -18781.5)" fill="#003d78"/>
      <path id="Path_1454" data-name="Path 1454" d="M110.248,105.964l2.266-2.264c.644-.643,1.281-1.293,1.935-1.925a.745.745,0,0,1,.455-.212c1.79-.014,3.58-.009,5.37-.006a.873.873,0,0,1,.168.044c-.092.107-.161.2-.238.276q-1.852,1.913-3.71,3.82a.747.747,0,0,1-.432.256c-1.893.017-3.786.011-5.813.011" transform="translate(-9854.192 -18859.053)" fill="#e22718"/>
      <path id="Path_1455" data-name="Path 1455" d="M66.424,105.959c1.5-1.495,2.9-2.9,4.313-4.291a.431.431,0,0,1,.274-.115c1.908-.007,3.815,0,5.809,0-.135.155-.211.254-.3.34-1.295,1.26-2.6,2.513-3.882,3.781a.961.961,0,0,1-.748.3c-1.773-.013-3.546-.007-5.465-.007" transform="translate(-9820.726 -18859.047)" fill="#e22718"/>
      <path id="Path_1456" data-name="Path 1456" d="M33.223,101.578c-.45.437-.834.8-1.21,1.178-.983.978-1.958,1.965-2.949,2.934a.86.86,0,0,1-.524.252c-1.774.018-3.549.011-5.323.01-.056,0-.113-.011-.227-.023.1-.117.166-.207.243-.285,1.285-1.288,2.567-2.579,3.862-3.857a.8.8,0,0,1,.49-.236c1.774-.017,3.549-.011,5.323-.009.069,0,.137.015.315.036" transform="translate(-9787.557 -18859.041)" fill="#e22718"/>
      <path id="Path_1457" data-name="Path 1457" d="M98.945,12.1c.138-.805.265-1.562.4-2.318.136-.776.271-1.553.424-2.326a.669.669,0,0,1,.215-.407c1.645-1.072,3.3-2.127,5.049-3.248-.13.874-.244,1.655-.363,2.434-.107.706-.2,1.414-.337,2.115a.829.829,0,0,1-.289.5c-1.619,1.061-3.252,2.1-4.882,3.145a2.246,2.246,0,0,1-.214.1" transform="translate(-9845.561 -18784.4)" fill="#fff"/>
      <path id="Path_1458" data-name="Path 1458" d="M18.156,61.938c.134-.787.26-1.544.394-2.3.137-.776.275-1.552.431-2.325a.656.656,0,0,1,.222-.4c1.66-1.077,3.33-2.138,5.088-3.262-.112.662-.205,1.234-.307,1.8-.169.952-.336,1.9-.522,2.852a.723.723,0,0,1-.243.439c-1.622,1.056-3.256,2.1-4.887,3.137a.836.836,0,0,1-.176.05" transform="translate(-9783.865 -18822.475)" fill="#fff"/>
      <path id="Path_1459" data-name="Path 1459" d="M65.359,28.409c-.173.929-.329,1.775-.488,2.62-.121.644-.233,1.29-.376,1.929a.869.869,0,0,1-.276.517c-1.634,1.043-3.283,2.063-4.929,3.087a.645.645,0,0,1-.167.034c.2-1.059.4-2.1.591-3.13a2.852,2.852,0,0,0,.1-.526,2.138,2.138,0,0,1,1.364-1.972c1.278-.706,2.491-1.527,3.733-2.3.123-.076.25-.146.449-.262" transform="translate(-9815.15 -18803.193)" fill="#fff"/>
      <path id="Path_1460" data-name="Path 1460" d="M71.751,137.927l7.878,4.836-7.878,4.846Z" transform="translate(-9824.794 -18886.83)" fill="#fff"/>
      <rect id="Rectangle_18017" data-name="Rectangle 18017" width="38.368" height="45.879" transform="translate(-9770 -18781.5)" fill="none"/>
    </g>
  </g>
</svg>
