<svg xmlns="http://www.w3.org/2000/svg" width="44.135" height="41.379" viewBox="0 0 44.135 41.379">
  <g id="erp_CRM" data-name="erp &amp; CRM" transform="translate(-1003 -527.574)">
    <path id="Path_1568" data-name="Path 1568" d="M225.052,47.875q-1.565,2.718-3.131,5.436a1.388,1.388,0,0,1-2,.743c-1.108-.391-2.213-.794-3.329-1.164a.8.8,0,0,0-.57.085q-1.389.771-2.75,1.593a.812.812,0,0,0-.359.457c-.251,1.208-.466,2.423-.7,3.634a1.306,1.306,0,0,1-1.4,1.184q-2.477.013-4.954,0a1.31,1.31,0,0,1-1.4-1.407q-.007-4.891,0-9.781a1.3,1.3,0,0,1,1.77-1.319,5.641,5.641,0,1,0,.2-10.889,2.379,2.379,0,0,1-1.245,0,1.121,1.121,0,0,1-.729-1.163q-.008-4.977,0-9.954a1.277,1.277,0,0,1,1.311-1.315q2.563-.024,5.127,0a1.279,1.279,0,0,1,1.307,1.139c.234,1.211.469,2.422.679,3.638a.678.678,0,0,0,.414.531c.915.5,1.807,1.05,2.721,1.557a.8.8,0,0,0,.57.085c1.157-.383,2.3-.8,3.452-1.2a1.322,1.322,0,0,1,1.812.67q1.6,2.771,3.2,5.548v.69a12.045,12.045,0,0,1-.9,1.006c-.8.72-1.621,1.416-2.449,2.1a.657.657,0,0,0-.231.625c.029,1.03,0,2.062.014,3.093a.806.806,0,0,0,.2.539c.811.729,1.658,1.417,2.468,2.146a12,12,0,0,1,.9,1.007Z" transform="translate(822.083 506.337)" fill="#003d78"/>
    <path id="Path_1569" data-name="Path 1569" d="M8.121,112.732c0,.518.007.975,0,1.432A1.257,1.257,0,0,1,6.8,115.5q-2.736.019-5.473,0a1.265,1.265,0,0,1-1.32-1.339q-.011-2.715,0-5.431a1.284,1.284,0,0,1,1.323-1.345q2.736-.019,5.473,0a1.277,1.277,0,0,1,1.317,1.346c.008.456,0,.912,0,1.391.172.011.3.025.423.026,1.91,0,3.821.006,5.731-.007a.825.825,0,0,0,.527-.194c1.3-1.278,2.587-2.572,3.877-3.863.049-.049.089-.106.172-.2-.317-.308-.627-.6-.929-.9-1.028-1.024-2.049-2.055-3.084-3.072a.769.769,0,0,0-.472-.224c-2-.015-3.993-.01-5.99-.008a2.286,2.286,0,0,0-.255.033c0,.452,0,.893,0,1.334a1.3,1.3,0,0,1-1.4,1.4q-2.65.009-5.3,0A1.31,1.31,0,0,1,0,103q-.005-2.651,0-5.3a1.278,1.278,0,0,1,1.36-1.388q2.693-.016,5.387,0A1.269,1.269,0,0,1,8.12,97.686c.006.443,0,.886,0,1.372.187.008.339.021.491.021,2.083,0,4.166.012,6.248-.007a1.83,1.83,0,0,1,1.416.582c1.541,1.567,3.106,3.111,4.651,4.673a.908.908,0,0,0,.715.292c2.528-.011,5.056,0,7.584-.017.365,0,.566.118.578.45.021.594.007,1.19-.023,1.783-.015.29-.206.373-.506.371-2.514-.014-5.027,0-7.541-.017a1.137,1.137,0,0,0-.895.381c-1.513,1.534-3.048,3.046-4.56,4.582a1.832,1.832,0,0,1-1.415.587c-2.068-.02-4.137-.008-6.205-.008Z" transform="translate(1002.999 442.357)" fill="#003d78"/>
    <path id="Path_1570" data-name="Path 1570" d="M20.954,5.538V8.124h-.888c-.646,0-1.292-.014-1.938,0a1.6,1.6,0,0,1-1.265-.522c-.658-.682-1.331-1.349-2.012-2.008a.779.779,0,0,0-.468-.233c-2.01-.015-4.02-.01-6.029-.008a1.821,1.821,0,0,0-.221.034c0,.444,0,.884,0,1.324A1.284,1.284,0,0,1,6.712,8.122q-2.627.008-5.254,0A1.3,1.3,0,0,1,.017,6.685q0-2.628,0-5.255A1.307,1.307,0,0,1,1.432,0Q4.081,0,6.729,0a1.292,1.292,0,0,1,1.4,1.389c.006.442,0,.883,0,1.376h.5c2.082,0,4.163.008,6.245-.005a1.772,1.772,0,0,1,1.379.573q.952,1,1.952,1.946a.991.991,0,0,0,.592.245c.7.03,1.4.011,2.148.011" transform="translate(1002.987 527.574)" fill="#e22718"/>
    <path id="Path_1571" data-name="Path 1571" d="M20.943,288.816V291.4c-.6,0-1.2.028-1.792-.009a1.352,1.352,0,0,0-1.2.484c-.553.621-1.176,1.179-1.754,1.778a1.656,1.656,0,0,1-1.271.519c-2.1-.008-4.192,0-6.288,0H8.124c0,.483,0,.924,0,1.365a1.294,1.294,0,0,1-1.393,1.4q-2.67.008-5.34,0a1.3,1.3,0,0,1-1.381-1.373q-.009-2.692,0-5.384a1.269,1.269,0,0,1,1.343-1.358q2.713-.015,5.426,0a1.262,1.262,0,0,1,1.344,1.352c.007.455,0,.911,0,1.391.189.009.329.021.469.021,1.881,0,3.761.009,5.642-.011a1.017,1.017,0,0,0,.627-.259c.7-.66,1.372-1.348,2.047-2.033a1.469,1.469,0,0,1,1.113-.468c.96.009,1.919,0,2.922,0" transform="translate(1002.996 272.012)" fill="#e22718"/>
    <rect id="Rectangle_18024" data-name="Rectangle 18024" width="44.134" height="41.379" transform="translate(1003 527.574)" fill="none"/>
  </g>
</svg>
