<svg xmlns="http://www.w3.org/2000/svg" width="39.366" height="39.951" viewBox="0 0 39.366 39.951">
  <g id="Events" transform="translate(10181.535 18698.25)">
    <g id="Group_10690" data-name="Group 10690" transform="translate(-409.535 -39.371)">
      <path id="Path_1482" data-name="Path 1482" d="M36,39.95H3.373c-.031-.022-.06-.057-.094-.063A4.133,4.133,0,0,1,0,35.74C.049,29.134.019,22.527.019,15.92c0-2.614-.01-5.228.005-7.842a3.892,3.892,0,0,1,3.4-3.77c1.4-.115,2.806-.059,4.209-.079.15,0,.3,0,.486,0,0-.718-.005-1.378,0-2.039a3.188,3.188,0,0,1,.061-.734A1.961,1.961,0,0,1,10.379,0a1.894,1.894,0,0,1,1.888,1.844c.02.663.008,1.326.011,1.989,0,.123,0,.247,0,.369H27.028c0-.66,0-1.294,0-1.929A2.007,2.007,0,0,1,29.37,0a1.857,1.857,0,0,1,1.78,1.568c.08.694.05,1.4.067,2.1,0,.176,0,.353,0,.558,1.368,0,2.68.016,3.992,0a4.106,4.106,0,0,1,4.157,4.166c-.048,6.086-.016,12.172-.017,18.259,0,3.147.009,6.294-.006,9.441a3.807,3.807,0,0,1-1.384,2.9A4.914,4.914,0,0,1,36,39.95M34.827,13.891H4.549V35.417H34.827Z" transform="translate(-9772 -18658.879)" fill="#003d78"/>
      <path id="Path_1483" data-name="Path 1483" d="M69.569,83.731a1.332,1.332,0,0,1,1.256.829c.469.941.946,1.878,1.4,2.826a.674.674,0,0,0,.6.439c1.044.123,2.081.3,3.12.454a1.354,1.354,0,0,1,1.171.9,1.321,1.321,0,0,1-.38,1.457q-1.15,1.14-2.316,2.263a.58.58,0,0,0-.2.607c.205,1.07.375,2.147.551,3.222a1.314,1.314,0,0,1-.516,1.345,1.284,1.284,0,0,1-1.433.11c-.936-.479-1.876-.951-2.794-1.464a.833.833,0,0,0-.926.009c-.85.475-1.725.9-2.584,1.362a1.375,1.375,0,0,1-2.113-1.531c.2-1.032.361-2.071.512-3.11a.668.668,0,0,0-.159-.5c-.766-.778-1.557-1.532-2.334-2.3a1.339,1.339,0,0,1-.4-1.453,1.357,1.357,0,0,1,1.157-.919c.345-.059.693-.106,1.04-.156.758-.11,1.518-.2,2.272-.338a.64.64,0,0,0,.377-.319c.5-.957.97-1.924,1.449-2.889a1.346,1.346,0,0,1,1.245-.848" transform="translate(-9821.897 -18726.314)" fill="#e22718"/>
      <rect id="Rectangle_18018" data-name="Rectangle 18018" width="39.366" height="39.95" transform="translate(-9772 -18658.879)" fill="none"/>
    </g>
  </g>
</svg>
