<svg xmlns="http://www.w3.org/2000/svg" width="41.136" height="41.113" viewBox="0 0 41.136 41.113">
  <g id="Finance" transform="translate(9900 18808.406)">
    <g id="Group_10695" data-name="Group 10695" transform="translate(-397 -149.621)">
      <path id="Path_1500" data-name="Path 1500" d="M0,177.106c.5-1.162,1.553-.831,2.491-.893v-.5q0-6.3,0-12.609c0-1.074.43-1.5,1.511-1.5q2.169,0,4.338,0a1.232,1.232,0,0,1,1.38,1.39q0,6.345,0,12.689v.509h2.41v-.423q0-3.955,0-7.911a1.248,1.248,0,0,1,1.416-1.435q2.189,0,4.378,0c.99,0,1.435.453,1.436,1.456q0,3.935,0,7.87v.452h2.41v-.459q0-8.714,0-17.428c0-1.109.42-1.531,1.521-1.532q2.129,0,4.257,0c1,0,1.451.449,1.451,1.441q0,8.734,0,17.468v.5h2.41v-.475q0-12.308,0-24.615c0-1.136.413-1.55,1.543-1.55h4.217c1.025,0,1.47.442,1.47,1.462q0,12.348,0,24.7v.51c.4,0,.753,0,1.111,0a1.245,1.245,0,0,1,1.349.953,1.22,1.22,0,0,1-.807,1.4c-.02.01-.031.039-.047.059H.884L0,177.748v-.643" transform="translate(-9503 -18796.305)" fill="#003d78"/>
      <path id="Path_1501" data-name="Path 1501" d="M54.154,7.167c.412.136.95.285,1.463.5a.484.484,0,0,0,.569-.03q1.836-1.4,3.693-2.771a.4.4,0,0,0,.175-.5A3.592,3.592,0,1,1,67.12,3.1a3.424,3.424,0,0,1-1.536,3.472,3.412,3.412,0,0,1-3.757.177.42.42,0,0,0-.533.053Q59.453,8.2,57.6,9.571a.407.407,0,0,0-.172.5,3.389,3.389,0,0,1-1.06,3.391,3.4,3.4,0,0,1-3.648.75.5.5,0,0,0-.622.139q-2.147,2.17-4.316,4.317a.442.442,0,0,0-.134.551,3.6,3.6,0,1,1-6.88,2.057c-.075-.321-.045-.666-.1-.995a.538.538,0,0,0-.2-.362c-1.021-.529-2.056-1.029-3.078-1.556a.4.4,0,0,0-.5.081,3.567,3.567,0,0,1-5.178-.69,3.607,3.607,0,1,1,6.538-1.919.474.474,0,0,0,.2.362q1.531.794,3.086,1.54a.521.521,0,0,0,.449-.048,3.591,3.591,0,0,1,3.627-.575.473.473,0,0,0,.4-.1q2.243-2.216,4.458-4.459a.463.463,0,0,0,.085-.4,3.607,3.607,0,0,1,2.459-4.8c.322-.08.658-.107,1.136-.182" transform="translate(-9531.534 -18658.785)" fill="#e22718"/>
      <rect id="Rectangle_18020" data-name="Rectangle 18020" width="41.136" height="41.112" transform="translate(-9503 -18658.785)" fill="none"/>
      <circle id="Ellipse_10" data-name="Ellipse 10" cx="2.443" cy="2.443" r="2.443" transform="translate(-9470.197 -18657.539)" fill="#fff"/>
      <circle id="Ellipse_11" data-name="Ellipse 11" cx="2.443" cy="2.443" r="2.443" transform="translate(-9479.969 -18650.561)" fill="#fff"/>
      <circle id="Ellipse_12" data-name="Ellipse 12" cx="2.443" cy="2.443" r="2.443" transform="translate(-9489.74 -18640.787)" fill="#fff"/>
      <circle id="Ellipse_13" data-name="Ellipse 13" cx="2.443" cy="2.443" r="2.443" transform="translate(-9499.511 -18645.676)" fill="#fff"/>
    </g>
  </g>
</svg>
