<svg xmlns="http://www.w3.org/2000/svg" width="61.811" height="41.697" viewBox="0 0 61.811 41.697">
  <g id="food_delivery" data-name="food delivery" transform="translate(9687.838 18820.285)">
    <g id="Group_10700" data-name="Group 10700" transform="translate(-10356.563 -19727.285)">
      <path id="Path_1532" data-name="Path 1532" d="M87.392,47.492c-2.162-.3-4.052-.615-5.954-.793a23.684,23.684,0,0,0-3.895-.028c-1.137.082-2.258.527-3.389.537-6.051.056-12.1.084-18.153-.006-1.975-.029-3.939-.5-5.917-.659a16.829,16.829,0,0,0-3.29.093c-1.953.227-3.893.557-6.079.879.387-8.932,3.858-15.739,11.127-20.185,8.145-4.982,16.593-4.919,24.671.139,7.1,4.448,10.532,11.181,10.878,20.023M72.661,27.7a19.059,19.059,0,0,1,6.493,7.878c1.285,3.09,2.166,6.347,3.276,9.687H85.3c-.282-7.7-6.393-15.411-12.64-17.565" transform="translate(641.044 890.932)" fill="#003d78"/>
      <path id="Path_1533" data-name="Path 1533" d="M54.025,107.576A5.338,5.338,0,1,1,54.232,96.9a5.338,5.338,0,0,1-.206,10.674m.179-2.559a2.87,2.87,0,0,0,2.753-2.768,2.81,2.81,0,1,0-2.753,2.768" transform="translate(635.573 841.119)" fill="#e22718"/>
      <path id="Path_1534" data-name="Path 1534" d="M150.432,107.571a5.336,5.336,0,1,1,5.36-5.277,5.2,5.2,0,0,1-5.36,5.277m-2.676-5.43a2.721,2.721,0,0,0,2.717,2.876,2.772,2.772,0,0,0,2.767-2.695A2.735,2.735,0,0,0,150.5,99.46a2.676,2.676,0,0,0-2.741,2.681" transform="translate(570.014 841.121)" fill="#e22718"/>
      <path id="Path_1535" data-name="Path 1535" d="M79.451,99.959h21.7c-.942,2.615-.942,2.615-3.6,2.615H80.937l-1.486-2.615" transform="translate(614.708 839.041)" fill="#003d78"/>
      <path id="Path_1536" data-name="Path 1536" d="M108.433,6.913h-.993c-.59-.941-1.046-1.76-1.591-2.516a2.792,2.792,0,0,1,.365-3.743,2.7,2.7,0,0,1,3.624.091,2.8,2.8,0,0,1,.155,3.756c-.519.661-.921,1.413-1.56,2.411" transform="translate(597.136 907)" fill="#e22718"/>
      <path id="Path_1537" data-name="Path 1537" d="M8.268,39.679c-2.328,0-4.657.041-6.982-.036-.437-.015-.858-.5-1.286-.769.412-.225.822-.641,1.237-.645q7.141-.069,14.283,0c.437,0,.869.486,1.3.746-.471.233-.936.655-1.414.669-2.379.069-4.76.032-7.141.03" transform="translate(668.725 881.034)" fill="#e22718"/>
      <path id="Path_1538" data-name="Path 1538" d="M10.211,73.045c-1.218,0-2.44.054-3.652-.034-.352-.026-.674-.461-1.01-.708.328-.267.651-.756.987-.765,2.381-.068,4.766-.074,7.146,0,.373.012.729.543,1.093.835-.357.224-.7.615-1.073.642-1.159.084-2.328.031-3.493.029" transform="translate(664.951 858.4)" fill="#e22718"/>
      <path id="Path_1539" data-name="Path 1539" d="M175.984,99.757a33.287,33.287,0,0,1,4.128.058c.492.062.9.789,1.345,1.212-.472.46-.891,1.237-1.425,1.325-2.519.419-2.814.174-4.049-2.6" transform="translate(549.078 839.203)" fill="#003d78"/>
      <path id="Path_1540" data-name="Path 1540" d="M39.792,99.715,38.3,102.38a9.407,9.407,0,0,1-2.552-.058c-.605-.171-1.059-.876-1.58-1.343.5-.421.965-1.129,1.515-1.206a30.747,30.747,0,0,1,4.111-.058" transform="translate(645.497 839.234)" fill="#003d78"/>
      <path id="Path_1541" data-name="Path 1541" d="M22.673,54.17a13.309,13.309,0,0,1,2.048.032c.316.05.579.439.866.675-.222.258-.436.731-.667.739-1.575.061-3.156.054-4.73-.017-.218-.01-.582-.5-.571-.757.01-.23.423-.6.689-.633a21.811,21.811,0,0,1,2.365-.03V54.17" transform="translate(655.387 870.189)" fill="#003d78"/>
      <path id="Path_1542" data-name="Path 1542" d="M13.59,89.169a13.711,13.711,0,0,1-2.044-.031c-.319-.049-.588-.424-.88-.651.259-.262.507-.737.779-.751a42.885,42.885,0,0,1,4.407-.006c.287.015.551.485.826.745-.294.232-.566.619-.886.664a15.72,15.72,0,0,1-2.2.03" transform="translate(661.473 847.391)" fill="#003d78"/>
      <path id="Path_1543" data-name="Path 1543" d="M64.909,111.563c-.571.495-.923,1.025-1.207.991-.4-.048-.74-.518-1.106-.807.271-.338.524-.933.815-.952.393-.026.815.39,1.5.768" transform="translate(626.167 831.674)" fill="#003d78"/>
      <path id="Path_1544" data-name="Path 1544" d="M159.968,109.333c.4.65.832,1.05.817,1.434-.011.3-.574.585-.892.876-.3-.351-.786-.672-.854-1.064-.049-.278.462-.653.928-1.246" transform="translate(560.6 832.668)" fill="#003d78"/>
    </g>
  </g>
</svg>
