<svg xmlns="http://www.w3.org/2000/svg" width="39.83" height="35.961" viewBox="0 0 39.83 35.961">
  <g id="Health_Fitness" data-name="Health &amp; Fitness" transform="translate(10182 19029.379)">
    <g id="Group_10686" data-name="Group 10686" transform="translate(-10212 -19297.33)">
      <path id="Path_1438" data-name="Path 1438" d="M39.83,12.61c-.13.644-.236,1.293-.395,1.93a12.164,12.164,0,0,1-1.407,3.267.465.465,0,0,1-.466.251q-4.59-.009-9.18,0a.488.488,0,0,1-.5-.319q-1.877-3.509-3.77-7.009a1.174,1.174,0,0,0-1.5-.688,1.35,1.35,0,0,0-.749.794q-2.18,4.615-4.367,9.226c-.066.139-.135.275-.227.463-.093-.129-.167-.223-.232-.324q-1.441-2.26-2.88-4.522a1.191,1.191,0,0,0-2.224.043c-.421.7-.832,1.4-1.269,2.093a.541.541,0,0,1-.383.225q-4.045.019-8.09,0a.631.631,0,0,1-.431-.286A11.449,11.449,0,0,1,4.3,2.706,11.337,11.337,0,0,1,12.4.026a12.216,12.216,0,0,1,7,2.859c.161.129.32.261.449.367.832-.564,1.613-1.169,2.461-1.656A11.716,11.716,0,0,1,39.6,9.418c.08.389.152.779.228,1.169Z" transform="translate(30 267.951)" fill="#003d78"/>
      <path id="Path_1439" data-name="Path 1439" d="M36.519,138.827h.505c2.216,0,4.433-.009,6.649.006a1.4,1.4,0,0,0,1.361-.777c.233-.428.5-.837.779-1.294l2.009,3.155c.424.666.852,1.33,1.27,2a1.174,1.174,0,0,0,1.121.632,1.2,1.2,0,0,0,1.029-.775q2.169-4.6,4.349-9.186c.059-.125.124-.247.208-.414.095.158.171.275.236.4.97,1.8,1.951,3.594,2.9,5.4a1.471,1.471,0,0,0,1.464.861c2.605-.019,5.21-.007,7.816-.007h.5c-.105.124-.168.211-.244.287q-7.441,7.406-14.884,14.81a1.192,1.192,0,0,1-1.872.037q-7.486-7.444-14.968-14.891c-.055-.054-.105-.113-.225-.243" transform="translate(-2.723 149.516)" fill="#e22718"/>
    </g>
  </g>
</svg>
