<svg xmlns="http://www.w3.org/2000/svg" xmlns:xlink="http://www.w3.org/1999/xlink" width="40.88" height="61" viewBox="0 0 40.88 61">
  <defs>
    <clipPath id="clip-path">
      <rect id="Rectangle_18047" data-name="Rectangle 18047" width="40.88" height="46.429" fill="#003d78"/>
    </clipPath>
    <clipPath id="clip-path-2">
      <rect id="Rectangle_18048" data-name="Rectangle 18048" width="25.611" height="29.039" fill="none"/>
    </clipPath>
    <clipPath id="clip-path-3">
      <rect id="Rectangle_18049" data-name="Rectangle 18049" width="39.233" height="9.216" fill="#e22718"/>
    </clipPath>
  </defs>
  <g id="Group_10766" data-name="Group 10766" transform="translate(-344.213 -3239)">
    <g id="Group_10761" data-name="Group 10761" transform="translate(344.213 3253.571)">
      <g id="Group_10760" data-name="Group 10760" clip-path="url(#clip-path)">
        <path id="Path_5611" data-name="Path 5611" d="M20.213,46.429c-1.534-.553-3.126-.91-4.692-1.351q-5.664-1.592-11.34-3.137a.648.648,0,0,1-.557-.687c-.433-5-.886-10-1.329-15-.355-4.006-.7-8.014-1.056-12.02Q.648,7.61.04.985C-.051,0-.069,0,.89,0H40.217c.69,0,.7,0,.639.707q-.593,6.627-1.195,13.253c-.319,3.576-.625,7.153-.944,10.728q-.535,6.009-1.082,12.018c-.133,1.479-.274,2.958-.373,4.439a.738.738,0,0,1-.636.8q-7.767,2.117-15.518,4.29c-.148.041-.347.013-.442.193Z" transform="translate(0 0)" fill="#003d78"/>
        <path id="Path_5612" data-name="Path 5612" d="M134.479,27.744c0-1.523.012-3.046-.007-4.569,0-.4.125-.511.516-.511q7.841.016,15.682,0c.445,0,.559.16.518.56q-.224,2.2-.43,4.4c-.09.967-.163,1.936-.25,2.9-.141,1.561-.291,3.121-.431,4.683-.087.968-.159,1.936-.246,2.9-.141,1.561-.292,3.121-.435,4.682-.085.93-.158,1.861-.242,2.791-.144,1.6-.3,3.2-.438,4.795-.123,1.4-.229,2.792-.353,4.187-.1,1.115-.234,2.227-.31,3.343-.027.4-.242.5-.551.585-1.695.47-3.387.949-5.081,1.421-2.451.683-4.906,1.353-7.351,2.056-.458.132-.6.07-.6-.427.023-1.372.008-2.745.008-4.118,0-.242.044-.5-.225-.645a.373.373,0,0,1,.238-.165c3.251-.875,6.487-1.8,9.736-2.685a.713.713,0,0,0,.612-.686c.169-1.551.273-3.107.42-4.659.175-1.852.339-3.7.5-5.557.123-1.385.221-2.772.382-4.153a.524.524,0,0,0-.121-.472,1.071,1.071,0,0,0-.712-.108q-4.992-.005-9.985-.005a1.392,1.392,0,0,1-.876-.13.992.992,0,0,1-.153-.644q-.012-1.969,0-3.938a1.067,1.067,0,0,1,.14-.649,1.267,1.267,0,0,1,.868-.144q5.268-.007,10.536,0a1.121,1.121,0,0,0,.708-.108c.319-.422.2-.934.257-1.4.108-.828.152-1.665.24-2.5a.914.914,0,0,0-.119-.747c-.214-.176-.469-.117-.708-.118q-5.443,0-10.886-.006c-.291,0-.609.083-.858-.162" transform="translate(-114.041 -19.25)" fill="#e22718"/>
      </g>
    </g>
    <g id="Group_10763" data-name="Group 10763" transform="translate(351.59 3262.115)">
      <g id="Group_10762" data-name="Group 10762" clip-path="url(#clip-path-2)">
        <path id="Path_5613" data-name="Path 5613" d="M25.156,5.087c-.17.182-.39.089-.583.089q-5.521.01-11.042.006c-.225,0-.449.016-.674.024a1.241,1.241,0,0,1-.865.168c-1.805,0-3.61,0-5.415,0-.736,0-.734.032-.687.778.068,1.069.2,2.133.268,3.2.051.77.14.854.924.856,1.655,0,3.309,0,4.964,0a1.183,1.183,0,0,1,.811.161q5.636.011,11.271.027c.187,0,.412-.113.569.1a1.241,1.241,0,0,1-.914.179q-4.842.007-9.684,0c-.206,0-.413,0-.619.011-.267.015-.422.138-.427.415q-.033,1.886,0,3.771c.008.413.323.4.606.4,1.483.009,2.965,0,4.448,0a3.92,3.92,0,0,1,.674.023c.173.03.393.02.4.29a.89.89,0,0,1-.638.16q-2.5.011-5,0a.949.949,0,0,1-.688-.182c-.431-.014-.862-.039-1.292-.039-3.2,0-6.392-.013-9.587.01-.5,0-.612-.146-.652-.627C1.025,11.37.687,7.817.362,4.263.245,2.991.148,1.717.006.448-.046-.022.218.03.508.03q5.837,0,11.674,0c.225,0,.449-.02.674-.031q3.634.013,7.267.024c1.653,0,3.306,0,4.959.005.176,0,.377-.084.528.088A1.362,1.362,0,0,1,24.639.3Q19.4.3,14.161.3c-.169,0-.339.011-.507,0-.465-.031-.626.189-.62.639.016,1.089,0,2.178.007,3.267,0,.639.057.693.724.694,3.474.005,6.948,0,10.421.006.329,0,.683-.077.969.179" transform="translate(0 0.001)" fill="#eaeaea"/>
        <path id="Path_5614" data-name="Path 5614" d="M22.189,131.042l-.224.016c-3.234-.91-6.466-1.827-9.705-2.719-.414-.114-.624-.264-.66-.727q-.27-3.485-.605-6.965c-.041-.427.065-.553.5-.545,1.373.027,2.746.018,4.119,0,.337,0,.5.056.52.447.068,1.088.191,2.171.292,3.257.018.2-.026.4.271.472,1.836.464,3.666.949,5.5,1.427l.073.084a1.521,1.521,0,0,1,.1.719q.005,1.862,0,3.724a1.136,1.136,0,0,1-.18.806" transform="translate(-9.333 -102.019)" fill="#eaeaea"/>
        <path id="Path_5615" data-name="Path 5615" d="M85.317,82.938c1.738-.464,3.472-.939,5.215-1.384a.64.64,0,0,0,.554-.688c.161-2.02.36-4.036.546-6.053-.139-.237-.371-.137-.561-.138-1.748-.008-3.5-.015-5.245,0-.4,0-.519-.119-.512-.513.021-1.278.031-2.557,0-3.835-.013-.5.124-.636.627-.633,3.741.021,7.482.011,11.224.01-.122,1.535-.234,3.071-.369,4.6-.24,2.733-.495,5.465-.743,8.2-.076.842-.158,1.684-.222,2.527-.016.215-.073.332-.3.394q-5.1,1.389-10.2,2.795,0-2.644,0-5.289" transform="translate(-72.466 -59.204)" fill="#fefefe"/>
        <path id="Path_5616" data-name="Path 5616" d="M97.62,5.73c-3.894,0-7.788-.012-11.682.007-.5,0-.642-.133-.628-.631.035-1.259.031-2.521,0-3.781-.011-.452.132-.57.574-.569,4.063.014,8.127.005,12.19,0a42.348,42.348,0,0,1-.455,4.97" transform="translate(-72.464 -0.643)" fill="#fefefe"/>
      </g>
    </g>
    <g id="Group_10765" data-name="Group 10765" transform="translate(345.035 3239)">
      <g id="Group_10764" data-name="Group 10764" transform="translate(0 0)" clip-path="url(#clip-path-3)">
        <path id="Path_5617" data-name="Path 5617" d="M123.531,0c.01,2.911.015,5.822.035,8.733,0,.312-.076.422-.4.411-.727-.023-1.456-.028-2.183,0-.382.015-.483-.114-.475-.483.022-1.147.008-2.294.007-3.441,0-.124-.012-.249-.027-.543l-2.089,3.2-2.142-3.262c0,1.446-.031,2.692.015,3.934.019.521-.15.628-.624.6a13.164,13.164,0,0,0-1.851,0c-.463.034-.538-.148-.535-.558.016-2.669.009-5.339.006-8.008A1.027,1.027,0,0,0,113.2,0h3.31a3.706,3.706,0,0,1,.906,1.283,19.987,19.987,0,0,1,1.04,1.769c-.016.08.089-.046.007-.014-.037.015-.053-.01-.024-.059A13.726,13.726,0,0,1,120.353,0Z" transform="translate(-93.208 0)" fill="#e22718"/>
        <path id="Path_5618" data-name="Path 5618" d="M9,0c-.015,2.336-.02,4.672-.049,7.007-.009.7.3,1.632-.134,2.025-.383.344-1.3.1-1.982.1-.924.006-.924,0-.924-.933,0-.507-.028-1.016.008-1.521.032-.44-.066-.641-.561-.6a12.406,12.406,0,0,1-1.719,0c-.394-.023-.543.072-.519.5.039.7-.007,1.412.018,2.117.012.349-.1.458-.446.446-.7-.024-1.413-.037-2.116,0C.131,9.173.032,9.02.035,8.6.053,5.971.045,3.346.042.722.042.481.015.241,0,0H3.046a1.348,1.348,0,0,1,.2.943c.009.417.005.835,0,1.252s.177.656.628.649q.626-.01,1.252,0c.451.007.628-.22.628-.649,0-.461,0-.923.005-1.384A1.146,1.146,0,0,1,5.959,0Z" transform="translate(0 0)" fill="#e22718"/>
        <path id="Path_5619" data-name="Path 5619" d="M66.651,0c.015.9.017,1.806.05,2.708.012.331-.153.346-.4.341-.574-.011-1.15.027-1.721-.013-.449-.032-.6.079-.589.562.033,1.677,0,3.354.022,5.031,0,.39-.066.546-.5.518a15.934,15.934,0,0,0-1.985,0c-.454.028-.595-.087-.585-.566.033-1.677,0-3.354.022-5.031.005-.4-.075-.545-.5-.515-.593.042-1.192-.007-1.786.017-.32.013-.416-.088-.406-.407C58.3,1.764,58.3.882,58.309,0Z" transform="translate(-47.98 0)" fill="#e22718"/>
        <path id="Path_5620" data-name="Path 5620" d="M183.555,0c-.01,1.916-.009,3.832-.037,5.748-.005.378.188.364.45.362,1.124-.007,2.248.01,3.371-.01.362-.007.507.081.49.47-.029.7-.022,1.41,0,2.115.009.318-.043.464-.419.461-2.181-.018-4.363-.012-6.544,0-.264,0-.393-.037-.39-.353.021-2.93.026-5.859.035-8.789Z" transform="translate(-148.597 0)" fill="#e22718"/>
      </g>
    </g>
  </g>
</svg>
