<svg xmlns="http://www.w3.org/2000/svg" width="28.355" height="33.229" viewBox="0 0 28.355 33.229">
  <g id="ios" transform="translate(12987.171 18586)">
    <path id="Path_1583" data-name="Path 1583" d="M20.806,120.984H19.9c-.786-.285-1.581-.545-2.355-.859a7.026,7.026,0,0,0-4.932-.2c-1,.322-1.982.7-2.972,1.055H8.6c-.016-.014-.03-.037-.048-.04a5.48,5.48,0,0,1-2.982-1.719,17.522,17.522,0,0,1-2.7-3.64A19.28,19.28,0,0,1,.035,104.512a10.045,10.045,0,0,1,1.127-4.227,9.324,9.324,0,0,1,4.306-4.077A6.343,6.343,0,0,1,9.6,95.657c.946.206,1.87.52,2.794.817a5.948,5.948,0,0,0,2.952.413,14.344,14.344,0,0,0,2.107-.614A10.9,10.9,0,0,1,20.6,95.54a7.724,7.724,0,0,1,5.472,1.986c.481.4.9.882,1.362,1.341a7.011,7.011,0,0,0-3.73,6.938,7.2,7.2,0,0,0,4.649,6.34c-.02.063-.028.105-.045.144a25.229,25.229,0,0,1-3.236,5.525c-1.119,1.452-2.336,2.8-4.268,3.17" transform="translate(-12987.171 -18673.756)" fill="#003d78"/>
    <path id="Path_1584" data-name="Path 1584" d="M174.489,0c.61,3.562-2.584,8.06-6.657,7.958a4.6,4.6,0,0,1,.039-1.976,7.644,7.644,0,0,1,4.044-5.2A6.586,6.586,0,0,1,174.489,0" transform="translate(-13141.277 -18586)" fill="#e22718"/>
  </g>
</svg>
