<svg xmlns="http://www.w3.org/2000/svg" width="46.623" height="29.586" viewBox="0 0 46.623 29.586">
  <g id="iot" transform="translate(13039.211 18535)">
    <path id="Path_1599" data-name="Path 1599" d="M22.541,29.581c-4.9,0-9.8.013-14.7,0A7.913,7.913,0,0,1,.271,23.794a7.738,7.738,0,0,1,3.714-8.812A21.249,21.249,0,0,1,6.946,13.96a1.392,1.392,0,0,0,.732-.537,9.771,9.771,0,0,1,5.8-4.914,1.765,1.765,0,0,0,.87-.926A12.433,12.433,0,0,1,26.487.018,12.171,12.171,0,0,1,37.532,8.67a2.9,2.9,0,0,0,2.419,2.387A9.329,9.329,0,0,1,46.6,20.934a9.488,9.488,0,0,1-7.97,8.479,16,16,0,0,1-2.313.16c-4.591.014-9.182.007-13.773.007m.367-3.887c2.859-.008,4.509-1.736,4.5-4.713a4.261,4.261,0,0,0-4.554-4.6c-2.814.009-4.514,1.747-4.519,4.621a4.317,4.317,0,0,0,4.576,4.69m10.949-.19V16.486h2.786V14.01H27.871v2.545h2.788V25.5Zm-19.844,0h3.062V13.97H14.013Z" transform="translate(-13039.211 -18535)" fill="#003d78"/>
    <path id="Path_1600" data-name="Path 1600" d="M115.1,102.772a4.729,4.729,0,0,1,.321-1.507,1.571,1.571,0,0,1,1.113-.7c.345-.009.969.411,1,.7a12.143,12.143,0,0,1,0,3.085c-.043.316-.7.763-1.068.76a1.563,1.563,0,0,1-1.067-.791,5.186,5.186,0,0,1-.3-1.546" transform="translate(-13132.808 -18616.775)" fill="#e22718"/>
    <rect id="Rectangle_18026" data-name="Rectangle 18026" width="46.623" height="29.585" transform="translate(-13039.211 -18535)" fill="none"/>
  </g>
</svg>
