<svg xmlns="http://www.w3.org/2000/svg" xmlns:xlink="http://www.w3.org/1999/xlink" width="61" height="61" viewBox="0 0 61 61">
  <defs>
    <clipPath id="clip-path">
      <rect id="Rectangle_18041" data-name="Rectangle 18041" width="45.201" height="45.283" fill="#003d78"/>
    </clipPath>
    <clipPath id="clip-path-2">
      <rect id="Rectangle_18045" data-name="Rectangle 18045" width="29.897" height="39.046" fill="none"/>
    </clipPath>
  </defs>
  <g id="Group_10751" data-name="Group 10751" transform="translate(19062.027 13344)">
    <g id="Group_10747" data-name="Group 10747" transform="translate(-19057.842 -13339.887)">
      <path id="Path_5602" data-name="Path 5602" d="M26.138,0A26.138,26.138,0,1,1,0,26.138,26.138,26.138,0,0,1,26.138,0Z" transform="translate(0)" fill="#003d78"/>
      <g id="Group_10729" data-name="Group 10729" transform="translate(3.267 3.267)">
        <g id="Group_10728" data-name="Group 10728" clip-path="url(#clip-path)">
          <path id="Path_5543" data-name="Path 5543" d="M13.971,17.564C20.1,26.045,26.013,34.256,31.957,42.447c.546.752-.026.78-.46.951-8.333,3.281-16.2,2.345-23.1-3.335C1.076,34.033-1.549,26.02.88,16.859,3.292,7.759,9.52,2.212,18.765.4c12.469-2.444,24.71,6.594,26.241,19.322,1.036,8.615-2.068,15.6-8.829,21-.6.482-.889.516-1.385-.175Q24.59,26.338,14.324,12.173c-.646-.894-1.19-2.038-2.61-1.579S10.5,12.287,10.5,13.4c0,7.906.021,15.813-.027,23.719-.006,1,.283,1.194,1.213,1.166,2.284-.069,2.285-.021,2.285-2.254q0-8.562,0-17.124V17.564" transform="translate(0 0)" fill="#003d78"/>
          <path id="Path_5544" data-name="Path 5544" d="M135.163,55.473c0-3.12.025-6.239-.018-9.358-.011-.758.2-.955.951-.949,2.539.019,2.539-.013,2.539,2.468,0,5.777-.021,11.554.022,17.33.007.873-.218,1.086-1.077,1.068-2.417-.052-2.418-.009-2.418-2.471Z" transform="translate(-103.837 -34.703)" fill="#003d78"/>
        </g>
      </g>
    </g>
    <g id="Path_5603" data-name="Path 5603" transform="translate(-19062.027 -13344)" fill="none">
      <path d="M30.5,0A30.5,30.5,0,1,1,0,30.5,30.5,30.5,0,0,1,30.5,0Z" stroke="none"/>
      <path d="M 30.5 1 C 26.5170783996582 1 22.65383911132812 1.779838562011719 19.01757049560547 3.317840576171875 C 15.50484848022461 4.803600311279297 12.34989929199219 6.930801391601562 9.640350341796875 9.640350341796875 C 6.930801391601562 12.34989929199219 4.803600311279297 15.50484848022461 3.317840576171875 19.01757049560547 C 1.779838562011719 22.65383911132812 1 26.5170783996582 1 30.5 C 1 34.48291015625 1.779838562011719 38.34616088867188 3.317840576171875 41.982421875 C 4.803600311279297 45.49514007568359 6.930801391601562 48.65010070800781 9.640350341796875 51.35964965820312 C 12.34989929199219 54.06919860839844 15.50484848022461 56.1963996887207 19.01757049560547 57.68215179443359 C 22.65383911132812 59.22016143798828 26.5170783996582 60 30.5 60 C 34.48291015625 60 38.34616088867188 59.22016143798828 41.982421875 57.68215179443359 C 45.49514007568359 56.1963996887207 48.65010070800781 54.06919860839844 51.35964965820312 51.35964965820312 C 54.06919860839844 48.65010070800781 56.1963996887207 45.49514007568359 57.68215179443359 41.982421875 C 59.22016143798828 38.34616088867188 60 34.48291015625 60 30.5 C 60 26.5170783996582 59.22016143798828 22.65383911132812 57.68215179443359 19.01757049560547 C 56.1963996887207 15.50484848022461 54.06919860839844 12.34989929199219 51.35964965820312 9.640350341796875 C 48.65010070800781 6.930801391601562 45.49514007568359 4.803600311279297 41.982421875 3.317840576171875 C 38.34616088867188 1.779838562011719 34.48291015625 1 30.5 1 M 30.5 0 C 47.34468078613281 0 61 13.65531158447266 61 30.5 C 61 47.34468078613281 47.34468078613281 61 30.5 61 C 13.65531158447266 61 0 47.34468078613281 0 30.5 C 0 13.65531158447266 13.65531158447266 0 30.5 0 Z" stroke="none" fill="#e22718"/>
    </g>
    <g id="Group_10746" data-name="Group 10746" transform="translate(-19046.342 -13333.614)">
      <g id="Group_10745" data-name="Group 10745" clip-path="url(#clip-path-2)">
        <path id="Path_5600" data-name="Path 5600" d="M29.9,36.826,3.653.682A1.99,1.99,0,0,0,1.005.343a2.043,2.043,0,0,0-.972,2L.044,14.658.007,32.072s-.132,1.314.7,1.41a7.086,7.086,0,0,0,1.635.018s1.2,0,1.5-.323A1.382,1.382,0,0,0,4.2,32.114l.022-18.406V8.533L25.92,38.551s.164.248.193.314l.065.181Z" transform="translate(0 0)" fill="#fff"/>
      </g>
    </g>
    <path id="Path_5601" data-name="Path 5601" d="M135.165,56.389c0-3.4.028-6.793-.02-10.19-.012-.825.216-1.04,1.036-1.034,2.764.02,2.764-.014,2.764,2.687,0,6.29-.023,12.58.024,18.87.007.95-.237,1.183-1.172,1.163-2.631-.056-2.632-.01-2.632-2.69Z" transform="translate(-19155.348 -13373.551)" fill="#e22718"/>
  </g>
</svg>
