<svg xmlns="http://www.w3.org/2000/svg" width="47.58" height="44.541" viewBox="0 0 47.58 44.541">
  <g id="news_magaziens" data-name="news magaziens" transform="translate(9676.775 18984.367)">
    <g id="Group_10698" data-name="Group 10698" transform="translate(-886.022 538.633)">
      <path id="Path_1526" data-name="Path 1526" d="M41.047,66.471,36.075,52.808c1.431-.56,2.816-1.087,4.19-1.642a66.668,66.668,0,0,0,11.843-5.689c1.46-.958,2.75-2.176,4.117-3.277.115-.092.222-.193.393-.342L63.839,61.7c-5.161-.626-9.933.755-14.79,2.146.814,1.313,1.575,2.541,2.337,3.769,1.439,2.315,2.885,4.626,4.317,6.945a2.451,2.451,0,0,1-1.359,3.9c-1.269.464-2.538.93-3.811,1.386a2.466,2.466,0,0,1-3.454-1.631c-1.423-3.9-2.856-7.8-4.26-11.708-.166-.463-.349-.574-.785-.37a9.624,9.624,0,0,1-.988.337" transform="translate(-8821.362 -19558.516)" fill="#003d78"/>
      <path id="Path_1527" data-name="Path 1527" d="M192.417,13.833a2.31,2.31,0,0,1-1.174,1.917c-.4.224-.421.429-.277.819,1.216,3.3,2.412,6.6,3.617,9.907.148.4.325.8-.018,1.2-.371.425-.8.237-1.233.122-1.455-.387-2.918-.749-4.365-1.162a.994.994,0,0,1-.583-.525Q184.55,15.665,180.769,5.2a.921.921,0,0,1,.08-.724c.89-1.311,1.819-2.6,2.727-3.895.23-.328.493-.715.912-.541a1.494,1.494,0,0,1,.742.778q1.855,4.968,3.632,9.964c.158.443.326.56.816.5a2.444,2.444,0,0,1,2.738,2.549" transform="translate(-8944.099 -19523)" fill="#003d78"/>
      <path id="Path_1528" data-name="Path 1528" d="M3.864,118.042l4.967,13.65c-1.028.367-2,.74-2.987,1.046a1.209,1.209,0,0,1-.768-.165,6.282,6.282,0,0,1-2.65-2.678A16.137,16.137,0,0,1,0,121.84a6.928,6.928,0,0,1,.12-1.15,2.013,2.013,0,0,1,1.551-1.86,22.714,22.714,0,0,0,2.193-.787" transform="translate(-8790.753 -19623.158)" fill="#e22718"/>
      <path id="Path_1529" data-name="Path 1529" d="M251.379,17.193a4.026,4.026,0,0,1-.164.473q-.836,1.785-1.686,3.563a1.079,1.079,0,0,1-1.495.665c-.6-.282-.745-.838-.4-1.58.568-1.206,1.13-2.416,1.712-3.616a1.021,1.021,0,0,1,1.24-.6,1.05,1.05,0,0,1,.789,1.1" transform="translate(-9000.712 -19536.619)" fill="#e22718"/>
      <path id="Path_1530" data-name="Path 1530" d="M274.312,63.367a1.074,1.074,0,0,1-1.048-.865.963.963,0,0,1,.655-1.147c1.1-.416,2.214-.8,3.322-1.2a8.582,8.582,0,0,1,.931-.316,1.026,1.026,0,0,1,1.189.689.94.94,0,0,1-.5,1.219c-1.459.559-2.936,1.074-4.407,1.6a.53.53,0,0,1-.146.017" transform="translate(-9022.595 -19573.752)" fill="#e22718"/>
      <path id="Path_1531" data-name="Path 1531" d="M272.611,107.152a2.067,2.067,0,0,1,.373.1q1.977.9,3.947,1.813a.948.948,0,0,1,.6,1.025,1.011,1.011,0,0,1-.843.916.788.788,0,0,1-.449-.015c-1.427-.638-2.855-1.272-4.262-1.951a.859.859,0,0,1-.445-1.084,1.054,1.054,0,0,1,1.08-.809" transform="translate(-9021.104 -19613.918)" fill="#e22718"/>
    </g>
  </g>
</svg>
