<svg xmlns="http://www.w3.org/2000/svg" width="36.821" height="33.852" viewBox="0 0 36.821 33.852">
  <g id="ngo" transform="translate(9751 18480.999)">
    <g id="Group_10702" data-name="Group 10702" transform="translate(-1259 1304.393)">
      <g id="Group_10677" data-name="Group 10677" transform="translate(-8492 -19785.393)">
        <path id="Path_1554" data-name="Path 1554" d="M65.675,9.768c1.237,1.281,2.44,2.543,3.661,3.786q1.364,1.389,2.769,2.738a3.716,3.716,0,0,0,5.572-.323,3.754,3.754,0,0,0-.372-4.839c-.994-1.083-2.056-2.1-3.09-3.15q-2.13-2.153-4.263-4.3c-.089-.09-.173-.186-.283-.305a9.26,9.26,0,0,1,2.638-1.388,11.04,11.04,0,0,1,8.662.711,10.089,10.089,0,0,1,5.672,10.078,13.94,13.94,0,0,1-1.058,4.742,9.55,9.55,0,0,1-2.04,3.029Q76.568,27.52,69.593,34.5a1.846,1.846,0,1,1-2.614-2.591q4.171-4.181,8.35-8.355a.8.8,0,0,0-.029-1.358c-.453-.418-.788-.4-1.265.073q-4.163,4.158-8.32,8.324a1.93,1.93,0,0,1-1.759.616,1.827,1.827,0,0,1-1.12-2.924,4.473,4.473,0,0,1,.384-.41l7.954-7.955c.1-.1.205-.2.3-.308a.969.969,0,0,0-.509-1.66,1.045,1.045,0,0,0-.757.284c-.637.584-1.231,1.216-1.839,1.831Q65.086,23.384,61.8,26.7a1.916,1.916,0,0,1-3.26-.725A1.868,1.868,0,0,1,59.13,24.1q2.5-2.491,4.987-4.987c1.142-1.142,2.29-2.279,3.423-3.43.552-.56.495-1.052-.14-1.459a.8.8,0,0,0-1.036.053c-.132.112-.254.235-.377.357q-4.067,4.041-8.132,8.083a1.929,1.929,0,0,1-1.772.695,1.776,1.776,0,0,1-1.4-1.273,1.732,1.732,0,0,1,.425-1.877q1.779-1.8,3.571-3.588,3.239-3.216,6.49-6.42c.123-.121.249-.239.5-.483" transform="translate(-49.84 -1.281)" fill="#003d78"/>
        <path id="Path_1555" data-name="Path 1555" d="M15.8,5.885,2.683,19.006c-.319-.406-.622-.747-.875-1.122A10.782,10.782,0,0,1,.2,13.362,13.163,13.163,0,0,1,.689,6.749,9.742,9.742,0,0,1,9.187.1a10.488,10.488,0,0,1,9.221,3.257c2.54,2.579,5.112,5.128,7.679,7.68a1.92,1.92,0,0,1,.618,1.757,1.822,1.822,0,0,1-2.886,1.144,4.491,4.491,0,0,1-.51-.466Q19.7,9.859,16.1,6.242c-.1-.1-.185-.222-.3-.357" transform="translate(0 0.001)" fill="#e22718"/>
        <rect id="Rectangle_18022" data-name="Rectangle 18022" width="36.821" height="33.852" transform="translate(0 0)" fill="none"/>
      </g>
    </g>
  </g>
</svg>
