<svg xmlns="http://www.w3.org/2000/svg" width="67.016" height="67.016" viewBox="0 0 67.016 67.016">
  <g id="Group_10753" data-name="Group 10753" transform="translate(15170 17979)">
    <circle id="Ellipse_14" data-name="Ellipse 14" cx="33.508" cy="33.508" r="33.508" transform="translate(-15170 -17979)" fill="#003d78"/>
    <path id="Icon_awesome-node-js" data-name="Icon awesome-node-js" d="M18.006,40.81a3.15,3.15,0,0,1-1.56-.418l-4.962-2.935c-.74-.418-.378-.563-.137-.643a9.774,9.774,0,0,0,2.244-1.021.363.363,0,0,1,.37.032l3.812,2.26a.466.466,0,0,0,.458,0l14.853-8.572a.476.476,0,0,0,.225-.4V11.965a.479.479,0,0,0-.233-.41L18.231,2.991a.466.466,0,0,0-.458,0L2.936,11.563a.469.469,0,0,0-.233.41V29.11a.444.444,0,0,0,.233.394l4.069,2.348c2.211,1.1,3.562-.193,3.562-1.5V13.429A.426.426,0,0,1,11,13h1.882a.431.431,0,0,1,.434.426V30.356c0,2.943-1.608,4.632-4.4,4.632A6.315,6.315,0,0,1,5.5,34.055L1.609,31.812A3.127,3.127,0,0,1,.049,29.1V11.965a3.137,3.137,0,0,1,1.56-2.71L16.446.683a3.256,3.256,0,0,1,3.12,0l14.853,8.58a3.127,3.127,0,0,1,1.56,2.71V29.11a3.147,3.147,0,0,1-1.56,2.71L19.566,40.392a3.128,3.128,0,0,1-1.56.418ZM30,23.915c0-3.209-2.171-4.061-6.731-4.664-4.616-.611-5.082-.925-5.082-2,0-.893.394-2.083,3.812-2.083,3.048,0,4.174.659,4.64,2.718a.43.43,0,0,0,.418.338h1.93a.42.42,0,0,0,.314-.137.448.448,0,0,0,.113-.33c-.3-3.546-2.654-5.195-7.414-5.195-4.238,0-6.763,1.785-6.763,4.785,0,3.249,2.517,4.149,6.578,4.552,4.865.474,5.243,1.19,5.243,2.147,0,1.657-1.335,2.364-4.463,2.364-3.932,0-4.793-.989-5.082-2.943a.426.426,0,0,0-.426-.362H15.159a.424.424,0,0,0-.426.426c0,2.5,1.359,5.484,7.865,5.484,4.7-.008,7.4-1.866,7.4-5.1Z" transform="translate(-15153.747 -17966.607)" fill="#fff"/>
  </g>
</svg>
