<svg xmlns="http://www.w3.org/2000/svg" width="40.338" height="42.701" viewBox="0 0 40.338 42.701">
  <g id="On_Demand" data-name="On Demand" transform="translate(10180 19120.082)">
    <g id="Group_10685" data-name="Group 10685" transform="translate(-10192.999 -19322.299)">
      <path id="Path_1435" data-name="Path 1435" d="M64.674,228.8l-3.439-8.26c.921-.442,1.808-.879,2.705-1.3,1.1-.51,2.194-1.035,3.315-1.495a4.528,4.528,0,0,1,4.35.345,19.9,19.9,0,0,0,5.87,2.148c.541.152,1.088.28,1.625.445a1.995,1.995,0,0,1-1.072,3.843c-2.4-.627-4.8-1.274-7.2-1.914a2.164,2.164,0,0,0-.213-.06.589.589,0,0,0-.757.44.576.576,0,0,0,.459.742c1.08.31,2.155.637,3.241.922,1.5.393,3,.825,4.52,1.109a3.16,3.16,0,0,0,3.683-3.05.425.425,0,0,1,.371-.48c2.529-.727,5.052-1.474,7.579-2.209a7.788,7.788,0,0,1,2.765-.321,1.766,1.766,0,0,1,1.72,2.4,2.919,2.919,0,0,1-1.792,2.021q-6.558,2.532-13.125,5.039a15.6,15.6,0,0,1-1.915.55,5.173,5.173,0,0,1-2.758-.16c-1.825-.554-3.665-1.057-5.492-1.6a4.254,4.254,0,0,0-3.271.28c-.368.187-.743.361-1.168.566" transform="translate(-40.957 10.696)" fill="#003d78"/>
      <path id="Path_1436" data-name="Path 1436" d="M149.756,22.061l-7.625-9.891h3.51V0h8.2V12.153h3.558l-7.639,9.908" transform="translate(-112.24 202.217)" fill="#e22718"/>
      <path id="Path_1437" data-name="Path 1437" d="M6.319,242.235a1.38,1.38,0,0,1-1.295-.951c-.846-2.05-1.706-4.093-2.559-6.14Q1.322,232.4.184,229.656a1.317,1.317,0,0,1,.807-1.988c.859-.359,1.719-.718,2.581-1.07a1.3,1.3,0,0,1,1.878.764q2.454,5.872,4.893,11.751a1.29,1.29,0,0,1-.755,1.847c-.91.389-1.827.765-2.744,1.136a3.7,3.7,0,0,1-.524.139" transform="translate(13 2.683)" fill="#e22718"/>
    </g>
  </g>
</svg>
