<svg xmlns="http://www.w3.org/2000/svg" width="48.491" height="47.55" viewBox="0 0 48.491 47.55">
  <g id="Group_10710" data-name="Group 10710" transform="translate(11750.59 18952.999)">
    <path id="Path_1621" data-name="Path 1621" d="M38.317,30.528c2.828-3.209,3.659-6.517,2.2-10.131a8.708,8.708,0,0,0-8.4-5.8c-5.195-.1-10.395-.063-15.59.041a8.571,8.571,0,0,0-8.2,5.507,8.813,8.813,0,0,0,1.8,9.938c.133.148.26.3.56.648A11.156,11.156,0,0,1,6.246,9.588,2.526,2.526,0,0,0,7.673,7.9,11.157,11.157,0,0,1,23.266,1.146a2.05,2.05,0,0,0,2.057.038,11.1,11.1,0,0,1,15.634,6.8A2.413,2.413,0,0,0,42.3,9.6a11.088,11.088,0,0,1-2.091,20.667,16.149,16.149,0,0,1-1.9.263" transform="translate(-11750.591 -18953)" fill="#003d78"/>
    <path id="Path_1622" data-name="Path 1622" d="M36.179,37.317c2.579,0,5.157-.022,7.735.005a8.06,8.06,0,0,1,2.851,15.567,8.859,8.859,0,0,1-2.921.524q-7.609.1-15.219.073a8.094,8.094,0,1,1,.07-16.186c2.5-.017,4.99,0,7.485,0Zm-2.866,8.311a3.987,3.987,0,0,0-4.166-4.147,4.092,4.092,0,1,0,0,8.162,3.986,3.986,0,0,0,4.165-4.016m13.121-3.88H40.268c-.147,1.065-.41,2.04,1.175,2.01.253-.005.717.6.742.954a28.187,28.187,0,0,1,0,3.611c-.053.947.343,1.2,1.236,1.231.979.031,1.2-.37,1.172-1.254-.055-1.478-.015-2.959-.015-4.4,2.317-.393,2.351-.436,1.859-2.15M35.4,43.881c0,1.487.038,3.016-.015,4.542-.028.835.3,1.079,1.092,1.081s1.272-.184,1.224-1.1c-.05-.954,0-1.914-.047-2.869-.058-1.081-.08-2.044,1.473-1.914.184.015.58-.54.582-.834,0-.365-.287-1.044-.472-1.052-1.931-.078-3.866-.048-5.757-.048-.3,1.689-.3,1.689,1.92,2.2" transform="translate(-11762.511 -18974.734)" fill="#e22718"/>
    <path id="Path_1623" data-name="Path 1623" d="M20.388,97.175a3.2,3.2,0,0,1,3.373,3.323,3.3,3.3,0,0,1-3.233,3.513,3.473,3.473,0,0,1-3.506-3.444,3.324,3.324,0,0,1,3.365-3.392m-2.238,3.381a2.25,2.25,0,0,0,2.311,2.37,2.455,2.455,0,0,0,2.339-2.294,2.415,2.415,0,0,0-2.385-2.361,2.223,2.223,0,0,0-2.265,2.285" transform="translate(-11757.174 -19009.637)" fill="#003d78"/>
    <path id="Path_1624" data-name="Path 1624" d="M25.4,76.894c-.729.473-1.133.939-1.517.922a.94.94,0,0,1,.011-1.87c.385-.011.785.463,1.506.947" transform="translate(-11760.687 -18997.264)" fill="#003d78"/>
    <path id="Path_1625" data-name="Path 1625" d="M25.3,90.965c-.625.451-.977.9-1.322.894-.285,0-.82-.58-.783-.835a1.356,1.356,0,0,1,.852-.9c.246-.065.633.4,1.254.839" transform="translate(-11760.772 -19005.525)" fill="#003d78"/>
    <path id="Path_1626" data-name="Path 1626" d="M25.375,84.329c-.535.3-.824.578-1.109.575-.188,0-.525-.42-.514-.638s.378-.606.569-.595c.283.017.549.321,1.055.658" transform="translate(-11761.097 -19001.768)" fill="#003d78"/>
    <path id="Path_1627" data-name="Path 1627" d="M39.335,51.481A3.986,3.986,0,0,1,35.17,55.5a4.091,4.091,0,1,1,0-8.162,3.987,3.987,0,0,1,4.166,4.146M34.99,53.408a1.949,1.949,0,0,0,2.041-2.021,1.921,1.921,0,0,0-1.908-2.023,1.961,1.961,0,0,0-2.042,2.023,1.924,1.924,0,0,0,1.909,2.021" transform="translate(-11768.533 -18980.588)" fill="#fff"/>
    <path id="Path_1628" data-name="Path 1628" d="M73.961,47.975c.492,1.714.458,1.757-1.859,2.15,0,1.443-.04,2.924.015,4.4.033.884-.193,1.284-1.172,1.254-.893-.028-1.289-.284-1.236-1.23a28.341,28.341,0,0,0,0-3.611c-.025-.35-.489-.959-.742-.954-1.585.03-1.322-.945-1.175-2.009Z" transform="translate(-11790.038 -18980.961)" fill="#fff"/>
    <path id="Path_1629" data-name="Path 1629" d="M53.4,50.011c-2.22-.506-2.22-.506-1.92-2.2,1.891,0,3.826-.03,5.757.048.185.008.476.687.472,1.052,0,.294-.4.849-.582.834-1.553-.13-1.532.833-1.473,1.914.052.954,0,1.914.047,2.869.048.918-.415,1.105-1.224,1.1s-1.12-.247-1.092-1.081c.053-1.526.015-3.055.015-4.542" transform="translate(-11780.516 -18980.865)" fill="#fff"/>
    <path id="Path_1630" data-name="Path 1630" d="M19.726,102.086A2.223,2.223,0,0,1,21.991,99.8a2.415,2.415,0,0,1,2.385,2.362,2.455,2.455,0,0,1-2.339,2.293,2.25,2.25,0,0,1-2.311-2.37m2.326,1.673c.532-.778,1.141-1.282,1.085-1.7s-.777-.738-1.207-1.1c-.348.423-.923.821-.973,1.276-.04.369.55.808,1.1,1.522" transform="translate(-11758.75 -19011.168)" fill="#e22718"/>
    <path id="Path_1631" data-name="Path 1631" d="M38.2,56.243a1.924,1.924,0,0,1-1.909-2.021A1.961,1.961,0,0,1,38.331,52.2a1.921,1.921,0,0,1,1.908,2.023A1.949,1.949,0,0,1,38.2,56.243" transform="translate(-11771.74 -18983.422)" fill="#e22718"/>
    <path id="Path_1632" data-name="Path 1632" d="M23.769,105.379c-.545-.715-1.136-1.153-1.1-1.522.05-.455.625-.853.973-1.276.43.363,1.151.687,1.207,1.1s-.553.918-1.085,1.7" transform="translate(-11760.467 -19012.789)" fill="#fff"/>
    <path id="Path_1633" data-name="Path 1633" d="M49.123,99.595a3.2,3.2,0,0,1,3.373,3.323,3.3,3.3,0,0,1-3.233,3.513,3.473,3.473,0,0,1-3.506-3.444,3.324,3.324,0,0,1,3.365-3.392m-2.238,3.381a2.25,2.25,0,0,0,2.311,2.37,2.455,2.455,0,0,0,2.339-2.294,2.415,2.415,0,0,0-2.385-2.361,2.223,2.223,0,0,0-2.265,2.285" transform="translate(-11778.928 -19011.881)" fill="#003d78"/>
    <path id="Path_1634" data-name="Path 1634" d="M54.135,79.314c-.729.473-1.133.939-1.517.922a.94.94,0,0,1,.011-1.87c.385-.011.785.463,1.506.947" transform="translate(-11782.439 -18999.508)" fill="#003d78"/>
    <path id="Path_1635" data-name="Path 1635" d="M54.037,93.385c-.625.451-.977.9-1.322.894-.285,0-.82-.58-.783-.835a1.356,1.356,0,0,1,.852-.9c.246-.065.633.4,1.254.839" transform="translate(-11782.525 -19007.768)" fill="#003d78"/>
    <path id="Path_1636" data-name="Path 1636" d="M54.109,86.75c-.535.3-.824.578-1.109.575-.188,0-.525-.42-.514-.638s.378-.606.569-.595c.283.017.549.321,1.055.658" transform="translate(-11782.85 -19004.012)" fill="#003d78"/>
    <path id="Path_1637" data-name="Path 1637" d="M48.46,104.507a2.223,2.223,0,0,1,2.265-2.285,2.415,2.415,0,0,1,2.385,2.362,2.455,2.455,0,0,1-2.339,2.293,2.25,2.25,0,0,1-2.311-2.37m2.326,1.673c.532-.778,1.141-1.282,1.085-1.7s-.777-.738-1.207-1.1c-.348.423-.923.821-.973,1.276-.04.369.55.808,1.1,1.522" transform="translate(-11780.503 -19013.412)" fill="#e22718"/>
    <path id="Path_1638" data-name="Path 1638" d="M52.5,107.8c-.545-.715-1.136-1.153-1.1-1.522.05-.455.625-.853.973-1.276.43.363,1.151.687,1.207,1.1s-.553.918-1.085,1.7" transform="translate(-11782.22 -19015.033)" fill="#fff"/>
    <path id="Path_1639" data-name="Path 1639" d="M49.123,99.595a3.2,3.2,0,0,1,3.373,3.323,3.3,3.3,0,0,1-3.233,3.513,3.473,3.473,0,0,1-3.506-3.444,3.324,3.324,0,0,1,3.365-3.392m-2.238,3.381a2.25,2.25,0,0,0,2.311,2.37,2.455,2.455,0,0,0,2.339-2.294,2.415,2.415,0,0,0-2.385-2.361,2.223,2.223,0,0,0-2.265,2.285" transform="translate(-11771.837 -19011.881)" fill="#003d78"/>
    <path id="Path_1640" data-name="Path 1640" d="M54.135,79.314c-.729.473-1.133.939-1.517.922a.94.94,0,0,1,.011-1.87c.385-.011.785.463,1.506.947" transform="translate(-11775.348 -18999.508)" fill="#003d78"/>
    <path id="Path_1641" data-name="Path 1641" d="M54.037,93.385c-.625.451-.977.9-1.322.894-.285,0-.82-.58-.783-.835a1.356,1.356,0,0,1,.852-.9c.246-.065.633.4,1.254.839" transform="translate(-11775.434 -19007.768)" fill="#003d78"/>
    <path id="Path_1642" data-name="Path 1642" d="M54.109,86.75c-.535.3-.824.578-1.109.575-.188,0-.525-.42-.514-.638s.378-.606.569-.595c.283.017.549.321,1.055.658" transform="translate(-11775.758 -19004.012)" fill="#003d78"/>
    <path id="Path_1643" data-name="Path 1643" d="M48.46,104.507a2.223,2.223,0,0,1,2.265-2.285,2.415,2.415,0,0,1,2.385,2.362,2.455,2.455,0,0,1-2.339,2.293,2.25,2.25,0,0,1-2.311-2.37m2.326,1.673c.532-.778,1.141-1.282,1.085-1.7s-.777-.738-1.207-1.1c-.348.423-.923.821-.973,1.276-.04.369.55.808,1.1,1.522" transform="translate(-11773.411 -19013.412)" fill="#e22718"/>
    <path id="Path_1644" data-name="Path 1644" d="M52.5,107.8c-.545-.715-1.136-1.153-1.1-1.522.05-.455.625-.853.973-1.276.43.363,1.151.687,1.207,1.1s-.553.918-1.085,1.7" transform="translate(-11775.128 -19015.033)" fill="#fff"/>
    <path id="Path_1645" data-name="Path 1645" d="M49.123,99.595a3.2,3.2,0,0,1,3.373,3.323,3.3,3.3,0,0,1-3.233,3.513,3.473,3.473,0,0,1-3.506-3.444,3.324,3.324,0,0,1,3.365-3.392m-2.238,3.381a2.25,2.25,0,0,0,2.311,2.37,2.455,2.455,0,0,0,2.339-2.294,2.415,2.415,0,0,0-2.385-2.361,2.223,2.223,0,0,0-2.265,2.285" transform="translate(-11764.744 -19011.881)" fill="#003d78"/>
    <path id="Path_1646" data-name="Path 1646" d="M54.135,79.314c-.729.473-1.133.939-1.517.922a.94.94,0,0,1,.011-1.87c.385-.011.785.463,1.506.947" transform="translate(-11768.256 -18999.508)" fill="#003d78"/>
    <path id="Path_1647" data-name="Path 1647" d="M54.037,93.385c-.625.451-.977.9-1.322.894-.285,0-.82-.58-.783-.835a1.356,1.356,0,0,1,.852-.9c.246-.065.633.4,1.254.839" transform="translate(-11768.342 -19007.768)" fill="#003d78"/>
    <path id="Path_1648" data-name="Path 1648" d="M54.109,86.75c-.535.3-.824.578-1.109.575-.188,0-.525-.42-.514-.638s.378-.606.569-.595c.283.017.549.321,1.055.658" transform="translate(-11768.665 -19004.012)" fill="#003d78"/>
    <path id="Path_1649" data-name="Path 1649" d="M48.46,104.507a2.223,2.223,0,0,1,2.265-2.285,2.415,2.415,0,0,1,2.385,2.362,2.455,2.455,0,0,1-2.339,2.293,2.25,2.25,0,0,1-2.311-2.37m2.326,1.673c.532-.778,1.141-1.282,1.085-1.7s-.777-.738-1.207-1.1c-.348.423-.923.821-.973,1.276-.04.369.55.808,1.1,1.522" transform="translate(-11766.319 -19013.412)" fill="#e22718"/>
    <path id="Path_1650" data-name="Path 1650" d="M52.5,107.8c-.545-.715-1.136-1.153-1.1-1.522.05-.455.625-.853.973-1.276.43.363,1.151.687,1.207,1.1s-.553.918-1.085,1.7" transform="translate(-11768.036 -19015.033)" fill="#fff"/>
  </g>
</svg>
