<svg xmlns="http://www.w3.org/2000/svg" width="36.199" height="39.893" viewBox="0 0 36.199 39.893">
  <g id="pwas" transform="translate(-77 -527.424)">
    <path id="Path_1585" data-name="Path 1585" d="M26.879,10.688a3.459,3.459,0,0,0-2.592,2.658c-.205.72-.468,1.424-.735,2.228-.062-.24-.1-.384-.137-.526a3.208,3.208,0,0,0-5.244-1.58c-1.512,1.394-2.955,2.866-4.367,4.363a3.083,3.083,0,0,0,0,4.236c1.411,1.5,2.89,2.93,4.36,4.371a2.936,2.936,0,0,0,1.972.8.508.508,0,0,1,.5.3,3.241,3.241,0,0,0,5.9-.4,4.274,4.274,0,0,1,.34-.753c.009.09.025.179.025.269,0,2.681.014,5.363,0,8.044a5.087,5.087,0,0,1-5.152,5.191c-5.523,0-11.046.014-16.569,0a5.028,5.028,0,0,1-5.04-3.969,5.8,5.8,0,0,1-.132-1.292Q0,19.949,0,5.274A5.066,5.066,0,0,1,5.221.012Q13.462-.01,21.7.013A5.043,5.043,0,0,1,26.9,5.2c.016,1.71,0,3.421,0,5.131,0,.114-.015.228-.024.357M6.081,2.811c.034.121.053.218.088.307.336.847.661,1.7,1.018,2.536A2.7,2.7,0,0,0,9.832,7.419q3.63.02,7.259,0a2.707,2.707,0,0,0,2.64-1.773c.358-.838.682-1.69,1.017-2.537a2.408,2.408,0,0,0,.075-.3Zm7.406,29.663c-1.216,0-2.432,0-3.648,0a1.393,1.393,0,1,0,0,2.781q3.6.007,7.209,0a1.395,1.395,0,1,0,0-2.781c-1.187,0-2.374,0-3.561,0" transform="translate(77 527.424)" fill="#003d78"/>
    <path id="Path_1586" data-name="Path 1586" d="M191.772,122.336a1.4,1.4,0,0,1-1.289-1.934c.659-2.006,1.333-4.008,2-6.011s1.323-3.98,1.991-5.968a1.422,1.422,0,0,1,1.448-1.019,1.372,1.372,0,0,1,1.262,1.228,1.818,1.818,0,0,1-.1.72q-1.968,5.953-3.954,11.9a1.443,1.443,0,0,1-1.364,1.083" transform="translate(-91.274 432.504)" fill="#003d78"/>
    <path id="Path_1587" data-name="Path 1587" d="M256.2,130.373c-1.045-1.042-2.052-2.04-3.05-3.047a1.4,1.4,0,0,1-.257-1.676,1.328,1.328,0,0,1,1.512-.666,1.709,1.709,0,0,1,.736.42q1.986,1.946,3.938,3.927a1.372,1.372,0,0,1,0,2.078q-1.957,1.976-3.932,3.932a1.392,1.392,0,1,1-1.944-1.982c.98-.985,1.967-1.962,2.993-2.985" transform="translate(-146.357 417.002)" fill="#e22718"/>
    <path id="Path_1588" data-name="Path 1588" d="M131.093,130.357c1.012,1.012,1.982,1.988,2.961,2.956a1.427,1.427,0,0,1,.442,1.46,1.383,1.383,0,0,1-2.168.729,4.187,4.187,0,0,1-.412-.385c-1.241-1.24-2.485-2.476-3.719-3.722a1.366,1.366,0,0,1-.012-2.08q1.958-1.978,3.935-3.937a1.392,1.392,0,1,1,1.972,1.958c-.873.89-1.761,1.765-2.642,2.647-.111.111-.217.227-.357.374" transform="translate(-35.873 417.023)" fill="#e22718"/>
    <rect id="Rectangle_18025" data-name="Rectangle 18025" width="36.199" height="39.892" transform="translate(77 527.424)" fill="none"/>
  </g>
</svg>
