<svg xmlns="http://www.w3.org/2000/svg" width="67.19" height="67.191" viewBox="0 0 67.19 67.191">
  <g id="Group_10755" data-name="Group 10755" transform="translate(15090.707 17984)">
    <path id="Icon_awesome-python" data-name="Icon awesome-python" d="M65.959,27.521c-1.155-4.634-3.344-8.129-8.009-8.129H51.936V26.5A10.286,10.286,0,0,1,41.918,36.669H25.9a8.173,8.173,0,0,0-8.009,8.144V60.08c0,4.349,3.779,6.9,8.009,8.144a26.95,26.95,0,0,0,16.017,0c4.034-1.17,8.009-3.524,8.009-8.144v-6.1h-16v-2.04H57.95c4.664,0,6.389-3.254,8.009-8.129,1.68-5.024,1.6-9.853,0-16.287ZM42.923,58.04a3.052,3.052,0,1,1-3.014,3.044A3.031,3.031,0,0,1,42.923,58.04ZM25.166,34.659H41.183a8.075,8.075,0,0,0,8.009-8.144V11.234c0-4.349-3.659-7.6-8.009-8.339a49.435,49.435,0,0,0-16.017.015c-6.779,1.2-8.009,3.7-8.009,8.339v6.1H33.189v2.04H11.143A10.012,10.012,0,0,0,1.125,27.521a30.038,30.038,0,0,0,0,16.287c1.14,4.739,3.854,8.129,8.519,8.129h5.5V44.618A10.183,10.183,0,0,1,25.166,34.659Zm-1-21.386a3.052,3.052,0,1,1,3.014-3.044A3.031,3.031,0,0,1,24.161,13.273Z" transform="translate(-15090.707 -17986.25)" fill="#003d78"/>
    <path id="Icon_awesome-python-2" data-name="Icon awesome-python" d="M25.166,34.659H41.183a8.075,8.075,0,0,0,8.009-8.144V11.234c0-4.349-3.659-7.6-8.009-8.339a49.435,49.435,0,0,0-16.017.015c-6.779,1.2-8.009,3.7-8.009,8.339v6.1H33.189v2.04H11.143A10.012,10.012,0,0,0,1.125,27.521a30.038,30.038,0,0,0,0,16.287c1.14,4.739,3.854,8.129,8.519,8.129h5.5V44.618A10.183,10.183,0,0,1,25.166,34.659Zm-1-21.386a3.052,3.052,0,1,1,3.014-3.044A3.031,3.031,0,0,1,24.161,13.273Z" transform="translate(-15090.707 -17986.25)" fill="#e22718"/>
  </g>
</svg>
