<svg xmlns="http://www.w3.org/2000/svg" width="71.891" height="64" viewBox="0 0 71.891 64">
  <g id="react_netive" data-name="react netive" transform="translate(15055.175 18710.775)">
    <path id="Path_1651" data-name="Path 1651" d="M22.953,64h-3c-.067-.085-.168-.094-.263-.128a7.722,7.722,0,0,1-2.31-1.1,8.1,8.1,0,0,1-2.552-3.349,12.976,12.976,0,0,1-1.01-4.786c0-.1,0-.2-.012-.306a30.9,30.9,0,0,1,.091-4,4.47,4.47,0,0,1,.035-.709,8.326,8.326,0,0,0,.186-1.186,2.49,2.49,0,0,1,.045-.506c.106-.344.194-.692.275-1.04a17.092,17.092,0,0,1,.429-2.009c.088-.243.252-.55.134-.757-.129-.226-.5-.161-.751-.251-.015-.057-.036-.1-.108-.067a13.366,13.366,0,0,1-1.464-.438c-.549-.231-1.136-.343-1.677-.587-.02-.1-.094-.113-.177-.114a2.018,2.018,0,0,1-.845-.3c-.933-.439-1.87-.869-2.789-1.34a23.569,23.569,0,0,1-2.579-1.574,14.7,14.7,0,0,1-2.806-2.6,10.706,10.706,0,0,1-.916-1.326,6.82,6.82,0,0,1-.577-1.458A5.756,5.756,0,0,1,.017,32.6a7.372,7.372,0,0,1,1.447-4.888,14.551,14.551,0,0,1,4.391-3.9,35.47,35.47,0,0,1,8.478-3.621c.735-.221.727-.217.556-.953a26.8,26.8,0,0,1-.589-2.968.126.126,0,0,0-.1-.15l-.188-1.6c.063-.081.007-.1-.059-.119.007-.233-.045-.462-.059-.69-.036-.609-.093-1.216-.106-1.829-.022-1.1,0-2.2.042-3.3.067-.017.122-.04.058-.12a10.9,10.9,0,0,1,.539-2.712,8.286,8.286,0,0,1,1.51-3.031c.089-.106.1-.272.261-.324l.074-.105.566-.574a.134.134,0,0,0,.113-.09.6.6,0,0,1,.242-.216.125.125,0,0,0,.12-.1.124.124,0,0,1,.054-.021l.065-.043L17.94.852l.045-.047a1.526,1.526,0,0,0,.61-.26c.057.024.115.048.128-.047a.505.505,0,0,0,.09-.018A8.509,8.509,0,0,1,22.795.115c.123.012.273.047.342-.119h.123c.044.1.1.191.22.179a1.711,1.711,0,0,1,.643.132,16.768,16.768,0,0,1,1.836.6,3.052,3.052,0,0,0,.737.268l.053.048a14.952,14.952,0,0,0,1.421.7l.061.038a3.873,3.873,0,0,0,.8.454.138.138,0,0,0,.041.033c.109.154.312.149.444.264l.049.043,1.673,1.129a.137.137,0,0,0,.04.035,9.943,9.943,0,0,0,.941.7.132.132,0,0,0,.035.032.474.474,0,0,0,.271.211.133.133,0,0,0,.039.035.469.469,0,0,0,.268.212.132.132,0,0,0,.036.033c.07.135.217.175.325.263l.045.044c.338.339.734.612,1.073.953.442.445.936.838,1.377,1.284.213.215.322.194.528-.006A36.728,36.728,0,0,1,42.951,2.4,13.715,13.715,0,0,1,50.929.044a6.8,6.8,0,0,1,2.723.724,7.451,7.451,0,0,1,3.578,4.3,13.087,13.087,0,0,1,.8,3.9c.025.537.1,1.074.1,1.615.011,1.151-.088,2.3-.185,3.44a3.837,3.837,0,0,1-.076.907,6.82,6.82,0,0,0-.224,1.129c-.205,1.23-.453,2.448-.775,3.651-.046.172.009.344.17.363a3.724,3.724,0,0,1,.553.155,17.279,17.279,0,0,1,2.06.656c.536.221,1.082.421,1.627.613a23.835,23.835,0,0,1,2.464,1.066,20.715,20.715,0,0,1,2.257,1.246,17.622,17.622,0,0,1,2.177,1.56,14.429,14.429,0,0,1,1.37,1.313,11.041,11.041,0,0,1,.966,1.158,8.23,8.23,0,0,1,1.167,2.623,6.5,6.5,0,0,1-.1,3.585,7.982,7.982,0,0,1-1.019,2.1,6.982,6.982,0,0,1-.774,1.053c-.386.375-.762.761-1.152,1.131a17.38,17.38,0,0,1-2.489,1.876,23.054,23.054,0,0,1-2.072,1.123,27.542,27.542,0,0,1-3.649,1.606,32.442,32.442,0,0,1-3.3,1.047c-.225.051-.293.133-.232.377.12.485.26.964.346,1.459.14.805.31,1.607.5,2.4.039.164-.058.293.008.467a5.812,5.812,0,0,1,.185,1.052,8.754,8.754,0,0,1,.047.91c.038.58.107,1.159.136,1.742a19.769,19.769,0,0,1-.191,3.749,14.353,14.353,0,0,1-.456,2.069,8.6,8.6,0,0,1-2.393,4.064,6.6,6.6,0,0,1-2.656,1.49c-.147.043-.328.055-.41.228H49.071c-.087-.086-.2-.056-.3-.063a10.257,10.257,0,0,1-1.929-.456A23.255,23.255,0,0,1,40.4,59.943a40.035,40.035,0,0,1-4.253-3.635c-.174-.17-.279-.166-.45,0-.354.35-.689.718-1.08,1.034-.55.445-1.045.957-1.6,1.4a36.838,36.838,0,0,1-3.386,2.466,23.189,23.189,0,0,1-3.926,2.027,16.194,16.194,0,0,1-2.754.76M35.889,12.49c-.214.229-.436.451-.641.688-1.126,1.295-2.232,2.607-3.264,3.979-.051.067-.167.135-.1.228.031.043.151.031.23.029.868-.02,1.736-.047,2.6-.064,1.686-.034,3.371.029,5.056.064.086,0,.2.05.25-.044s-.056-.143-.1-.2a56.542,56.542,0,0,0-3.913-4.659c-.018-.029-.03-.077-.055-.085-.044-.014-.056.033-.067.069M40.07,46.7c.049-.064.042-.1-.047-.1-.111.011-.222.029-.334.033-1.714.065-3.429.079-5.145.065-.9-.008-1.807,0-2.708,0,.4.524.818,1.1,1.26,1.648.415.519.859,1.016,1.282,1.53.451.547.91,1.087,1.4,1.6.117.121.174.093.287,0a8.089,8.089,0,0,0,.761-.826c1.14-1.266,2.21-2.591,3.241-3.947M24.245,3.611a9.509,9.509,0,0,0-2.1-.444,5.131,5.131,0,0,0-1.916.153,3.1,3.1,0,0,0-1.159.637,4.276,4.276,0,0,0-.986,1.193l-.041.063a.76.76,0,0,0-.255.547l-.051.053a7.957,7.957,0,0,0-.664,2.244c-.026.1-.131.181-.085.306a2.259,2.259,0,0,1-.045,1.067,18.667,18.667,0,0,0,.018,3.384c.075,1.01.246,2.016.422,3.019s.4,2.013.61,3.017c.056.267.136.362.446.293a65.694,65.694,0,0,1,8.913-1.372.625.625,0,0,0,.5-.289c.768-1.113,1.581-2.195,2.409-3.264a.128.128,0,0,0,.108-.11l.137-.2a.128.128,0,0,0,.108-.111l.136-.2a.127.127,0,0,0,.108-.114L31,13.3a.129.129,0,0,0,.109-.1,4.3,4.3,0,0,1,.5-.633.129.129,0,0,0,.109-.1A.782.782,0,0,1,32,12.14a.149.149,0,0,0,.088-.118l.262-.316a.187.187,0,0,0,.167-.176l1.161-1.3c.037-.008.082-.013.083-.06s-.044-.054-.081-.062c-.99-.979-2.072-1.854-3.127-2.76L30.5,7.293a6,6,0,0,0-.745-.559l-.052-.055a3.445,3.445,0,0,0-.626-.448l-.05-.043a12.233,12.233,0,0,0-1.545-1l-.064-.042L27.179,5l-.063-.039a15.3,15.3,0,0,0-2.63-1.238c-.036-.132-.145-.108-.24-.114M18.538,30.1l-.044-.06a2.482,2.482,0,0,1-.2-.565c0-.079-.015-.152-.109-.174a2.337,2.337,0,0,1-.2-.562c0-.079-.015-.152-.109-.174l-.078-.251-.044-.052-.159-.422a9.594,9.594,0,0,1-.532-1.487c0-.08-.01-.154-.105-.179-.049-.153-.1-.307-.146-.46A22.583,22.583,0,0,1,16,23.223c-.038-.186-.117-.261-.315-.179s-.385.125-.579.186l-.058.051a.9.9,0,0,0-.327.062c-.86.267-1.7.586-2.546.9-.765.282-1.5.62-2.252.935-.618.26-1.193.607-1.783.925A16.15,16.15,0,0,0,5.41,27.995a8.536,8.536,0,0,0-1.369,1.488,4.043,4.043,0,0,0-.851,3.2,5.175,5.175,0,0,0,1.4,2.574A14.345,14.345,0,0,0,8.347,38.08,36.022,36.022,0,0,0,15.7,41.015c.231.068.257-.055.3-.209a67.682,67.682,0,0,1,3.061-7.969,1.38,1.38,0,0,0,.03-1.526c0-.08-.016-.153-.112-.174l-.133-.379c0-.08-.017-.152-.111-.172l-.2-.488M35.77,43.58c2.232.019,4.3-.064,6.37-.194a.612.612,0,0,0,.54-.317c.329-.527.685-1.038,1.023-1.56a86.927,86.927,0,0,0,4.98-8.8,1.143,1.143,0,0,0,0-1.33c-.154-.217-.223-.515-.36-.745-.376-.631-.647-1.312-1.012-1.949-.56-.976-1.082-1.975-1.654-2.946-.97-1.647-1.971-3.275-3.059-4.849a.371.371,0,0,0-.316-.182c-1.625-.138-3.255-.2-4.884-.225-1.816-.028-3.632-.027-5.447.1-.772.053-1.55.057-2.323.119a.415.415,0,0,0-.348.2c-1.7,2.491-3.237,5.08-4.683,7.723-.591,1.081-1.118,2.2-1.679,3.3a.189.189,0,0,0-.01.211c.747,1.481,1.485,2.966,2.3,4.412,1.265,2.242,2.6,4.441,4.042,6.573a.47.47,0,0,0,.381.257c.71.044,1.418.136,2.128.146,1.389.019,2.777.109,4.007.066M21.558,60.989a3.342,3.342,0,0,0,.9-.078A13.793,13.793,0,0,0,27.126,59.1a36.1,36.1,0,0,0,6.4-4.974c.194-.183.252-.264.015-.5-.594-.6-1.132-1.256-1.683-1.9-1.416-1.648-2.735-3.371-3.99-5.144a.611.611,0,0,0-.5-.289c-.473-.033-.942-.079-1.412-.157-.23-.038-.5-.174-.775-.05-.089.041-.221-.019-.328-.02-.36-.006-.677-.188-1.029-.213a17.036,17.036,0,0,1-1.7-.233c-1.257-.218-2.515-.43-3.757-.724-.142-.034-.268-.072-.323.146-.371,1.479-.678,2.972-.9,4.479a23.434,23.434,0,0,0-.237,2.8,21.821,21.821,0,0,0,.115,3.37,10.176,10.176,0,0,0,.56,2.259,5.234,5.234,0,0,0,1.266,2.016,4.027,4.027,0,0,0,2.714,1.027m33.451-8a24,24,0,0,0-.149-2.642c-.025-.423-.135-.868-.2-1.3-.2-1.332-.48-2.645-.788-3.954-.047-.2-.128-.241-.318-.2q-.911.2-1.827.382c-.621.12-1.244.228-1.868.333a16.846,16.846,0,0,0-1.84.308c-.6.171-1.212.052-1.814.212-.349.093-.759.022-1.133.119-.069.018-.128-.042-.173-.026-.275.1-.617.018-.826.31-1.123,1.57-2.287,3.108-3.525,4.589-.664.795-1.331,1.588-2.054,2.331-.132.135-.394.232-.412.37-.026.2.271.263.409.408a24.961,24.961,0,0,0,2.153,1.93,28.95,28.95,0,0,0,3.592,2.623,14.525,14.525,0,0,0,4.011,1.855,5.218,5.218,0,0,0,1.577.3,9.349,9.349,0,0,0,1.314-.026,3.8,3.8,0,0,0,2.268-1.376,7.144,7.144,0,0,0,1.333-3.222,17.02,17.02,0,0,0,.268-3.323m13.751-20.9a3.651,3.651,0,0,0-.064-.519,3.828,3.828,0,0,0-.822-2.08,10.776,10.776,0,0,0-2.728-2.562,24.324,24.324,0,0,0-2.583-1.468,20.316,20.316,0,0,0-2.114-.935c-.825-.3-1.639-.641-2.471-.931a17.508,17.508,0,0,1-1.7-.536c-.294-.137-.4.069-.439.269a15.153,15.153,0,0,1-.589,1.845c-.276.837-.56,1.671-.905,2.484-.221.521-.419,1.053-.615,1.584-.167.453-.382.887-.589,1.318a4.4,4.4,0,0,1-.5,1.115.514.514,0,0,0-.03.621,71.4,71.4,0,0,1,3.289,8.5c.076.244.177.257.392.192,1-.3,1.991-.61,2.968-.972A25.872,25.872,0,0,0,65.438,36.9a9.263,9.263,0,0,0,2.768-2.864,3.8,3.8,0,0,0,.553-1.942m-19.1-28.9a6.036,6.036,0,0,0-2.035.435c-.452.144-.89.361-1.331.546-.655.276-1.242.659-1.863.986a14.754,14.754,0,0,0-1.888,1.249,21.907,21.907,0,0,0-1.784,1.4c-.345.317-.713.609-1.062.92-.385.343-.76.7-1.158,1.034a1.166,1.166,0,0,0-.338.35c-.105.229.181.241.271.37.491.705,1.132,1.285,1.669,1.952.313.389.676.746.966,1.144.662.91,1.405,1.756,2.03,2.694.289.434.622.843.92,1.274.074.107.145.223.3.231.758.037,1.508.142,2.261.229.836.1,1.672.194,2.5.333.656.11,1.317.192,1.968.344.755.177,1.526.285,2.283.452.418.092.438.088.535-.314.329-1.37.566-2.754.763-4.15.137-.97.234-1.944.309-2.917a11.335,11.335,0,0,0-.062-2.343,18.455,18.455,0,0,0-.426-2.554,6.188,6.188,0,0,0-1.175-2.382,3.213,3.213,0,0,0-2.1-1.237,3.721,3.721,0,0,0-1.554-.043m1,25.158a2.578,2.578,0,0,0,.163-.292c.391-1.039.817-2.063,1.2-3.106.3-.825.559-1.665.85-2.493.057-.162.062-.234-.151-.287-.678-.17-1.366-.29-2.048-.433-1.068-.224-2.156-.359-3.239-.5a1.964,1.964,0,0,0-.92-.064c1.493,2.325,2.852,4.7,4.146,7.179M25.356,21.173a1.394,1.394,0,0,0-.73-.024,6.691,6.691,0,0,1-1.25.238c-1.4.22-2.791.482-4.178.771-.209.044-.24.123-.171.311.122.333.218.674.333,1.009q.666,1.955,1.438,3.871c.126.315.263.625.421,1,1.3-2.483,2.662-4.845,4.138-7.173M46.539,42.888a1.949,1.949,0,0,0,.713-.042q2.73-.367,5.424-.945c.238-.051.264-.136.189-.347-.321-.9-.618-1.815-.942-2.718-.371-1.035-.777-2.058-1.24-3.128-1.295,2.474-2.663,4.844-4.145,7.179m-21.161.024c-1.5-2.372-2.87-4.734-4.155-7.193-.062.132-.1.212-.139.295-.739,1.781-1.421,3.584-2,5.424-.127.4-.128.4.3.49q2.139.459,4.3.78a13.7,13.7,0,0,0,1.7.2" transform="translate(-15055.175 -18710.771)" fill="#003d78"/>
    <path id="Path_1652" data-name="Path 1652" d="M794.552,1041.813c0-.021,0-.042.005-.063.1.008.214-.023.3.063Z" transform="translate(-15800.962 -19688.588)" fill="#67dbfb"/>
    <path id="Path_1653" data-name="Path 1653" d="M527.144,188.087a.152.152,0,0,1,.167-.176.187.187,0,0,1-.167.176" transform="translate(-15549.966 -18887.15)" fill="#67dbfb"/>
    <path id="Path_1654" data-name="Path 1654" d="M395.284,59.012a.348.348,0,0,1-.24-.114c.1.006.2-.018.24.114" transform="translate(-15425.974 -18766.057)" fill="#67dbfb"/>
    <path id="Path_1655" data-name="Path 1655" d="M276.438,426.674c-.059-.045-.128-.085-.105-.179.1.024.1.1.105.179" transform="translate(-15314.545 -19111.094)" fill="#67dbfb"/>
    <path id="Path_1656" data-name="Path 1656" d="M176.482,695.259c-.089.008-.132-.054-.177-.114.083,0,.157.016.177.114" transform="translate(-15220.66 -19363.256)" fill="#67dbfb"/>
    <path id="Path_1657" data-name="Path 1657" d="M309.369,507.575c-.062-.042-.125-.083-.112-.174.1.02.109.093.112.174" transform="translate(-15345.45 -19187.035)" fill="#67dbfb"/>
    <path id="Path_1658" data-name="Path 1658" d="M305.389,498.583c-.061-.042-.124-.082-.111-.172.094.02.108.093.111.172" transform="translate(-15341.715 -19178.594)" fill="#67dbfb"/>
    <path id="Path_1659" data-name="Path 1659" d="M296.418,477.609c-.06-.043-.125-.083-.109-.174.094.022.106.095.109.174" transform="translate(-15333.296 -19158.906)" fill="#67dbfb"/>
    <path id="Path_1660" data-name="Path 1660" d="M291.421,465.624c-.06-.043-.126-.083-.109-.174.094.022.106.095.109.174" transform="translate(-15328.605 -19147.658)" fill="#67dbfb"/>
    <path id="Path_1661" data-name="Path 1661" d="M263.609,37.4c-.041-.081-.014-.115.074-.105l-.074.105" transform="translate(-15302.589 -18745.781)" fill="#67dbfb"/>
    <path id="Path_1662" data-name="Path 1662" d="M225.277,138c-.007-.052,0-.1.058-.12.064.08.01.1-.058.12" transform="translate(-15266.623 -18840.199)" fill="#67dbfb"/>
    <path id="Path_1663" data-name="Path 1663" d="M548.779,164.922c0-.041,0-.081,0-.122.037.008.082.015.081.062s-.046.052-.083.06" transform="translate(-15570.274 -18865.459)" fill="#67dbfb"/>
    <path id="Path_1664" data-name="Path 1664" d="M521.263,196.055c-.035-.087.01-.115.088-.118a.149.149,0,0,1-.088.118" transform="translate(-15544.434 -18894.686)" fill="#67dbfb"/>
    <path id="Path_1665" data-name="Path 1665" d="M584.886,202.5l-.121-.016c.011-.036.023-.082.067-.069.024.008.037.055.055.085" transform="translate(-15604.05 -18900.764)" fill="#67dbfb"/>
    <path id="Path_1666" data-name="Path 1666" d="M274.327,26.4c0-.083.023-.126.113-.09a.134.134,0,0,1-.113.09" transform="translate(-15312.664 -18735.455)" fill="#67dbfb"/>
    <path id="Path_1667" data-name="Path 1667" d="M505.159,215.167c0-.077.034-.109.109-.1a.13.13,0,0,1-.109.1" transform="translate(-15529.33 -18912.639)" fill="#67dbfb"/>
    <path id="Path_1668" data-name="Path 1668" d="M501.117,220c-.009-.081.034-.112.108-.114a.127.127,0,0,1-.108.114" transform="translate(-15525.534 -18917.164)" fill="#67dbfb"/>
    <path id="Path_1669" data-name="Path 1669" d="M497.129,225.035c-.008-.08.034-.111.108-.111a.128.128,0,0,1-.108.111" transform="translate(-15521.793 -18921.895)" fill="#67dbfb"/>
    <path id="Path_1670" data-name="Path 1670" d="M493.138,230.04c-.008-.08.034-.111.108-.111a.128.128,0,0,1-.108.111" transform="translate(-15518.045 -18926.59)" fill="#67dbfb"/>
    <path id="Path_1671" data-name="Path 1671" d="M227.325,234.837c-.06-.02-.066-.066-.06-.119.067.016.122.038.06.119" transform="translate(-15268.489 -18931.088)" fill="#67dbfb"/>
    <path id="Path_1672" data-name="Path 1672" d="M231.4,262.836c-.06-.032-.115-.068-.1-.15a.126.126,0,0,1,.1.15" transform="translate(-15272.275 -18957.34)" fill="#67dbfb"/>
    <path id="Path_1673" data-name="Path 1673" d="M515.146,203.176c0-.077.034-.109.109-.1a.129.129,0,0,1-.109.1" transform="translate(-15538.704 -18901.383)" fill="#67dbfb"/>
    <path id="Path_1674" data-name="Path 1674" d="M230.476,713.585c-.064.022-.1,0-.109-.067.072-.036.094.01.109.067" transform="translate(-15271.401 -19380.488)" fill="#67dbfb"/>
    <path id="Path_1675" data-name="Path 1675" d="M652.16,759.535l-.048-.1c.089,0,.1.033.048.1" transform="translate(-15667.263 -19423.604)" fill="#67dbfb"/>
    <path id="Path_1676" data-name="Path 1676" d="M280.129,21.373a.1.1,0,0,1,.12-.1.125.125,0,0,1-.12.1" transform="translate(-15318.111 -18730.74)" fill="#67dbfb"/>
    <path id="Path_1677" data-name="Path 1677" d="M302.971,8.165a.109.109,0,0,1,.128-.047c-.014.1-.071.071-.128.047" transform="translate(-15339.551 -18718.393)" fill="#67dbfb"/>
    <path id="Path_1678" data-name="Path 1678" d="M540.785,88.125c.031,0,.049.01.045.044l-.045-.044" transform="translate(-15562.77 -18793.49)" fill="#67dbfb"/>
    <path id="Path_1679" data-name="Path 1679" d="M446.862,83.907l-.064-.042.064.042" transform="translate(-15474.552 -18789.496)" fill="#67dbfb"/>
    <path id="Path_1680" data-name="Path 1680" d="M245.2,378.549l-.058.051.058-.051" transform="translate(-15285.275 -19066.088)" fill="#67dbfb"/>
    <path id="Path_1681" data-name="Path 1681" d="M294.078,83.972l-.041.063.041-.063" transform="translate(-15331.165 -18789.598)" fill="#67dbfb"/>
    <path id="Path_1682" data-name="Path 1682" d="M534.892,83.269c.03-.008.04,0,.036.033a.131.131,0,0,1-.036-.033" transform="translate(-15557.238 -18788.932)" fill="#67dbfb"/>
    <path id="Path_1683" data-name="Path 1683" d="M441.878,80.97l-.063-.039.063.039" transform="translate(-15469.874 -18786.738)" fill="#67dbfb"/>
    <path id="Path_1684" data-name="Path 1684" d="M289.389,460.564c-.031,0-.052-.015-.044-.052l.044.052" transform="translate(-15326.759 -19143.025)" fill="#67dbfb"/>
    <path id="Path_1685" data-name="Path 1685" d="M529.891,79.249c.031-.008.042.006.039.035a.133.133,0,0,1-.039-.035" transform="translate(-15552.544 -18785.16)" fill="#67dbfb"/>
    <path id="Path_1686" data-name="Path 1686" d="M524.908,75.3c.029-.009.039,0,.035.032a.132.132,0,0,1-.035-.032" transform="translate(-15547.867 -18781.445)" fill="#67dbfb"/>
    <path id="Path_1687" data-name="Path 1687" d="M301.38,489.538l-.044-.06.044.06" transform="translate(-15338.018 -19170.213)" fill="#67dbfb"/>
    <path id="Path_1688" data-name="Path 1688" d="M508.913,63.259c.032-.01.043.005.041.035a.137.137,0,0,1-.041-.035" transform="translate(-15532.854 -18770.15)" fill="#67dbfb"/>
    <path id="Path_1689" data-name="Path 1689" d="M480.849,44.192c.034-.006.051.007.049.043l-.049-.043" transform="translate(-15506.512 -18752.256)" fill="#67dbfb"/>
    <path id="Path_1690" data-name="Path 1690" d="M472.961,39.3c.033-.013.042,0,.041.033a.138.138,0,0,1-.041-.033" transform="translate(-15499.107 -18747.664)" fill="#67dbfb"/>
    <path id="Path_1691" data-name="Path 1691" d="M497.075,118.948l-.051-.058.051.058" transform="translate(-15521.694 -18822.369)" fill="#67dbfb"/>
    <path id="Path_1692" data-name="Path 1692" d="M458.981,31.354l.061.038-.061-.038" transform="translate(-15485.987 -18740.207)" fill="#67dbfb"/>
    <path id="Path_1693" data-name="Path 1693" d="M473.068,100.944c-.036.008-.049-.01-.05-.043l.05.043" transform="translate(-15499.161 -18805.482)" fill="#67dbfb"/>
    <path id="Path_1694" data-name="Path 1694" d="M282.97,20.283l.065-.043-.065.043" transform="translate(-15320.778 -18729.771)" fill="#67dbfb"/>
    <path id="Path_1695" data-name="Path 1695" d="M434.962,19.2c.036,0,.05.016.053.048l-.053-.048" transform="translate(-15463.442 -18728.793)" fill="#67dbfb"/>
    <path id="Path_1696" data-name="Path 1696" d="M484.085,108.956l-.052-.055.052.055" transform="translate(-15509.499 -18812.99)" fill="#67dbfb"/>
    <path id="Path_1697" data-name="Path 1697" d="M292.3,13.225c0-.033.012-.048.045-.047l-.045.047" transform="translate(-15329.535 -18723.148)" fill="#67dbfb"/>
    <path id="Path_1698" data-name="Path 1698" d="M289.1,93.917l-.051.053.051-.053" transform="translate(-15326.486 -18798.928)" fill="#67dbfb"/>
    <path id="Path_1699" data-name="Path 1699" d="M487.619,430.4a6.4,6.4,0,1,1,6.433-6.387,6.365,6.365,0,0,1-6.433,6.387" transform="translate(-15506.87 -19102.742)" fill="#e22718"/>
  </g>
</svg>
