<svg xmlns="http://www.w3.org/2000/svg" width="29.259" height="29.25" viewBox="0 0 29.259 29.25">
  <g id="Real_Estate" data-name="Real Estate" transform="translate(9670.254 19152.08)">
    <g id="Group_10696" data-name="Group 10696" transform="translate(-10352 -19343.08)">
      <path id="Path_1506" data-name="Path 1506" d="M18.176,7.32a.276.276,0,0,0-.352,0L6.855,16.095a.3.3,0,0,0-.105.218V32.484a.141.141,0,0,0,.141.141h7.594a.141.141,0,0,0,.141-.141V22.641a.141.141,0,0,1,.141-.141h6.469a.141.141,0,0,1,.141.141v9.844a.141.141,0,0,0,.141.141h7.594a.141.141,0,0,0,.141-.141V16.313a.284.284,0,0,0-.105-.218Z" transform="translate(678.372 187.625)" fill="#003d78"/>
      <path id="Path_1507" data-name="Path 1507" d="M32.252,14.358,18.963,3.713a1.543,1.543,0,0,0-1.927,0l-5.787,4.7V5.449a.141.141,0,0,0-.141-.141H6.891a.141.141,0,0,0-.141.141v6.483l-3,2.468a.984.984,0,0,0-.084,1.47.978.978,0,0,0,.7.288.991.991,0,0,0,.619-.218L17.909,5.534A.126.126,0,0,1,18,5.505a.17.17,0,0,1,.091.028L31.022,15.9a.991.991,0,0,0,.619.218,1,1,0,0,0,.991-1.041A1,1,0,0,0,32.252,14.358Z" transform="translate(678.372 187.625)" fill="#e22718"/>
    </g>
  </g>
</svg>
