<svg xmlns="http://www.w3.org/2000/svg" width="42.069" height="33.816" viewBox="0 0 42.069 33.816">
  <g id="Restaurant" transform="translate(9903 19136.99)">
    <g id="Group_10691" data-name="Group 10691" transform="translate(-10306 -19328.207)">
      <g id="Group_10662" data-name="Group 10662" transform="translate(403 191.217)">
        <path id="Path_1484" data-name="Path 1484" d="M366.668,31.838a8.175,8.175,0,0,1-.5,1.1,1.613,1.613,0,0,1-2.876-.017,3.078,3.078,0,0,1-.462-1.494c.005-1.723.093-3.446.186-5.167.1-1.885.24-3.768.372-5.651.058-.832.14-1.662.209-2.494.021-.257.033-.515.053-.837-.172,0-.316,0-.46,0a1.287,1.287,0,0,1-1.346-1.311c0-2.559-.063-5.124.1-7.675A14.914,14.914,0,0,1,365.013.254.617.617,0,0,1,365.5.006c.13.036.219.292.286.467A1.082,1.082,0,0,1,365.8.84c0,5.119-.025,10.238.014,15.357.013,1.652.2,3.3.3,4.953q.2,3.071.391,6.143c.053.831.111,1.661.167,2.491Z" transform="translate(-324.599 0)" fill="#003d78"/>
        <path id="Path_1485" data-name="Path 1485" d="M75.515,35.054a13.935,13.935,0,1,1,13.95,13.923,13.945,13.945,0,0,1-13.95-13.923m3.386-.012A10.552,10.552,0,1,0,89.479,24.493,10.554,10.554,0,0,0,78.9,35.042" transform="translate(-67.744 -18.95)" fill="#003d78"/>
        <path id="Path_1486" data-name="Path 1486" d="M1.6,18.695c-.04.92-.1,2.069-.134,3.217a.644.644,0,0,0,.6.7.635.635,0,0,0,.727-.46,1.7,1.7,0,0,0,.069-.485c.037-1.382.066-2.764.1-4.146.019-.794.037-1.587.065-2.381.018-.52.265-.813.667-.822s.683.28.7.8c.053,1.642.082,3.284.123,4.926.015.6.024,1.2.056,1.806.027.506.3.793.71.781.426-.012.692-.345.667-.858q-.16-3.3-.327-6.6a.733.733,0,0,1,.345-.774.632.632,0,0,1,.924.584c.119,1.816.226,3.632.335,5.449.061,1.011.131,2.021.171,3.032a3.249,3.249,0,0,1-1.422,3.019,2.891,2.891,0,0,0-1.291,3.134c.249,2.324.412,4.659.569,6.992.155,2.307.253,4.618.384,6.927a3.718,3.718,0,0,1-.294,1.923,1.8,1.8,0,0,1-1.667,1.19,1.728,1.728,0,0,1-1.6-1.212,3.58,3.58,0,0,1-.294-1.467q.272-5.555.627-11.106c.084-1.337.246-2.669.371-4a2.026,2.026,0,0,0-.907-2.023A4.01,4.01,0,0,1,.025,22.788c.176-2.017.265-4.041.39-6.062.034-.546.057-1.093.092-1.639.032-.5.294-.788.678-.766s.628.338.6.826c-.053,1.107-.117,2.214-.188,3.549" transform="translate(0 -12.846)" fill="#003d78"/>
        <path id="Path_1487" data-name="Path 1487" d="M151.235,88.881a7.738,7.738,0,1,1-7.778-7.732,7.777,7.777,0,0,1,7.778,7.732" transform="translate(-121.79 -72.798)" fill="#e22718"/>
      </g>
    </g>
  </g>
</svg>
