<svg xmlns="http://www.w3.org/2000/svg" width="44.841" height="32.383" viewBox="0 0 44.841 32.383">
  <g id="SaaS" transform="translate(9902.012 18963.34)">
    <g id="Group_10693" data-name="Group 10693" transform="translate(-10236.256 -19371.244)">
      <path id="Path_1493" data-name="Path 1493" d="M0,21.264c.146-.635.257-1.28.444-1.9a9.719,9.719,0,0,1,3.584-5.094.772.772,0,0,0,.388-.841A7.419,7.419,0,0,1,13.6,5.461c.258.066.374.036.5-.217A9,9,0,0,1,23.09.012a9.186,9.186,0,0,1,8.429,7.9c.015.127.047.252.072.381.6-.055,1.177-.149,1.753-.153a7.4,7.4,0,0,1,7.5,8.088,1.174,1.174,0,0,0,.551,1.227,7.841,7.841,0,0,1,3.2,8.469,8.037,8.037,0,0,1-6.648,6.338,6.277,6.277,0,0,1-1.3.113q-13.305.009-26.611,0a10.139,10.139,0,0,1-9.95-8.771A1.246,1.246,0,0,0,0,23.365v-2.1m19.47-3.458a3.6,3.6,0,0,0-4.535.831,3.561,3.561,0,0,0-.157,4.342,3.494,3.494,0,0,0,1.839,1.341,3.564,3.564,0,0,0,2.859-.308c.247.627.568.888,1,.833a.889.889,0,0,0,.783-.91q.019-3.02,0-6.04a.853.853,0,0,0-.656-.877.789.789,0,0,0-.889.308,2.706,2.706,0,0,0-.246.481m8.329,6.21c.04.1.071.182.1.262a.836.836,0,0,0,.892.562.872.872,0,0,0,.773-.776,2.525,2.525,0,0,0,.016-.393q0-2.757,0-5.515a2.51,2.51,0,0,0-.016-.393.871.871,0,0,0-.773-.776.838.838,0,0,0-.892.562c-.036.086-.074.171-.112.258a3.594,3.594,0,0,0-4.592.9,3.555,3.555,0,0,0,0,4.414,3.6,3.6,0,0,0,4.6.895m6.516.841a3.652,3.652,0,0,0,2.109-.7,2.56,2.56,0,0,0,.044-4.215,5.374,5.374,0,0,0-1.1-.611c-.664-.294-1.349-.541-2.018-.826a.689.689,0,0,1-.147-1.222,1.228,1.228,0,0,1,.426-.212,2.22,2.22,0,0,1,2.165.451.782.782,0,0,0,.958.176,1.3,1.3,0,0,0,.522-.732c.093-.409-.223-.7-.538-.93a3.988,3.988,0,0,0-3.728-.592,2.59,2.59,0,0,0-1.842,2.265,2.346,2.346,0,0,0,1.64,2.453c.8.342,1.616.655,2.408,1.019a.873.873,0,0,1,.591.844,1,1,0,0,1-.643.868,2.062,2.062,0,0,1-.749.2,2.8,2.8,0,0,1-2.173-.838.863.863,0,0,0-1.28-.039A.877.877,0,0,0,31.04,23.5a4.7,4.7,0,0,0,3.275,1.361m-24.507,0a3.688,3.688,0,0,0,1.993-.6,2.587,2.587,0,0,0,.064-4.4,5.519,5.519,0,0,0-1-.529c-.667-.289-1.35-.542-2.019-.828a.664.664,0,0,1-.216-1.134,1.177,1.177,0,0,1,.482-.284,2.236,2.236,0,0,1,2.207.452.852.852,0,0,0,1.048.134.746.746,0,0,0,.4-.886,1.513,1.513,0,0,0-.447-.668,4,4,0,0,0-4.231-.485,2.443,2.443,0,0,0-1.42,2.333,2.288,2.288,0,0,0,1.6,2.185q1.24.482,2.451,1.033a.879.879,0,0,1,.595.843,1,1,0,0,1-.641.871,2.02,2.02,0,0,1-.75.2,2.787,2.787,0,0,1-2.173-.842.865.865,0,0,0-1.284-.032.856.856,0,0,0,.09,1.28,4.693,4.693,0,0,0,3.251,1.36" transform="translate(334.244 407.904)" fill="#003d78"/>
      <path id="Path_1494" data-name="Path 1494" d="M139.194,164.95a1.834,1.834,0,1,1-1.841-1.826,1.833,1.833,0,0,1,1.841,1.826" transform="translate(214.569 263.861)" fill="#e22718"/>
      <path id="Path_1495" data-name="Path 1495" d="M210.3,164.989a1.834,1.834,0,1,1-1.8-1.865,1.835,1.835,0,0,1,1.8,1.865" transform="translate(151.776 263.861)" fill="#e22718"/>
    </g>
  </g>
</svg>
