<svg xmlns="http://www.w3.org/2000/svg" xmlns:xlink="http://www.w3.org/1999/xlink" width="56.622" height="63.999" viewBox="0 0 56.622 63.999">
  <defs>
    <clipPath id="clip-path">
      <rect id="Rectangle_17992" data-name="Rectangle 17992" width="56.622" height="63.999" fill="#003d78"/>
    </clipPath>
  </defs>
  <g id="Group_10759" data-name="Group 10759" transform="translate(19260.617 13377.629)">
    <g id="Group_10757" data-name="Group 10757" transform="translate(-19260.617 -13377.629)">
      <g id="Group_10720" data-name="Group 10720">
        <g id="Group_2533" data-name="Group 2533" transform="translate(0 0)" clip-path="url(#clip-path)">
          <path id="Path_5523" data-name="Path 5523" d="M36.746,64a10.494,10.494,0,0,1-1.654-.27c-.983-.164-1.965-.343-2.944-.528-.811-.153-1.618-.33-2.429-.484-1.029-.2-2.06-.375-3.089-.566-.734-.136-1.467-.283-2.2-.42-.8-.15-1.606-.292-2.41-.439-.715-.131-1.43-.267-2.146-.4-.971-.176-1.944-.342-2.913-.525-.811-.152-1.618-.328-2.429-.482s-1.629-.292-2.443-.444c-.949-.177-1.9-.364-2.846-.541-.814-.152-1.63-.294-2.445-.443-.705-.129-1.41-.263-2.115-.391-.98-.178-1.963-.34-2.94-.534C1.2,57.425.651,57.31.1,57.232c-.131-.019-.1-.113-.09-.186a11.923,11.923,0,0,1,.125-1.2c.08-.414.09-.836.176-1.248.064-.1,0-.216.05-.315.093-.827.2-1.651.322-2.474.123-.862.195-1.732.307-2.6s.248-1.7.368-2.557c.049-.347.082-.7.122-1.044.064-.1,0-.216.05-.315.093-.827.205-1.652.322-2.476.123-.863.195-1.733.307-2.6s.254-1.7.367-2.559c.094-.716.156-1.437.249-2.154.089-.685.208-1.367.3-2.052.075-.558.12-1.119.193-1.677s.167-1.09.238-1.636.123-1.118.193-1.677c.074-.586.162-1.17.243-1.755.064-.1,0-.216.05-.315.113-.966.235-1.931.382-2.893.1-.673.154-1.355.253-2.029.138-.939.212-1.888.416-2.818a1.312,1.312,0,0,1,.974-1c1.805-.613,3.642-1.128,5.457-1.709a4.172,4.172,0,0,1,.7-.205c.5-.067.666-.374.77-.832a27.043,27.043,0,0,1,.981-3.17c.267-.736.549-1.467.878-2.173a27.2,27.2,0,0,1,1.519-2.9,21.7,21.7,0,0,1,1.49-2.139A11.369,11.369,0,0,1,23.947.288c.424-.105.86-.163,1.29-.243.1-.045.219.013.319-.045a5.705,5.705,0,0,1,1.612.116,4.609,4.609,0,0,1,2.192,1.43c.118.137.192.35.431.346a1,1,0,0,1,.425,0A6.078,6.078,0,0,1,34.9,4.617a13.049,13.049,0,0,1,1.7,3.295c.089.248.18.27.4.193.525-.181,1.053-.358,1.59-.5a1.422,1.422,0,0,1,.927-.035.247.247,0,0,1,.07.2c-.041.859-.062,1.72-.125,2.578-.039.521-.058,1.044-.078,1.565-.041,1.054-.095,2.108-.151,3.161-.076,1.421-.139,2.844-.216,4.265-.056,1.032-.1,2.067-.148,3.1s-.085,2.087-.162,3.129c-.035.47-.052.942-.067,1.412-.046,1.475-.15,2.946-.206,4.42-.048,1.258-.121,2.516-.182,3.775-.082,1.678-.17,3.355-.249,5.033q-.086,1.857-.182,3.713c-.088,1.667-.166,3.334-.247,5s-.164,3.314-.245,4.971c-.083,1.688-.16,3.376-.248,5.063-.082,1.575-.156,3.15-.238,4.725a.432.432,0,0,1-.094.315" transform="translate(0.001 0.002)" fill="#003d78"/>
          <path id="Path_5524" data-name="Path 5524" d="M596.663,179.38c.022-1.226.088-2.45.175-3.673.031-.438.027-.878.056-1.317.073-1.1.081-2.207.143-3.31.071-1.275.13-2.551.189-3.827q.057-1.24.123-2.48c.068-1.265.126-2.531.185-3.8.037-.806.082-1.612.122-2.418.063-1.286.136-2.571.187-3.858.032-.806.078-1.612.122-2.418.068-1.265.127-2.531.185-3.8.038-.827.082-1.653.123-2.48.063-1.265.133-2.53.186-3.8.034-.827.08-1.653.121-2.48.062-1.245.132-2.489.185-3.735.035-.827.083-1.653.123-2.48.061-1.265.128-2.531.186-3.8q.058-1.255.123-2.51c.066-1.255.149-2.509.18-3.766,0-.162.037-.324.056-.486a.785.785,0,0,1,.658.331q1.74,1.719,3.474,3.445a.726.726,0,0,0,.509.224c1.288.086,2.574.189,3.861.286.327.025.654.046.981.075a.6.6,0,0,1,.61.571q.526,3.535,1.05,7.07c.3,1.992.6,3.982.9,5.974.256,1.719.5,3.44.758,5.16s.52,3.437.776,5.156c.236,1.588.465,3.177.7,4.765.215,1.446.436,2.891.652,4.338s.425,2.872.638,4.308c.239,1.608.484,3.215.721,4.823.175,1.192.339,2.386.514,3.577.09.613.185,1.225.295,1.834.036.2-.05.25-.209.284q-2.043.437-4.085.878-2.089.447-4.179.89c-2,.426-4,.848-6,1.28-1.739.376-3.476.764-5.215,1.145a1.122,1.122,0,0,1-.183.01" transform="translate(-559.916 -115.381)" fill="#e22718"/>
          <path id="Path_5525" data-name="Path 5525" d="M63.964,428.737a.5.5,0,0,1-.05.315c.009-.106-.04-.221.05-.315" transform="translate(-59.973 -402.332)" fill="#003d78"/>
          <path id="Path_5526" data-name="Path 5526" d="M23.987,735.555a.492.492,0,0,1-.05.315c.009-.106-.041-.221.05-.315" transform="translate(-22.458 -690.254)" fill="#003d78"/>
          <path id="Path_5527" data-name="Path 5527" d="M5,881.468a.5.5,0,0,1-.05.315c.009-.106-.041-.221.05-.315" transform="translate(-4.638 -827.181)" fill="#003d78"/>
          <path id="Path_5528" data-name="Path 5528" d="M150.723,388.062a13.623,13.623,0,0,1-6.573-1.906,11.526,11.526,0,0,1-2.3-1.79.4.4,0,0,1-.119-.455q.775-2.493,1.523-4.995c.075-.251.132-.269.343-.105a13.263,13.263,0,0,0,4.394,2.408,4.294,4.294,0,0,0,2.155.148,2.482,2.482,0,0,0,1.88-2.667,4.051,4.051,0,0,0-1.172-2.444,26.9,26.9,0,0,0-2.469-2.127,10.219,10.219,0,0,1-2.608-3,8.33,8.33,0,0,1-.85-4.564,11.443,11.443,0,0,1,1.949-5.783,11.152,11.152,0,0,1,6.026-4.436,15.648,15.648,0,0,1,8.789-.281,9.7,9.7,0,0,1,.985.344c.221.083.256.184.179.407-.639,1.859-1.265,3.722-1.894,5.584-.128.378-.27.753-.38,1.136-.064.222-.147.229-.342.141a10.855,10.855,0,0,0-4.921-1.016,5.041,5.041,0,0,0-2.247.556,2.591,2.591,0,0,0-.763,4.008,9.5,9.5,0,0,0,1.058.982c1.123.894,2.329,1.679,3.416,2.62a8.971,8.971,0,0,1,3.347,5.3c.593,3.647-.11,6.971-2.855,9.634a8.273,8.273,0,0,1-5.294,2.256c-.215.017-.43.033-.645.041s-.41,0-.614,0" transform="translate(-132.977 -333.67)" fill="#fff"/>
          <path id="Path_5529" data-name="Path 5529" d="M261.7,36.261a1.265,1.265,0,0,1-.135.093,10.328,10.328,0,0,0-4.122,3.942,18.835,18.835,0,0,0-2.36,6.29.478.478,0,0,1-.382.429c-1.567.471-3.13.959-4.69,1.44-.078-.092-.009-.165.013-.238a28.45,28.45,0,0,1,3.477-7.661,11.5,11.5,0,0,1,3.75-3.7,6.828,6.828,0,0,1,3.335-.932,1.932,1.932,0,0,1,1.115.342" transform="translate(-234.583 -33.707)" fill="#003d78"/>
          <path id="Path_5530" data-name="Path 5530" d="M373.369,82.3a14.514,14.514,0,0,1,.64-2.038,11.867,11.867,0,0,1,2.806-4.424,7.662,7.662,0,0,1,1.878-1.319c.179-.089.253-.072.325.128a13.273,13.273,0,0,1,.648,3.085c.081.775.089,1.553.111,2.331,0,.153-.009.271-.192.327-2.054.627-4.106,1.259-6.217,1.908" transform="translate(-350.374 -69.886)" fill="#003d78"/>
          <path id="Path_5531" data-name="Path 5531" d="M500.759,67.1a3.576,3.576,0,0,1,2.364,1.616,10.689,10.689,0,0,1,1.407,2.89c.036.106.072.185-.082.232-.977.3-1.952.6-2.958.909a16.315,16.315,0,0,0-.731-5.648" transform="translate(-469.919 -62.963)" fill="#003d78"/>
        </g>
      </g>
      <path id="Path_5608" data-name="Path 5608" d="M393.637,91.709a20.08,20.08,0,0,1,1.221-3.66,16.493,16.493,0,0,1,4.16-6.028,9.509,9.509,0,0,1,1.845-1.307c.757-.4.781-.4,1.021.4a19.713,19.713,0,0,1,.779,4.113c.088,1.058.094,2.122.151,3.183a.585.585,0,0,1-.484.667q-4.17,1.273-8.335,2.561c-.078.024-.16.035-.357.076" transform="translate(-372.691 -73.611)" fill="#fff"/>
      <path id="Path_5609" data-name="Path 5609" d="M275.767,39.582a10.871,10.871,0,0,0-2.736,2.04,14.988,14.988,0,0,0-3.117,5.12,24.541,24.541,0,0,0-1.072,3.747.514.514,0,0,1-.386.469c-1.576.472-3.146.963-4.719,1.444a.5.5,0,0,1-.154,0c-.1-.09-.048-.173-.026-.242a30.638,30.638,0,0,1,3.774-8.227,12.6,12.6,0,0,1,3.079-3.264,7.36,7.36,0,0,1,4.075-1.445,1.958,1.958,0,0,1,1.282.357" transform="translate(-248.701 -37.102)" fill="#fff"/>
      <path id="Path_5610" data-name="Path 5610" d="M529.149,82.657a28.57,28.57,0,0,0-1.2-9.413c.27-.287.518-.143.757-.058a6.361,6.361,0,0,1,2.881,2.157,16.962,16.962,0,0,1,2.63,5.15c.084.248.193.531-.179.648-1.589.5-3.18.987-4.892,1.517" transform="translate(-497.692 -67.505)" fill="#fff"/>
    </g>
  </g>
</svg>
