<svg xmlns="http://www.w3.org/2000/svg" width="38.368" height="37.73" viewBox="0 0 38.368 37.73">
  <g id="Social_Networking" data-name="Social Networking" transform="translate(10185 18948.34)">
    <g id="Group_10687" data-name="Group 10687" transform="translate(-493.574 -82.566)">
      <g id="Group_10652" data-name="Group 10652" transform="translate(-9691.426 -18865.773)">
        <path id="Path_1448" data-name="Path 1448" d="M858.5,13.435V14.93c-.014.059-.033.118-.041.178-.047.349-.072.7-.14,1.046a10.521,10.521,0,0,1-3.408,5.992,10.4,10.4,0,0,1-5.436,2.542c-.285.043-.57.082-.855.123h-1.453c-.067-.013-.134-.031-.2-.04-.363-.049-.729-.076-1.087-.148a10.389,10.389,0,0,1-6.225-3.711,10.4,10.4,0,0,1-2.262-8.485,9.9,9.9,0,0,1,2.184-4.879,10.446,10.446,0,0,1,9.77-3.893,9.87,9.87,0,0,1,4.8,1.948,10.486,10.486,0,0,1,4.187,6.708c.069.372.111.749.166,1.124M847.8,18.1c1.127-.064,2.169-.121,3.211-.183a2.4,2.4,0,0,0,1.427-.485,1.327,1.327,0,0,0,.512-.779,13.282,13.282,0,0,0,.066-4.64,1.557,1.557,0,0,0-.453-.973,1.789,1.789,0,0,0-1-.507c-.851-.091-1.706-.171-2.561-.2a33.052,33.052,0,0,0-4.227.119,2.6,2.6,0,0,0-1.435.468,1.341,1.341,0,0,0-.538.808,13.213,13.213,0,0,0-.064,4.6,1.6,1.6,0,0,0,.4.953,1.974,1.974,0,0,0,1.245.6c1.164.093,2.33.155,3.415.225" transform="translate(-837.245 -3.565)" fill="#e22718"/>
        <path id="Path_1449" data-name="Path 1449" d="M938.4,132.884c-1.085-.069-2.252-.132-3.415-.225a1.973,1.973,0,0,1-1.245-.6,1.6,1.6,0,0,1-.4-.953,13.216,13.216,0,0,1,.064-4.6,1.342,1.342,0,0,1,.539-.808,2.6,2.6,0,0,1,1.435-.468,33.041,33.041,0,0,1,4.227-.119c.855.033,1.709.114,2.56.2a1.789,1.789,0,0,1,1,.507,1.557,1.557,0,0,1,.453.973,13.284,13.284,0,0,1-.066,4.64,1.325,1.325,0,0,1-.512.779,2.4,2.4,0,0,1-1.426.486c-1.042.062-2.084.119-3.211.183m-1.185-5.949v4.07l3.312-2.037-3.312-2.033" transform="translate(-927.844 -118.352)" fill="#fff"/>
        <path id="Path_1450" data-name="Path 1450" d="M1006.2,158.349l3.312,2.033-3.312,2.037Z" transform="translate(-996.831 -149.766)" fill="#e22718"/>
      </g>
      <g id="Group_10653" data-name="Group 10653" transform="translate(-9670.169 -18848.967)">
        <path id="Path_1451" data-name="Path 1451" d="M449.793,0a8.557,8.557,0,1,1-8.569,8.534A8.546,8.546,0,0,1,449.793,0m-4.7,11.607c.033.03.044.046.059.053a7.373,7.373,0,0,0,3.956.654A4.918,4.918,0,0,0,452.9,9.668a5.673,5.673,0,0,0,.693-3.08A1.829,1.829,0,0,0,454.5,5.8l-.951.158-.016-.054A1.744,1.744,0,0,0,454.255,5c-.286.1-.559.217-.842.3a.64.64,0,0,1-.642-.133,1.88,1.88,0,0,0-2.943.8,4.1,4.1,0,0,0-.124.934c-.01.128-.039.174-.169.184a3.191,3.191,0,0,1-1.357-.217A7.133,7.133,0,0,1,445.909,5.4c-.063-.057-.128-.113-.212-.187a2,2,0,0,0,.6,2.467,1.537,1.537,0,0,1-.907-.159c.011,1.024.729,1.453,1.466,1.909H446a5.628,5.628,0,0,0,.348.6,2.3,2.3,0,0,0,1.453.787,4.382,4.382,0,0,1-2.7.792" transform="translate(-441.224 -0.001)" fill="#e22718"/>
        <path id="Path_1452" data-name="Path 1452" d="M517.476,100.277a4.382,4.382,0,0,0,2.7-.792,2.3,2.3,0,0,1-1.453-.787,5.631,5.631,0,0,1-.348-.6h.856c-.737-.456-1.455-.885-1.466-1.909a1.537,1.537,0,0,0,.907.159,2,2,0,0,1-.6-2.467c.085.074.149.13.213.187a7.133,7.133,0,0,0,2.268,1.462,3.191,3.191,0,0,0,1.357.217c.131-.009.16-.055.169-.184a4.1,4.1,0,0,1,.124-.934,1.88,1.88,0,0,1,2.943-.8.64.64,0,0,0,.642.133c.283-.08.556-.195.842-.3a1.744,1.744,0,0,1-.724.909l.016.054.951-.158a1.829,1.829,0,0,1-.906.783,5.672,5.672,0,0,1-.693,3.08,4.918,4.918,0,0,1-3.787,2.646,7.373,7.373,0,0,1-3.956-.654c-.015-.007-.026-.023-.059-.053" transform="translate(-513.603 -88.67)" fill="#fff"/>
      </g>
      <g id="Group_10654" data-name="Group 10654" transform="translate(-9688.957 -18848.967)">
        <path id="Path_1440" data-name="Path 1440" d="M11.209,216.071H9.739c-.234-.031-.47-.057-.7-.092a10.236,10.236,0,0,1-6.768-3.907,10.061,10.061,0,0,1-1.921-9.015,10.159,10.159,0,0,1,5.639-6.881A10.08,10.08,0,0,1,12.2,195.3a10.134,10.134,0,0,1,5.141,2.442,10.3,10.3,0,0,1,3.422,6.035c.067.366.11.737.164,1.105v1.47c-.031.234-.058.469-.092.7a10.5,10.5,0,0,1-8.524,8.855c-.366.067-.736.109-1.1.163M8.86,205.984v6.038H11.38v-6.047H13.07l.218-2.128H11.377c0-.48-.01-.935,0-1.389a.444.444,0,0,1,.4-.445,3.553,3.553,0,0,1,.528-.023c.31,0,.62,0,.933,0v-2.048a.534.534,0,0,0-.086-.015c-.694,0-1.388-.018-2.081.01a2.165,2.165,0,0,0-2.15,1.915,16.507,16.507,0,0,0-.073,1.75c0,.078-.009.156-.016.256H7.669v2.127Z" transform="translate(0 -195.147)" fill="#003d78"/>
        <path id="Path_1441" data-name="Path 1441" d="M141.768,288.715h-1.191v-2.127h1.169c.006-.1.013-.178.016-.256a16.511,16.511,0,0,1,.073-1.75,2.165,2.165,0,0,1,2.15-1.915c.693-.028,1.387-.009,2.081-.01a.519.519,0,0,1,.086.015v2.048c-.313,0-.623,0-.933,0a3.552,3.552,0,0,0-.528.023.444.444,0,0,0-.4.445c-.014.454,0,.909,0,1.389H146.2l-.218,2.128h-1.691v6.047h-2.519Z" transform="translate(-132.908 -277.879)" fill="#fff"/>
      </g>
      <g id="Group_10655" data-name="Group 10655" transform="translate(-9674.115 -18865.773)">
        <path id="Path_1442" data-name="Path 1442" d="M1369.608,85.785a9.981,9.981,0,1,1-9.987,9.963,9.968,9.968,0,0,1,9.987-9.963m5.538,9.985c0-.695,0-1.39,0-2.084a3.432,3.432,0,0,0-3.484-3.46q-2.062,0-4.124,0a3.456,3.456,0,0,0-3.477,3.509q0,2.029,0,4.058a3.653,3.653,0,0,0,.057.683,3.421,3.421,0,0,0,3.437,2.834q2.051,0,4.1,0a3.555,3.555,0,0,0,.682-.062,3.422,3.422,0,0,0,2.806-3.416c0-.687,0-1.375,0-2.062" transform="translate(-1359.622 -85.785)" fill="#003d78"/>
        <path id="Path_1443" data-name="Path 1443" d="M1445.6,166.266c0,.687,0,1.375,0,2.062a3.422,3.422,0,0,1-2.806,3.416,3.551,3.551,0,0,1-.683.061q-2.051.008-4.1,0a3.421,3.421,0,0,1-3.437-2.834,3.642,3.642,0,0,1-.057-.683q-.008-2.029,0-4.058a3.456,3.456,0,0,1,3.477-3.509q2.062-.008,4.124,0a3.433,3.433,0,0,1,3.484,3.46c0,.695,0,1.39,0,2.084m-1.243,0h0c0-.768.018-1.537,0-2.305a2.152,2.152,0,0,0-2.015-2q-2.282-.027-4.565,0a2.151,2.151,0,0,0-2.014,2.023q-.025,2.272,0,4.544a2.14,2.14,0,0,0,2.007,2.027q2.282.034,4.565,0a2.132,2.132,0,0,0,2.024-2.03c.02-.753,0-1.507,0-2.261" transform="translate(-1430.071 -156.281)" fill="#fff"/>
        <path id="Path_1444" data-name="Path 1444" d="M1463.938,185.814c0,.754.016,1.508,0,2.261a2.132,2.132,0,0,1-2.024,2.03q-2.282.034-4.565,0a2.139,2.139,0,0,1-2.007-2.027q-.024-2.272,0-4.544a2.151,2.151,0,0,1,2.014-2.023q2.283-.028,4.566,0a2.152,2.152,0,0,1,2.015,2c.022.768,0,1.537,0,2.305h0m-4.306-2.841a2.834,2.834,0,1,0,2.838,2.836,2.857,2.857,0,0,0-2.838-2.836m2.989-.632a.459.459,0,0,0-.481.464.467.467,0,0,0,.472.476.478.478,0,0,0,.475-.457.472.472,0,0,0-.466-.483" transform="translate(-1449.655 -175.826)" fill="#003d78"/>
        <path id="Path_1445" data-name="Path 1445" d="M1483.047,206.418a2.834,2.834,0,1,1-2.832,2.843,2.856,2.856,0,0,1,2.832-2.843m0,1.108a1.726,1.726,0,1,0,1.728,1.712,1.737,1.737,0,0,0-1.728-1.712" transform="translate(-1473.071 -199.271)" fill="#fff"/>
        <path id="Path_1446" data-name="Path 1446" d="M1570.833,195.746a.472.472,0,0,1,.466.483.478.478,0,0,1-.474.457.467.467,0,0,1-.472-.476.458.458,0,0,1,.481-.464" transform="translate(-1557.867 -189.231)" fill="#fff"/>
        <path id="Path_1447" data-name="Path 1447" d="M1500.668,225.124a1.726,1.726,0,1,1-1.724,1.718,1.732,1.732,0,0,1,1.724-1.718" transform="translate(-1490.69 -216.869)" fill="#e22718"/>
      </g>
    </g>
  </g>
</svg>
