<svg xmlns="http://www.w3.org/2000/svg" width="40.978" height="40.967" viewBox="0 0 40.978 40.967">
  <g id="software_development" data-name="software development" transform="translate(12617.352 18193.656)">
    <path id="Path_1610" data-name="Path 1610" d="M17.936,0H23.06c.047.357.085.715.142,1.07a2.506,2.506,0,0,0,1.954,2.185,2.532,2.532,0,0,0,2.764-.989c.206-.258.4-.523.615-.8l4.424,2.556c-.142.345-.272.651-.394.96a2.506,2.506,0,0,0,.556,2.877A2.508,2.508,0,0,0,36,8.436c.32-.123.635-.258.976-.4l2.556,4.427c-.323.247-.631.458-.911.7a2.622,2.622,0,0,0,1.251,4.617c.364.065.733.1,1.109.158v5.113c-.37.051-.727.092-1.08.151a2.624,2.624,0,0,0-1.209,4.679c.266.218.547.419.841.643l-2.558,4.429c-.348-.143-.663-.281-.984-.4a2.629,2.629,0,0,0-3.433,3.429c.123.322.262.637.407.988l-4.429,2.558c-.231-.3-.437-.6-.667-.87a2.625,2.625,0,0,0-4.658,1.234c-.062.362-.107.726-.158,1.074H17.94c-.049-.357-.091-.687-.142-1.017a2.546,2.546,0,0,0-1.932-2.209,2.591,2.591,0,0,0-2.822,1.03c-.192.249-.386.5-.586.753L8.036,36.967c.141-.342.266-.636.385-.932a2.625,2.625,0,0,0-3.472-3.456c-.3.123-.607.25-.925.381L1.47,28.532c.323-.248.618-.455.89-.688a2.516,2.516,0,0,0,.885-2.727A2.5,2.5,0,0,0,1.11,23.209c-.368-.063-.74-.1-1.11-.149V17.936c.357-.047.714-.085,1.069-.142a2.506,2.506,0,0,0,2.185-1.951,2.529,2.529,0,0,0-.983-2.764c-.258-.206-.525-.4-.8-.616L4.026,8.036c.35.145.665.284.986.406a2.51,2.51,0,0,0,2.842-.559,2.514,2.514,0,0,0,.588-2.87c-.122-.322-.261-.636-.405-.987l4.43-2.557c.242.317.441.6.663.865a2.518,2.518,0,0,0,2.751.911,2.5,2.5,0,0,0,1.906-2.135c.063-.367.1-.739.149-1.109M34.614,20.5A14.117,14.117,0,1,0,20.486,34.615,14.119,14.119,0,0,0,34.614,20.5" transform="translate(-12617.352 -18193.656)" fill="#e22718"/>
    <path id="Path_1611" data-name="Path 1611" d="M93.846,82.1A11.715,11.715,0,1,1,82.111,93.788,11.712,11.712,0,0,1,93.846,82.1M92.424,99.666,97.4,88.985,95.227,87.97l-4.98,10.682,2.176,1.014M84.284,93.8,88.79,98.31l1.7-1.694L87.6,93.737l2.792-2.78-1.626-1.635L84.284,93.8m19.1.024-4.513-4.515L97.182,91l2.882,2.854-2.832,2.826,1.634,1.647,4.513-4.5" transform="translate(-12690.679 -18266.979)" fill="#003d78"/>
  </g>
</svg>
