<svg xmlns="http://www.w3.org/2000/svg" width="50" height="31.951" viewBox="0 0 50 31.951">
  <g id="taxi_booking" data-name="taxi booking" transform="translate(9680.624 18896.031)">
    <g id="Group_10699" data-name="Group 10699" transform="translate(-10349 -19334.111)">
      <path id="Path_1524" data-name="Path 1524" d="M162.624,189.014c0,.275,0,.509,0,.743a2.259,2.259,0,0,1-2.234,2.33q-2.253.065-4.51,0A2.2,2.2,0,0,1,153.7,190a50.992,50.992,0,0,1,.129-8.574c.143-1.088.466-2.152.662-3.234a2.765,2.765,0,0,0-.118-.867,1.782,1.782,0,0,0-1.727-1.6,7.168,7.168,0,0,1-1.2-.332.811.811,0,0,1-.646-1.069c.058-.283.131-.564.212-.842a.851.851,0,0,1,.971-.682c1.027.1,2.053.215,3.076.353.637.086.827.428.7,1.154-.1.561-.335,1.126.064,1.667a1.23,1.23,0,0,0,.133.129q1.5-3.335,2.985-6.64c.275-.61.6-1.2.837-1.824a4.224,4.224,0,0,1,4.085-2.779c.361-.024.724-.026,1.086-.027q10.815,0,21.631.008a12.2,12.2,0,0,1,2.209.21,3.627,3.627,0,0,1,2.769,2.2c1.252,2.789,2.521,5.571,3.783,8.355.074.162.149.323.24.519a1.309,1.309,0,0,0,.315-1.257,6.6,6.6,0,0,1-.139-.747c-.082-.531.116-.88.628-.952,1.075-.152,2.157-.257,3.236-.38a.334.334,0,0,1,.054,0c.616.027.936.5,1.086,1.655a.81.81,0,0,1-.685.952c-.7.2-1.4.378-2.081.614a1.015,1.015,0,0,0-.507.468,3.4,3.4,0,0,0-.221,2.67,26.813,26.813,0,0,1,.648,7.659c-.007.96-.039,1.92-.052,2.88a2.3,2.3,0,0,1-2.384,2.409c-1.377.017-2.754.013-4.13,0a2.288,2.288,0,0,1-2.434-2.46c0-.2,0-.392,0-.625Zm-1.86-14.864a263.584,263.584,0,0,1,29.851-.026,27.5,27.5,0,0,0-2.838-5.777,1.04,1.04,0,0,0-.751-.273c-7.465-.014-14.93,0-22.4-.027a1.148,1.148,0,0,0-1.172.664c-.886,1.776-1.763,3.558-2.694,5.438m5.66,10.069c-.438-.546-.736-.978-1.094-1.354a16.6,16.6,0,0,0-5.114-3.8,1.655,1.655,0,0,0-1.981.144,3.279,3.279,0,0,0-.826,3.312,2.157,2.157,0,0,0,2.085,1.762c1.512.115,3.032.158,4.548.167a23.4,23.4,0,0,0,2.382-.234m18.73.009c.832.087,1.564.188,2.3.234a16.876,16.876,0,0,0,4.969-.256,2.181,2.181,0,0,0,1.7-1.773,3.641,3.641,0,0,0-.216-2.339,1.735,1.735,0,0,0-2.552-1.042,15.669,15.669,0,0,0-5.892,4.68c-.088.111-.151.241-.309.5m-9.413,1.734c-2.77,0-5.541,0-8.311.007-.218,0-.6.071-.625.172a2.78,2.78,0,0,0-.043,1.206c.034.147.465.285.716.286q8.256.024,16.513.012c.73,0,.805-.088.8-.874,0-.742-.065-.809-.8-.81q-4.128,0-8.257,0m-8.085-4.5h16.266l.147-.994H167.5l.16.994m15.924,1.425H168.014c.137,1.062.137,1.063,1.115,1.063h13.263c.982,0,.982,0,1.188-1.063" transform="translate(517.613 277.912)" fill="#003d78"/>
      <path id="Path_1525" data-name="Path 1525" d="M303.706,125.781c.412-1.066.774-2.061,1.182-3.037a1.162,1.162,0,0,1,1.21-.722q6.026.03,12.051,0a1.05,1.05,0,0,1,1.093.627c.426,1.007.806,2.033,1.236,3.132Z" transform="translate(381.315 316.059)" fill="#e22718"/>
    </g>
  </g>
</svg>
