<svg xmlns="http://www.w3.org/2000/svg" width="41.621" height="40.793" viewBox="0 0 41.621 40.793">
  <g id="Telecom" transform="translate(9901.792 18886.5)">
    <g id="Group_10694" data-name="Group 10694" transform="translate(-857.495 773.5)">
      <path id="Path_1496" data-name="Path 1496" d="M0,19.338c.107-.734.185-1.474.326-2.2A20.53,20.53,0,0,1,11.507,2.2,20.166,20.166,0,0,1,21.137,0,20.8,20.8,0,0,1,41.12,16.312a20.488,20.488,0,0,1-4.949,18.549c-.134.152-.274.3-.417.445a1.249,1.249,0,0,1-1.809.122,1.27,1.27,0,0,1,.023-1.815,32.557,32.557,0,0,0,2.088-2.588,17.277,17.277,0,0,0,2.968-8.015A17.948,17.948,0,0,0,34,8.066,17.489,17.489,0,0,0,24,2.75,17.858,17.858,0,0,0,10.077,5.937a17.6,17.6,0,0,0-7.317,11.61,17.982,17.982,0,0,0,4.821,16,1.272,1.272,0,0,1,.35,1.51,1.133,1.133,0,0,1-1.222.679A1.579,1.579,0,0,1,5.9,35.33,20.387,20.387,0,0,1,.421,25.019c-.163-.792-.23-1.6-.345-2.407C.06,22.5.026,22.38,0,22.265V19.338" transform="translate(-9044.297 -19660)" fill="#e22718"/>
      <path id="Path_1497" data-name="Path 1497" d="M92.077,206.242q-5.342,0-10.684,0a1.272,1.272,0,0,1-1.161-2.068q5.344-8.88,10.678-17.766a1.245,1.245,0,0,1,2.325-.007q5.352,8.9,10.7,17.8a1.268,1.268,0,0,1-1.176,2.037q-5.342-.01-10.684,0" transform="translate(-9115.564 -19825.453)" fill="#003d78"/>
      <path id="Path_1498" data-name="Path 1498" d="M51.021,64.349a13.172,13.172,0,0,0,3,8.259,1.464,1.464,0,0,1,.461,1.319,1.243,1.243,0,0,1-2.213.463,15.511,15.511,0,0,1-2.531-4.173A14.5,14.5,0,0,1,48.6,63.654a15.309,15.309,0,0,1,8.906-13.328,14.242,14.242,0,0,1,6.324-1.486A15.208,15.208,0,0,1,74.084,52.5a15.041,15.041,0,0,1,5.264,9.015A15.257,15.257,0,0,1,76.52,73.65c-.2.273-.408.541-.633.793a1.234,1.234,0,1,1-1.88-1.6,13.069,13.069,0,0,0,.049-16.883,12.388,12.388,0,0,0-7.179-4.335A13.052,13.052,0,0,0,51.295,61.94c-.152.791-.185,1.606-.273,2.409" transform="translate(-9087.589 -19703.537)" fill="#003d78"/>
      <path id="Path_1499" data-name="Path 1499" d="M100.714,107.986a7.731,7.731,0,0,0,1.135,3.975,1.328,1.328,0,0,1,.178,1.233,1.131,1.131,0,0,1-.967.763,1.183,1.183,0,0,1-1.214-.566,9.752,9.752,0,0,1-1.408-3.6,10.137,10.137,0,1,1,19.984-3.412,10.054,10.054,0,0,1-1.4,6.963,1.221,1.221,0,0,1-1.426.593,1.154,1.154,0,0,1-.857-1.109,2.187,2.187,0,0,1,.306-.941,7.59,7.59,0,0,0-.623-8.672,7.286,7.286,0,0,0-7.95-2.639,7.372,7.372,0,0,0-5.623,6.166c-.079.41-.089.833-.132,1.249" transform="translate(-9131.906 -19747.211)" fill="#e22718"/>
      <rect id="Rectangle_18019" data-name="Rectangle 18019" width="41.621" height="40.792" transform="translate(-9044.297 -19660)" fill="none"/>
    </g>
  </g>
</svg>
