<svg xmlns="http://www.w3.org/2000/svg" width="43.831" height="43.828" viewBox="0 0 43.831 43.828">
  <g id="Tours_Travel" data-name="Tours &amp; Travel" transform="translate(10186 18788.092)">
    <g id="Group_10689" data-name="Group 10689" transform="translate(-708.039 -98.613)">
      <path id="Path_1461" data-name="Path 1461" d="M64.4,68.545c-.819.828-1.578,1.583-2.32,2.353a1.168,1.168,0,0,1-.917.382c-1.857-.014-3.714-.006-5.573-.006A13.447,13.447,0,0,0,68.178,82.556v-.5q0-4.132,0-8.265c0-.782.224-1,1.011-1a6.909,6.909,0,0,0,2.426-.088c.687-.281,1.188-1.047,1.728-1.64a1.467,1.467,0,0,1,1.325-.545,10.129,10.129,0,0,0,1.045.007c-.008,3.339,1.576,6.082,3.1,8.845.128.232.261.462.389.687a15.1,15.1,0,1,1,3.6-17.022l-1.461.372c-.07-.132-.148-.279-.225-.427a13.439,13.439,0,0,0-8.82-7.12.751.751,0,0,0-.6.157c-.866.825-1.709,1.675-2.541,2.534a.844.844,0,0,0-.212.529q-.026,2.007,0,4.014a.856.856,0,0,0,.225.524c.54.572,1.13,1.1,1.651,1.687a1.492,1.492,0,0,1,.364.86c.041,1.148.019,2.3.016,3.447,0,.653-.258.907-.917.909-1.149,0-2.3.023-3.448-.015a1.406,1.406,0,0,1-.825-.338c-.548-.491-1.041-1.042-1.605-1.62" transform="translate(-9524.978 -18736.572)" fill="#003d78"/>
      <path id="Path_1462" data-name="Path 1462" d="M245.753,137.791c4.559.006,7.679,3.3,7.421,7.175a10.421,10.421,0,0,1-1.094,3.587,55.356,55.356,0,0,1-5.005,8.476.754.754,0,0,1-1.329.054,49.927,49.927,0,0,1-5.543-9.727,6.659,6.659,0,0,1-.027-5.534,6.535,6.535,0,0,1,5.578-4.031m3.659,6.794a3.022,3.022,0,1,0-3.041,3.027,3.057,3.057,0,0,0,3.041-3.027" transform="translate(-9687.319 -18809.887)" fill="#e22718"/>
      <path id="Path_1463" data-name="Path 1463" d="M62.213,3.427c-.714-.71-1.356-1.357-2.008-1.993a.825.825,0,0,1-.289-.965c.162-.4.5-.47.889-.468,1.637.01,3.274,0,4.911,0,.69,0,.94.248.941.931,0,1.652,0,3.3,0,4.957a.8.8,0,0,1-.459.847.817.817,0,0,1-.967-.277c-.637-.652-1.285-1.293-2-2.01-.406.425-.788.837-1.183,1.236-.432.435-.9.475-1.232.124s-.272-.778.152-1.2c.39-.387.793-.761,1.24-1.189" transform="translate(-9530.263 -18689.479)" fill="#e22718"/>
      <path id="Path_1464" data-name="Path 1464" d="M68.7,304.033a2.316,2.316,0,0,1-.391-.178c-.71-.464-1.42-.927-2.114-1.413a.768.768,0,0,1-.245-1.139.784.784,0,0,1,1.132-.1q1.056.708,2.115,1.411a.732.732,0,0,1,.342.893.755.755,0,0,1-.839.521" transform="translate(-9535.452 -18952.52)" fill="#003d78"/>
      <path id="Path_1465" data-name="Path 1465" d="M255.46,302.16a2.909,2.909,0,0,1-.491.677c-.713.514-1.447,1-2.19,1.469a.75.75,0,0,1-1.111-.208.758.758,0,0,1,.316-1.085c.705-.471,1.393-.97,2.122-1.4a1.106,1.106,0,0,1,.823-.067c.2.068.325.363.53.614" transform="translate(-9697.774 -18952.939)" fill="#003d78"/>
      <path id="Path_1466" data-name="Path 1466" d="M24.93,72.374a2.664,2.664,0,0,1-.158.518c-.318.524-.639,1.046-.984,1.552a.736.736,0,0,1-1.039.211.718.718,0,0,1-.245-.992c.323-.556.672-1.1,1.039-1.627a.631.631,0,0,1,.839-.222,2.5,2.5,0,0,1,.549.561" transform="translate(-9497.532 -18752.162)" fill="#003d78"/>
      <path id="Path_1467" data-name="Path 1467" d="M23.38,251.624a1.416,1.416,0,0,1,.456.317c.358.5.68,1.019.993,1.546a.748.748,0,0,1-.23,1.037.734.734,0,0,1-1.037-.221c-.348-.5-.687-1.017-.984-1.551s.072-1.138.8-1.128" transform="translate(-9497.6 -18909.359)" fill="#003d78"/>
      <path id="Path_1468" data-name="Path 1468" d="M134.788,332.558a.782.782,0,0,1-.893.89c-.494-.073-.987-.165-1.475-.272a.763.763,0,0,1-.638-.893.729.729,0,0,1,.868-.6c.526.066,1.049.169,1.568.281a.671.671,0,0,1,.57.592" transform="translate(-9593.105 -18979.313)" fill="#003d78"/>
      <path id="Path_1469" data-name="Path 1469" d="M193.863,331.62c.5,0,.774.206.848.613a.677.677,0,0,1-.5.845,10.953,10.953,0,0,1-1.749.317.749.749,0,0,1-.228-1.465c.559-.142,1.134-.22,1.626-.311" transform="translate(-9645.481 -18979.262)" fill="#003d78"/>
      <path id="Path_1470" data-name="Path 1470" d="M3.408,132.72c-.086.46-.165,1-.293,1.533a.731.731,0,0,1-.907.54.775.775,0,0,1-.57-.859c.076-.51.167-1.018.279-1.521a.752.752,0,0,1,.863-.619c.405.056.651.386.628.925" transform="translate(-9479.384 -18804.641)" fill="#003d78"/>
      <path id="Path_1471" data-name="Path 1471" d="M3.464,193.811c.01.512-.192.783-.593.88A.711.711,0,0,1,2,194.165a11.948,11.948,0,0,1-.307-1.7.688.688,0,0,1,.62-.763.678.678,0,0,1,.841.5c.147.557.224,1.133.313,1.61" transform="translate(-9479.434 -18856.979)" fill="#003d78"/>
      <path id="Path_1472" data-name="Path 1472" d="M45.7,53.949a.753.753,0,1,1-.769.713.741.741,0,0,1,.769-.713" transform="translate(-9517.22 -18736.621)" fill="#e22718"/>
      <path id="Path_1473" data-name="Path 1473" d="M12.716,109.362a.753.753,0,1,1,.766-.717.741.741,0,0,1-.766.717" transform="translate(-9488.426 -18783.729)" fill="#e22718"/>
      <path id="Path_1474" data-name="Path 1474" d="M1.505,168.509a.741.741,0,0,1-.782.747.753.753,0,0,1,.058-1.505.738.738,0,0,1,.724.758" transform="translate(-9477.961 -18836.066)" fill="#e22718"/>
      <path id="Path_1475" data-name="Path 1475" d="M12.719,229.155a.753.753,0,1,1,.764-.719.74.74,0,0,1-.764.719" transform="translate(-9488.427 -18888.408)" fill="#e22718"/>
      <path id="Path_1476" data-name="Path 1476" d="M45.7,281.556a.753.753,0,1,1-.77.711.741.741,0,0,1,.77-.711" transform="translate(-9517.219 -18935.514)" fill="#e22718"/>
      <path id="Path_1477" data-name="Path 1477" d="M109.342,324.253a.753.753,0,1,1-.708-.774.742.742,0,0,1,.708.774" transform="translate(-9572.193 -18972.148)" fill="#e22718"/>
      <path id="Path_1478" data-name="Path 1478" d="M229.164,324.239a.753.753,0,1,1-.723-.759.741.741,0,0,1,.723.759" transform="translate(-9676.899 -18972.15)" fill="#e22718"/>
      <path id="Path_1479" data-name="Path 1479" d="M168.472,336.968a.753.753,0,1,1,.775-.707.742.742,0,0,1-.775.707" transform="translate(-9624.54 -18982.619)" fill="#e22718"/>
      <path id="Path_1481" data-name="Path 1481" d="M283.1,182.746a1.509,1.509,0,1,1,1.487-1.509,1.5,1.5,0,0,1-1.487,1.509" transform="translate(-9724.006 -18846.533)" fill="#003d78"/>
    </g>
  </g>
</svg>
