<svg xmlns="http://www.w3.org/2000/svg" xmlns:xlink="http://www.w3.org/1999/xlink" width="67.642" height="58.672" viewBox="0 0 67.642 58.672">
  <defs>
    <clipPath id="clip-path">
      <rect id="Rectangle_17987" data-name="Rectangle 17987" width="67.642" height="58.672" fill="#003d78"/>
    </clipPath>
    <clipPath id="clip-path-2">
      <rect id="Rectangle_17988" data-name="Rectangle 17988" width="40.698" height="34.911" fill="#e22718"/>
    </clipPath>
  </defs>
  <g id="Group_10749" data-name="Group 10749" transform="translate(18865.895 13582.844)">
    <g id="Group_10716" data-name="Group 10716" transform="translate(-18865.895 -13582.844)">
      <g id="Group_2522" data-name="Group 2522" clip-path="url(#clip-path)">
        <path id="Path_5220" data-name="Path 5220" d="M0,.357C.111-.244.575.1.842.094,5.052.069,9.262.077,13.472.077a3.46,3.46,0,0,1,1.865,1.794c5.077,8.976,10.319,17.856,15.424,26.816.785,1.378,1.6,2.74,2.407,4.106a3.155,3.155,0,0,1,.643,2.087c-.087-1.53.968-2.6,1.652-3.779,5.6-9.642,11.146-19.318,16.707-28.983a3.853,3.853,0,0,1,2-2.04c4.21,0,8.42-.008,12.63.017.267,0,.731-.338.842.263-1.225,3.965-3.7,7.279-5.708,10.829-4.172,7.38-8.457,14.7-12.7,22.035Q42.411,45.016,35.62,56.828a5.249,5.249,0,0,1-1.658,1.845h-.281c-1.8-1.22-2.44-3.257-3.455-5q-7.34-12.624-14.617-25.285Q8.2,15.558.811,2.717C.388,1.98.392,1.1,0,.357" transform="translate(0 0)" fill="#003d78"/>
      </g>
    </g>
    <g id="Group_10717" data-name="Group 10717" transform="translate(-18852.422 -13582.844)">
      <g id="Group_2524" data-name="Group 2524" transform="translate(0 0)" clip-path="url(#clip-path-2)">
        <path id="Path_5221" data-name="Path 5221" d="M40.7,0,25.528,26.176Q23,30.531,20.47,34.911c-.629-.3-.755-.885-1.018-1.34q-9.262-16-18.5-32.019C.649,1.026.318.517,0,0H12.63c1.051.42,1.463,1.4,1.961,2.285,1.7,3.006,3.459,5.976,5.187,8.965a2.951,2.951,0,0,1,.568,1.909,2.709,2.709,0,0,1,.436-1.664Q23.714,6.48,26.6,1.441A3.536,3.536,0,0,1,28.067,0Z" transform="translate(0 0)" fill="#e22718"/>
      </g>
    </g>
  </g>
</svg>
