<svg xmlns="http://www.w3.org/2000/svg" width="36.136" height="34.682" viewBox="0 0 36.136 34.682">
  <g id="wallet_" data-name="wallet " transform="translate(-938.171 -435.893)">
    <path id="Path_1556" data-name="Path 1556" d="M0,181.907v-23.29a2.162,2.162,0,0,1,2.488-1.7H31.769a2.048,2.048,0,0,1,2.275,2.263q0,2.452,0,4.9c0,.124-.011.247-.018.393H33.6q-5.733,0-11.466,0a3.447,3.447,0,0,0-3.573,3.483c-.023,1.517-.031,3.035.013,4.55a3.574,3.574,0,0,0,.351,1.418,3.359,3.359,0,0,0,3.243,1.962q5.715.012,11.43,0h.413a1.566,1.566,0,0,1,.026.181c0,1.811.021,3.622-.005,5.433a2.012,2.012,0,0,1-2.181,2.075q-14.835.005-29.669-.011a2.962,2.962,0,0,1-1.207-.312A2.068,2.068,0,0,1,0,181.907" transform="translate(938.171 286.985)" fill="#003d78"/>
    <path id="Path_1557" data-name="Path 1557" d="M399,341.134c-1.894,0-3.788-.035-5.681.01a2.176,2.176,0,0,1-2.421-2.4c.049-1.316.009-2.634.011-3.952a2.065,2.065,0,0,1,2.247-2.236q5.84,0,11.68,0a2.056,2.056,0,0,1,2.229,2.215q0,2.064,0,4.129a2.06,2.06,0,0,1-2.245,2.235c-1.941,0-3.882,0-5.822,0m-3.079-5.57c-.712,0-1.042.12-1.261.437a2.5,2.5,0,0,0-.023,1.8c.323.636,2.078.635,2.371.006a2.038,2.038,0,0,0,.038-1.7,1,1,0,0,0-1.125-.545" transform="translate(567.234 120.324)" fill="#e22718"/>
    <path id="Path_1558" data-name="Path 1558" d="M276.073,58.334H259.416a2.953,2.953,0,0,1,.286-.117q6.555-1.793,13.111-3.581a2.025,2.025,0,0,1,2.661,1.509c.205.719.4,1.443.6,2.189" transform="translate(692.004 384.142)" fill="#e22718"/>
    <path id="Path_1559" data-name="Path 1559" d="M146,2.66l-3.381.92c-3.544.967-7.083,1.956-10.637,2.884a12.4,12.4,0,0,1-2.179.183l-.023-.116c.1-.053.192-.108.29-.157Q136.192,3.339,142.315.3a2.053,2.053,0,0,1,3.02,1.015c.214.43.427.861.664,1.341" transform="translate(815.019 435.893)" fill="#003d78"/>
  </g>
</svg>
