<svg xmlns="http://www.w3.org/2000/svg" width="26.113" height="44.557" viewBox="0 0 26.113 44.557">
  <g id="wearable" transform="translate(12627 18213)">
    <path id="Path_1589" data-name="Path 1589" d="M51.978,0a1.864,1.864,0,0,1,1.05,1.333c.458,1.6.96,3.184,1.443,4.775.053.176.1.354.152.562H37.146c.055-.208.1-.387.151-.563.484-1.591.986-3.177,1.445-4.775A1.865,1.865,0,0,1,39.792,0Z" transform="translate(-12659.828 -18213)" fill="#e22718"/>
    <path id="Path_1590" data-name="Path 1590" d="M13.057,105.83c-3.176,0-6.351.006-9.527,0a3.33,3.33,0,0,1-3.492-2.861A4.332,4.332,0,0,1,0,102.273Q0,92.835,0,83.4a3.33,3.33,0,0,1,3.528-3.554q9.527-.012,19.054,0A3.329,3.329,0,0,1,26.113,83.4q0,9.438,0,18.877a3.332,3.332,0,0,1-3.528,3.555c-3.176.01-6.351,0-9.527,0M13.05,87.358c-.218-.2-.382-.367-.56-.515A4.776,4.776,0,0,0,8.31,85.751,4.915,4.915,0,0,0,5.783,94.07c2.081,2.1,4.187,4.178,6.288,6.259a1.275,1.275,0,0,0,1.9.035c2.177-2.149,4.367-4.285,6.495-6.482a4.838,4.838,0,0,0,.488-6.021,4.982,4.982,0,0,0-5.7-1.96,5.356,5.356,0,0,0-2.2,1.457" transform="translate(-12627 -18283.555)" fill="#003d78"/>
    <path id="Path_1591" data-name="Path 1591" d="M37.218,326.09H54.672c-.04.164-.067.3-.108.433q-.776,2.555-1.556,5.108a1.342,1.342,0,0,1-1.493,1.111q-5.568,0-11.136,0a1.34,1.34,0,0,1-1.492-1.11q-.788-2.574-1.568-5.15c-.033-.108-.057-.218-.1-.391" transform="translate(-12659.892 -18501.186)" fill="#e22718"/>
    <path id="Path_1592" data-name="Path 1592" d="M65.606,161.685c-1.873-1.9-3.7-3.719-5.493-5.575a2.269,2.269,0,0,1,.064-3.151,2.333,2.333,0,0,1,3.195-.136c.427.368.812.787,1.215,1.184a1.331,1.331,0,0,0,2.094,0c.394-.386.769-.791,1.18-1.157a2.334,2.334,0,0,1,3.2.084,2.221,2.221,0,0,1,.14,3.109c-1.8,1.884-3.668,3.71-5.59,5.644" transform="translate(-12679.59 -18347.555)" fill="#e22718"/>
  </g>
</svg>
