<svg xmlns="http://www.w3.org/2000/svg" width="31.367" height="31.311" viewBox="0 0 31.367 31.311">
  <g id="web_development" data-name="web development" transform="translate(-913.877 -3015.512)">
    <path id="Path_1029" data-name="Path 1029" d="M0,131.314V111.549a.427.427,0,0,1,.284-.094c.071,0,.143,0,.214,0h30.32c.071,0,.143,0,.214,0,.234,0,.335.086.335.349q-.011,9.576,0,19.152a2.755,2.755,0,0,1-2.717,2.691q-12.988-.021-25.976-.008a2.744,2.744,0,0,1-2.526-1.674c-.09-.211-.066-.441-.148-.65" transform="translate(913.877 2913.176)" fill="#003d78"/>
    <path id="Path_1030" data-name="Path 1030" d="M0,7.377V2.3A2.5,2.5,0,0,1,1.072.492,2.49,2.49,0,0,1,2.617,0q13.048,0,26.1,0a2.69,2.69,0,0,1,2.536,1.816,2.567,2.567,0,0,1,.111.844c0,1.489,0,2.978.009,4.466,0,.266-.108.343-.338.346l-.306,0q-15.067,0-30.133,0a.857.857,0,0,1-.59-.1" transform="translate(913.877 3015.512)" fill="#e22718"/>
    <path id="Path_1031" data-name="Path 1031" d="M154.163,147.185a1.03,1.03,0,0,1-.1.442q-2.719,6.344-5.439,12.688a.921.921,0,1,1-1.68-.728q2.71-6.332,5.425-12.661a.919.919,0,0,1,1.8.259" transform="translate(779.049 2881.201)" fill="#fefefe"/>
    <path id="Path_1032" data-name="Path 1032" d="M63.178,180.846a1.026,1.026,0,0,1-.432.822c-1.116.887-2.224,1.784-3.345,2.665-.207.163-.251.238-.01.426,1.14.889,2.264,1.8,3.393,2.7a.91.91,0,0,1,.372.94.917.917,0,0,1-1.483.523c-1.529-1.219-3.059-2.436-4.579-3.666a.893.893,0,0,1,.014-1.431q2.271-1.832,4.556-3.646a.882.882,0,0,1,1-.121.9.9,0,0,1,.515.787" transform="translate(861.775 2850.273)" fill="#fefefe"/>
    <path id="Path_1033" data-name="Path 1033" d="M248.554,180.012a.964.964,0,0,1,.616.229q2.255,1.8,4.509,3.608a.912.912,0,0,1-.011,1.513q-2.238,1.8-4.487,3.587a.919.919,0,1,1-1.128-1.445q1.655-1.33,3.316-2.654c.313-.25.313-.249.012-.49q-1.682-1.346-3.363-2.693a.894.894,0,0,1-.32-1.034.9.9,0,0,1,.856-.62" transform="translate(686.49 2850.222)" fill="#fefefe"/>
    <path id="Path_1034" data-name="Path 1034" d="M251.373,45.308c.876,0,1.752,0,2.629,0a.921.921,0,1,1,.014,1.834q-2.674,0-5.349,0a.921.921,0,1,1,.017-1.834c.9,0,1.793,0,2.69,0" transform="translate(686.462 2973.91)" fill="#fefefe"/>
    <path id="Path_1035" data-name="Path 1035" d="M46.564,47.151a.918.918,0,1,1,.917-.911.93.93,0,0,1-.917.911" transform="translate(871.964 2973.903)" fill="#fefefe"/>
    <path id="Path_1036" data-name="Path 1036" d="M91.468,45.315a.918.918,0,1,1-.931.9.928.928,0,0,1,.931-.9" transform="translate(830.744 2973.903)" fill="#fefefe"/>
    <path id="Path_1037" data-name="Path 1037" d="M137.269,46.22a.918.918,0,1,1-.923-.9.93.93,0,0,1,.923.9" transform="translate(789.519 2973.902)" fill="#fefefe"/>
    <rect id="Rectangle_17818" data-name="Rectangle 17818" width="31.367" height="31.31" transform="translate(913.877 3015.512)" fill="none"/>
  </g>
</svg>
