<svg xmlns="http://www.w3.org/2000/svg" width="46.327" height="53.092" viewBox="0 0 46.327 53.092">
  <g id="Wellness" transform="translate(9905.827 18724.301)">
    <path id="Path_1582" data-name="Path 1582" d="M15.064,40.654c-2.973,1.7-5.725,3.329-8.537,4.847a9.434,9.434,0,0,1-2.968.989A2.779,2.779,0,0,1,.2,44.527a2.794,2.794,0,0,1,1.614-3.721c1.629-.752,3.3-1.408,4.957-2.1A6.546,6.546,0,0,0,11.1,32.523a39.9,39.9,0,0,1,1.286-7.29c.868-3.439,2.071-4.27,5.536-4.273,3.676,0,7.354.1,11.025-.032,2.521-.091,4.072,1.037,4.671,3.314a47.318,47.318,0,0,1,1.606,8.131c.245,3.037,1.523,5.037,4.288,6.191,1.516.634,2.983,1.39,4.51,1.995,1.805.715,2.647,1.938,2.176,3.858a2.731,2.731,0,0,1-3.922,1.849c-3.143-1.334-6.134-3.032-9.168-4.619a14.7,14.7,0,0,1-1.836-1.428,36.579,36.579,0,0,0,.589,4.984c.138.541,1.082,1.107,1.746,1.244,2.2.453,4.431.772,6.663,1.034,2.017.236,3.188,1.228,3.281,3.289A3.16,3.16,0,0,1,40.687,54.4c-4.025.811-8.026,1.746-12.061,2.635-.279-5.29-6.048-8.651-11.3-6.328,2.436.531,4.538.965,6.629,1.451,2.548.591,3.517,1.856,3,3.838-.517,2-1.88,2.639-4.421,2.082-5.633-1.236-11.256-2.522-16.9-3.682C3.7,54,2.647,52.961,2.7,51.05A3.342,3.342,0,0,1,6,47.494c2.158-.243,4.293-.69,6.451-.935,1.5-.169,2.282-.736,2.232-2.382a24.333,24.333,0,0,1,.378-3.522" transform="translate(-9905.827 -18729.477)" fill="#003d78"/>
    <path id="Path_1579" data-name="Path 1579" d="M35.068,6.532a6.377,6.377,0,1,1-12.751-.257,6.377,6.377,0,1,1,12.751.257" transform="translate(-9911.345 -18724.301)" fill="#e22718"/>
    <path id="Path_1580" data-name="Path 1580" d="M3.984,34.412C-.4,24.8,4.948,11.779,14.876,7.792c.7,1.372.273,2.143-1.037,2.96A18.865,18.865,0,0,0,5.375,32.14c.419,1.63.419,1.63-1.391,2.273" transform="translate(-9906.43 -18726.227)" fill="#003d78"/>
    <path id="Path_1581" data-name="Path 1581" d="M41.784,8.315C51.8,10.768,57.752,25.011,53.32,34.479c-1.3-.1-1.917-.414-1.5-2.062,2.275-9.031-.795-16.59-8.547-21.745-.706-.469-1-1.557-1.487-2.358" transform="translate(-9916.158 -18726.359)" fill="#003d78"/>
  </g>
</svg>
