<svg xmlns="http://www.w3.org/2000/svg" xmlns:xlink="http://www.w3.org/1999/xlink" width="67.957" height="66.511" viewBox="0 0 67.957 66.511">
  <defs>
    <clipPath id="clip-path">
      <rect id="Rectangle_18040" data-name="Rectangle 18040" width="61.254" height="61.224" fill="none"/>
    </clipPath>
  </defs>
  <g id="Group_10754" data-name="Group 10754" transform="translate(15151 18140.867)">
    <g id="Group_10726" data-name="Group 10726" transform="translate(-15148.354 -18138.24)">
      <circle id="Ellipse_15" data-name="Ellipse 15" cx="29.641" cy="29.641" r="29.641" transform="translate(1.692 0.265)" fill="#003d78"/>
      <g id="Group_10725" data-name="Group 10725" transform="translate(0)" clip-path="url(#clip-path)">
        <path id="Path_5539" data-name="Path 5539" d="M25.132,22.607a27.4,27.4,0,0,1,41.287-5.351c-2.692.335-4.306,1.755-4.712,4.381a6.471,6.471,0,0,0,.925,4.1c.7,1.3,1.5,2.545,2.207,3.839A12.965,12.965,0,0,1,66.12,39.758c-1.373,4.719-2.786,9.427-4.474,14.147q-1.948-5.8-3.9-11.6c-1.816-5.4-3.6-10.816-5.477-16.2-.392-1.122-.168-1.441.953-1.42a8.534,8.534,0,0,0,1.821-.207,1.062,1.062,0,0,0,.943-1.2,1,1,0,0,0-1.125-.993c-.867.007-1.736.03-2.6.111a77.037,77.037,0,0,1-11.313-.091c-.822-.044-1.776-.2-1.89.965s.791,1.317,1.646,1.271c1.747-.095,2.549.748,3.056,2.383.9,2.912,2.037,5.753,3.1,8.614a2.444,2.444,0,0,1,.1,1.761c-1.84,5.448-3.641,10.91-5.459,16.365a5.467,5.467,0,0,1-.387.7c-1.735-5.185-3.4-10.189-5.086-15.189-1.477-4.388-2.95-8.779-4.473-13.151-.325-.932-.285-1.388.852-1.331a12.166,12.166,0,0,0,1.672-.166c.774-.069,1.289-.462,1.234-1.253-.058-.832-.682-1.033-1.435-1-2.5.117-4.994.219-7.491.322-.345.014-.692,0-1.263,0" transform="translate(-17.415 -7.066)" fill="#f3f3f3"/>
        <path id="Path_5540" data-name="Path 5540" d="M83.087,107.616c2.881,7.868,5.6,15.311,8.343,22.744.237.642.079.9-.535,1.089a27.716,27.716,0,0,1-15.231.374c-.666-.171-.763-.446-.541-1.086,2.631-7.586,5.235-15.181,7.964-23.121" transform="translate(-51.982 -74.572)" fill="#f3f3f3"/>
        <path id="Path_5541" data-name="Path 5541" d="M25.627,99.173A27.438,27.438,0,0,1,12.563,63.411L25.627,99.173" transform="translate(-7.077 -43.94)" fill="#f3f3f3"/>
        <path id="Path_5542" data-name="Path 5542" d="M155.4,58.2c6.59,11.227,3.33,28.515-10.28,36.375.517-1.538.964-2.908,1.438-4.27q3.734-10.726,7.483-21.447A24.662,24.662,0,0,0,155.4,58.2" transform="translate(-100.56 -40.33)" fill="#f3f3f3"/>
      </g>
    </g>
    <g id="Ellipse_16" data-name="Ellipse 16" transform="translate(-15151 -18140.867)" fill="none" stroke="#e22718" stroke-width="1">
      <ellipse cx="33.979" cy="33.256" rx="33.979" ry="33.256" stroke="none"/>
      <ellipse cx="33.979" cy="33.256" rx="33.479" ry="32.756" fill="none"/>
    </g>
  </g>
</svg>
